solid con1
   facet normal 2.632450e-01 1.868525e-15 -9.647290e-01
      outer loop
         vertex -2.607158e+02 -1.967805e+02 2.393006e+02
         vertex -2.607158e+02 -1.467805e+02 2.393006e+02
         vertex -2.124793e+02 -1.967805e+02 2.524629e+02
      endloop
   endfacet
   facet normal 2.632450e-01 1.868525e-15 -9.647290e-01
      outer loop
         vertex -2.124793e+02 -1.967805e+02 2.524629e+02
         vertex -2.607158e+02 -1.467805e+02 2.393006e+02
         vertex -2.124793e+02 -1.467805e+02 2.524629e+02
      endloop
   endfacet
   facet normal 3.985728e-16 -1.000000e+00 -1.828081e-15
      outer loop
         vertex -2.738780e+02 -1.967805e+02 2.875371e+02
         vertex -2.607158e+02 -1.967805e+02 2.393006e+02
         vertex -2.256416e+02 -1.967805e+02 3.006994e+02
      endloop
   endfacet
   facet normal 3.985728e-16 -1.000000e+00 -1.828081e-15
      outer loop
         vertex -2.256416e+02 -1.967805e+02 3.006994e+02
         vertex -2.607158e+02 -1.967805e+02 2.393006e+02
         vertex -2.124793e+02 -1.967805e+02 2.524629e+02
      endloop
   endfacet
   facet normal -2.632450e-01 -1.868525e-15 9.647290e-01
      outer loop
         vertex -2.738780e+02 -1.467805e+02 2.875371e+02
         vertex -2.738780e+02 -1.967805e+02 2.875371e+02
         vertex -2.256416e+02 -1.467805e+02 3.006994e+02
      endloop
   endfacet
   facet normal -2.632450e-01 -1.868525e-15 9.647290e-01
      outer loop
         vertex -2.256416e+02 -1.467805e+02 3.006994e+02
         vertex -2.738780e+02 -1.967805e+02 2.875371e+02
         vertex -2.256416e+02 -1.967805e+02 3.006994e+02
      endloop
   endfacet
   facet normal -3.264915e-16 1.000000e+00 1.563920e-15
      outer loop
         vertex -2.422615e+02 -1.467805e+02 2.600422e+02
         vertex -2.405462e+02 -1.467805e+02 2.603527e+02
         vertex -2.607158e+02 -1.467805e+02 2.393006e+02
      endloop
   endfacet
   facet normal -3.264915e-16 1.000000e+00 1.563920e-15
      outer loop
         vertex -2.374054e+02 -1.467805e+02 2.618349e+02
         vertex -2.360753e+02 -1.467805e+02 2.629614e+02
         vertex -2.124793e+02 -1.467805e+02 2.524629e+02
      endloop
   endfacet
   facet normal -3.264915e-16 1.000000e+00 1.563920e-15
      outer loop
         vertex -2.360753e+02 -1.467805e+02 2.629614e+02
         vertex -2.349610e+02 -1.467805e+02 2.643019e+02
         vertex -2.124793e+02 -1.467805e+02 2.524629e+02
      endloop
   endfacet
   facet normal -3.264915e-16 1.000000e+00 1.563920e-15
      outer loop
         vertex -2.124793e+02 -1.467805e+02 2.524629e+02
         vertex -2.349610e+02 -1.467805e+02 2.643019e+02
         vertex -2.340963e+02 -1.467805e+02 2.658154e+02
      endloop
   endfacet
   facet normal -3.264914e-16 1.000000e+00 1.563920e-15
      outer loop
         vertex -2.124793e+02 -1.467805e+02 2.524629e+02
         vertex -2.340963e+02 -1.467805e+02 2.658154e+02
         vertex -2.335077e+02 -1.467805e+02 2.674561e+02
      endloop
   endfacet
   facet normal -3.264915e-16 1.000000e+00 1.563920e-15
      outer loop
         vertex -2.607158e+02 -1.467805e+02 2.393006e+02
         vertex -2.405462e+02 -1.467805e+02 2.603527e+02
         vertex -2.124793e+02 -1.467805e+02 2.524629e+02
      endloop
   endfacet
   facet normal -3.264915e-16 1.000000e+00 1.563920e-15
      outer loop
         vertex -2.124793e+02 -1.467805e+02 2.524629e+02
         vertex -2.405462e+02 -1.467805e+02 2.603527e+02
         vertex -2.389110e+02 -1.467805e+02 2.609564e+02
      endloop
   endfacet
   facet normal -3.264915e-16 1.000000e+00 1.563920e-15
      outer loop
         vertex -2.124793e+02 -1.467805e+02 2.524629e+02
         vertex -2.389110e+02 -1.467805e+02 2.609564e+02
         vertex -2.374054e+02 -1.467805e+02 2.618349e+02
      endloop
   endfacet
   facet normal -3.264911e-16 1.000000e+00 1.563920e-15
      outer loop
         vertex -2.341351e+02 -1.467805e+02 2.742677e+02
         vertex -2.350135e+02 -1.467805e+02 2.757733e+02
         vertex -2.256416e+02 -1.467805e+02 3.006994e+02
      endloop
   endfacet
   facet normal -3.264919e-16 1.000000e+00 1.563920e-15
      outer loop
         vertex -2.256416e+02 -1.467805e+02 3.006994e+02
         vertex -2.350135e+02 -1.467805e+02 2.757733e+02
         vertex -2.361401e+02 -1.467805e+02 2.771034e+02
      endloop
   endfacet
   facet normal -3.264912e-16 1.000000e+00 1.563920e-15
      outer loop
         vertex -2.361401e+02 -1.467805e+02 2.771034e+02
         vertex -2.374805e+02 -1.467805e+02 2.782177e+02
         vertex -2.256416e+02 -1.467805e+02 3.006994e+02
      endloop
   endfacet
   facet normal -3.264916e-16 1.000000e+00 1.563920e-15
      outer loop
         vertex -2.256416e+02 -1.467805e+02 3.006994e+02
         vertex -2.374805e+02 -1.467805e+02 2.782177e+02
         vertex -2.389941e+02 -1.467805e+02 2.790824e+02
      endloop
   endfacet
   facet normal -3.264919e-16 1.000000e+00 1.563920e-15
      outer loop
         vertex -2.256416e+02 -1.467805e+02 3.006994e+02
         vertex -2.389941e+02 -1.467805e+02 2.790824e+02
         vertex -2.406348e+02 -1.467805e+02 2.796710e+02
      endloop
   endfacet
   facet normal -3.264916e-16 1.000000e+00 1.563920e-15
      outer loop
         vertex -2.335077e+02 -1.467805e+02 2.674561e+02
         vertex -2.332128e+02 -1.467805e+02 2.691741e+02
         vertex -2.124793e+02 -1.467805e+02 2.524629e+02
      endloop
   endfacet
   facet normal -3.264916e-16 1.000000e+00 1.563920e-15
      outer loop
         vertex -2.124793e+02 -1.467805e+02 2.524629e+02
         vertex -2.332128e+02 -1.467805e+02 2.691741e+02
         vertex -2.332208e+02 -1.467805e+02 2.709172e+02
      endloop
   endfacet
   facet normal -3.264915e-16 1.000000e+00 1.563920e-15
      outer loop
         vertex -2.124793e+02 -1.467805e+02 2.524629e+02
         vertex -2.332208e+02 -1.467805e+02 2.709172e+02
         vertex -2.256416e+02 -1.467805e+02 3.006994e+02
      endloop
   endfacet
   facet normal -3.264918e-16 1.000000e+00 1.563920e-15
      outer loop
         vertex -2.256416e+02 -1.467805e+02 3.006994e+02
         vertex -2.332208e+02 -1.467805e+02 2.709172e+02
         vertex -2.335314e+02 -1.467805e+02 2.726325e+02
      endloop
   endfacet
   facet normal -3.264916e-16 1.000000e+00 1.563920e-15
      outer loop
         vertex -2.256416e+02 -1.467805e+02 3.006994e+02
         vertex -2.335314e+02 -1.467805e+02 2.726325e+02
         vertex -2.341351e+02 -1.467805e+02 2.742677e+02
      endloop
   endfacet
   facet normal -3.264915e-16 1.000000e+00 1.563920e-15
      outer loop
         vertex -2.607158e+02 -1.467805e+02 2.393006e+02
         vertex -2.738780e+02 -1.467805e+02 2.875371e+02
         vertex -2.531365e+02 -1.467805e+02 2.690828e+02
      endloop
   endfacet
   facet normal -3.264915e-16 1.000000e+00 1.563920e-15
      outer loop
         vertex -2.474464e+02 -1.467805e+02 2.790436e+02
         vertex -2.489519e+02 -1.467805e+02 2.781651e+02
         vertex -2.738780e+02 -1.467805e+02 2.875371e+02
      endloop
   endfacet
   facet normal -3.264917e-16 1.000000e+00 1.563920e-15
      outer loop
         vertex -2.522610e+02 -1.467805e+02 2.741846e+02
         vertex -2.528497e+02 -1.467805e+02 2.725439e+02
         vertex -2.738780e+02 -1.467805e+02 2.875371e+02
      endloop
   endfacet
   facet normal -3.264912e-16 1.000000e+00 1.563920e-15
      outer loop
         vertex -2.738780e+02 -1.467805e+02 2.875371e+02
         vertex -2.528497e+02 -1.467805e+02 2.725439e+02
         vertex -2.531445e+02 -1.467805e+02 2.708259e+02
      endloop
   endfacet
   facet normal -3.264918e-16 1.000000e+00 1.563920e-15
      outer loop
         vertex -2.738780e+02 -1.467805e+02 2.875371e+02
         vertex -2.531445e+02 -1.467805e+02 2.708259e+02
         vertex -2.531365e+02 -1.467805e+02 2.690828e+02
      endloop
   endfacet
   facet normal -3.264914e-16 1.000000e+00 1.563920e-15
      outer loop
         vertex -2.473633e+02 -1.467805e+02 2.609176e+02
         vertex -2.457226e+02 -1.467805e+02 2.603290e+02
         vertex -2.607158e+02 -1.467805e+02 2.393006e+02
      endloop
   endfacet
   facet normal -3.264915e-16 1.000000e+00 1.563920e-15
      outer loop
         vertex -2.607158e+02 -1.467805e+02 2.393006e+02
         vertex -2.457226e+02 -1.467805e+02 2.603290e+02
         vertex -2.440046e+02 -1.467805e+02 2.600342e+02
      endloop
   endfacet
   facet normal -3.264914e-16 1.000000e+00 1.563920e-15
      outer loop
         vertex -2.607158e+02 -1.467805e+02 2.393006e+02
         vertex -2.440046e+02 -1.467805e+02 2.600342e+02
         vertex -2.422615e+02 -1.467805e+02 2.600422e+02
      endloop
   endfacet
   facet normal -3.264914e-16 1.000000e+00 1.563920e-15
      outer loop
         vertex -2.406348e+02 -1.467805e+02 2.796710e+02
         vertex -2.423528e+02 -1.467805e+02 2.799658e+02
         vertex -2.256416e+02 -1.467805e+02 3.006994e+02
      endloop
   endfacet
   facet normal -3.264914e-16 1.000000e+00 1.563920e-15
      outer loop
         vertex -2.256416e+02 -1.467805e+02 3.006994e+02
         vertex -2.423528e+02 -1.467805e+02 2.799658e+02
         vertex -2.440959e+02 -1.467805e+02 2.799578e+02
      endloop
   endfacet
   facet normal -3.264915e-16 1.000000e+00 1.563920e-15
      outer loop
         vertex -2.256416e+02 -1.467805e+02 3.006994e+02
         vertex -2.440959e+02 -1.467805e+02 2.799578e+02
         vertex -2.738780e+02 -1.467805e+02 2.875371e+02
      endloop
   endfacet
   facet normal -3.264914e-16 1.000000e+00 1.563920e-15
      outer loop
         vertex -2.738780e+02 -1.467805e+02 2.875371e+02
         vertex -2.440959e+02 -1.467805e+02 2.799578e+02
         vertex -2.458111e+02 -1.467805e+02 2.796473e+02
      endloop
   endfacet
   facet normal -3.264915e-16 1.000000e+00 1.563920e-15
      outer loop
         vertex -2.738780e+02 -1.467805e+02 2.875371e+02
         vertex -2.458111e+02 -1.467805e+02 2.796473e+02
         vertex -2.474464e+02 -1.467805e+02 2.790436e+02
      endloop
   endfacet
   facet normal -3.264915e-16 1.000000e+00 1.563920e-15
      outer loop
         vertex -2.489519e+02 -1.467805e+02 2.781651e+02
         vertex -2.502821e+02 -1.467805e+02 2.770386e+02
         vertex -2.738780e+02 -1.467805e+02 2.875371e+02
      endloop
   endfacet
   facet normal -3.264913e-16 1.000000e+00 1.563920e-15
      outer loop
         vertex -2.738780e+02 -1.467805e+02 2.875371e+02
         vertex -2.502821e+02 -1.467805e+02 2.770386e+02
         vertex -2.513964e+02 -1.467805e+02 2.756981e+02
      endloop
   endfacet
   facet normal -3.264914e-16 1.000000e+00 1.563920e-15
      outer loop
         vertex -2.738780e+02 -1.467805e+02 2.875371e+02
         vertex -2.513964e+02 -1.467805e+02 2.756981e+02
         vertex -2.522610e+02 -1.467805e+02 2.741846e+02
      endloop
   endfacet
   facet normal -3.264916e-16 1.000000e+00 1.563920e-15
      outer loop
         vertex -2.531365e+02 -1.467805e+02 2.690828e+02
         vertex -2.528260e+02 -1.467805e+02 2.673676e+02
         vertex -2.607158e+02 -1.467805e+02 2.393006e+02
      endloop
   endfacet
   facet normal -3.264917e-16 1.000000e+00 1.563920e-15
      outer loop
         vertex -2.607158e+02 -1.467805e+02 2.393006e+02
         vertex -2.528260e+02 -1.467805e+02 2.673676e+02
         vertex -2.522223e+02 -1.467805e+02 2.657323e+02
      endloop
   endfacet
   facet normal -3.264914e-16 1.000000e+00 1.563920e-15
      outer loop
         vertex -2.607158e+02 -1.467805e+02 2.393006e+02
         vertex -2.522223e+02 -1.467805e+02 2.657323e+02
         vertex -2.513438e+02 -1.467805e+02 2.642267e+02
      endloop
   endfacet
   facet normal -3.264914e-16 1.000000e+00 1.563920e-15
      outer loop
         vertex -2.513438e+02 -1.467805e+02 2.642267e+02
         vertex -2.502173e+02 -1.467805e+02 2.628966e+02
         vertex -2.607158e+02 -1.467805e+02 2.393006e+02
      endloop
   endfacet
   facet normal -3.264916e-16 1.000000e+00 1.563920e-15
      outer loop
         vertex -2.607158e+02 -1.467805e+02 2.393006e+02
         vertex -2.502173e+02 -1.467805e+02 2.628966e+02
         vertex -2.488768e+02 -1.467805e+02 2.617823e+02
      endloop
   endfacet
   facet normal -3.264914e-16 1.000000e+00 1.563920e-15
      outer loop
         vertex -2.607158e+02 -1.467805e+02 2.393006e+02
         vertex -2.488768e+02 -1.467805e+02 2.617823e+02
         vertex -2.473633e+02 -1.467805e+02 2.609176e+02
      endloop
   endfacet
   facet normal -9.647290e-01 9.671835e-17 -2.632450e-01
      outer loop
         vertex -2.686131e+02 -1.631202e+02 2.682425e+02
         vertex -2.689890e+02 -1.641200e+02 2.696200e+02
         vertex -2.738780e+02 -1.467805e+02 2.875371e+02
      endloop
   endfacet
   facet normal -9.647290e-01 9.671835e-17 -2.632450e-01
      outer loop
         vertex -2.686131e+02 -1.631202e+02 2.682425e+02
         vertex -2.738780e+02 -1.467805e+02 2.875371e+02
         vertex -2.681973e+02 -1.623835e+02 2.667184e+02
      endloop
   endfacet
   facet normal -9.647290e-01 9.671835e-17 -2.632450e-01
      outer loop
         vertex -2.738780e+02 -1.967805e+02 2.875371e+02
         vertex -2.697706e+02 -1.752007e+02 2.724844e+02
         vertex -2.695767e+02 -1.767805e+02 2.717737e+02
      endloop
   endfacet
   facet normal -9.647290e-01 9.671835e-17 -2.632450e-01
      outer loop
         vertex -2.695767e+02 -1.767805e+02 2.717737e+02
         vertex -2.693135e+02 -1.782083e+02 2.708091e+02
         vertex -2.738780e+02 -1.967805e+02 2.875371e+02
      endloop
   endfacet
   facet normal -9.647290e-01 9.671835e-17 -2.632450e-01
      outer loop
         vertex -2.738780e+02 -1.967805e+02 2.875371e+02
         vertex -2.693135e+02 -1.782083e+02 2.708091e+02
         vertex -2.689890e+02 -1.794409e+02 2.696200e+02
      endloop
   endfacet
   facet normal -9.647290e-01 9.671835e-17 -2.632450e-01
      outer loop
         vertex -2.738780e+02 -1.967805e+02 2.875371e+02
         vertex -2.689890e+02 -1.794409e+02 2.696200e+02
         vertex -2.686131e+02 -1.804407e+02 2.682425e+02
      endloop
   endfacet
   facet normal -9.647290e-01 9.671835e-17 -2.632450e-01
      outer loop
         vertex -2.689890e+02 -1.641200e+02 2.696200e+02
         vertex -2.693135e+02 -1.653526e+02 2.708091e+02
         vertex -2.738780e+02 -1.467805e+02 2.875371e+02
      endloop
   endfacet
   facet normal -9.647290e-01 9.671835e-17 -2.632450e-01
      outer loop
         vertex -2.738780e+02 -1.467805e+02 2.875371e+02
         vertex -2.693135e+02 -1.653526e+02 2.708091e+02
         vertex -2.695767e+02 -1.667805e+02 2.717737e+02
      endloop
   endfacet
   facet normal -9.647290e-01 9.671835e-17 -2.632450e-01
      outer loop
         vertex -2.738780e+02 -1.467805e+02 2.875371e+02
         vertex -2.695767e+02 -1.667805e+02 2.717737e+02
         vertex -2.697706e+02 -1.683602e+02 2.724844e+02
      endloop
   endfacet
   facet normal -9.647290e-01 9.671835e-17 -2.632450e-01
      outer loop
         vertex -2.697706e+02 -1.683602e+02 2.724844e+02
         vertex -2.698894e+02 -1.700440e+02 2.729196e+02
         vertex -2.738780e+02 -1.467805e+02 2.875371e+02
      endloop
   endfacet
   facet normal -9.647290e-01 9.671835e-17 -2.632450e-01
      outer loop
         vertex -2.738780e+02 -1.467805e+02 2.875371e+02
         vertex -2.698894e+02 -1.700440e+02 2.729196e+02
         vertex -2.699294e+02 -1.717805e+02 2.730662e+02
      endloop
   endfacet
   facet normal -9.647290e-01 9.671835e-17 -2.632450e-01
      outer loop
         vertex -2.738780e+02 -1.467805e+02 2.875371e+02
         vertex -2.699294e+02 -1.717805e+02 2.730662e+02
         vertex -2.738780e+02 -1.967805e+02 2.875371e+02
      endloop
   endfacet
   facet normal -9.647290e-01 9.671835e-17 -2.632450e-01
      outer loop
         vertex -2.738780e+02 -1.967805e+02 2.875371e+02
         vertex -2.699294e+02 -1.717805e+02 2.730662e+02
         vertex -2.698894e+02 -1.735169e+02 2.729196e+02
      endloop
   endfacet
   facet normal -9.647290e-01 9.671835e-17 -2.632450e-01
      outer loop
         vertex -2.738780e+02 -1.967805e+02 2.875371e+02
         vertex -2.698894e+02 -1.735169e+02 2.729196e+02
         vertex -2.697706e+02 -1.752007e+02 2.724844e+02
      endloop
   endfacet
   facet normal -9.647290e-01 9.671835e-17 -2.632450e-01
      outer loop
         vertex -2.647045e+02 -1.700440e+02 2.539181e+02
         vertex -2.648232e+02 -1.683602e+02 2.543534e+02
         vertex -2.607158e+02 -1.467805e+02 2.393006e+02
      endloop
   endfacet
   facet normal -9.647290e-01 9.671835e-17 -2.632450e-01
      outer loop
         vertex -2.607158e+02 -1.467805e+02 2.393006e+02
         vertex -2.648232e+02 -1.683602e+02 2.543534e+02
         vertex -2.650171e+02 -1.667805e+02 2.550641e+02
      endloop
   endfacet
   facet normal -9.647290e-01 9.671835e-17 -2.632450e-01
      outer loop
         vertex -2.607158e+02 -1.467805e+02 2.393006e+02
         vertex -2.650171e+02 -1.667805e+02 2.550641e+02
         vertex -2.652803e+02 -1.653526e+02 2.560286e+02
      endloop
   endfacet
   facet normal -9.647290e-01 9.671835e-17 -2.632450e-01
      outer loop
         vertex -2.663966e+02 -1.623835e+02 2.601193e+02
         vertex -2.668398e+02 -1.619324e+02 2.617436e+02
         vertex -2.607158e+02 -1.467805e+02 2.393006e+02
      endloop
   endfacet
   facet normal -9.647290e-01 9.671835e-17 -2.632450e-01
      outer loop
         vertex -2.607158e+02 -1.467805e+02 2.393006e+02
         vertex -2.668398e+02 -1.619324e+02 2.617436e+02
         vertex -2.672969e+02 -1.617805e+02 2.634189e+02
      endloop
   endfacet
   facet normal -9.647290e-01 9.671835e-17 -2.632450e-01
      outer loop
         vertex -2.607158e+02 -1.467805e+02 2.393006e+02
         vertex -2.672969e+02 -1.617805e+02 2.634189e+02
         vertex -2.738780e+02 -1.467805e+02 2.875371e+02
      endloop
   endfacet
   facet normal -9.647290e-01 9.671835e-17 -2.632450e-01
      outer loop
         vertex -2.738780e+02 -1.467805e+02 2.875371e+02
         vertex -2.672969e+02 -1.617805e+02 2.634189e+02
         vertex -2.677540e+02 -1.619324e+02 2.650941e+02
      endloop
   endfacet
   facet normal -9.647290e-01 9.671835e-17 -2.632450e-01
      outer loop
         vertex -2.738780e+02 -1.467805e+02 2.875371e+02
         vertex -2.677540e+02 -1.619324e+02 2.650941e+02
         vertex -2.681973e+02 -1.623835e+02 2.667184e+02
      endloop
   endfacet
   facet normal -9.647290e-01 9.671835e-17 -2.632450e-01
      outer loop
         vertex -2.668398e+02 -1.816285e+02 2.617436e+02
         vertex -2.663966e+02 -1.811774e+02 2.601193e+02
         vertex -2.607158e+02 -1.967805e+02 2.393006e+02
      endloop
   endfacet
   facet normal -9.647290e-01 9.671835e-17 -2.632450e-01
      outer loop
         vertex -2.607158e+02 -1.967805e+02 2.393006e+02
         vertex -2.652803e+02 -1.782083e+02 2.560286e+02
         vertex -2.650171e+02 -1.767805e+02 2.550641e+02
      endloop
   endfacet
   facet normal -9.647290e-01 9.671835e-17 -2.632450e-01
      outer loop
         vertex -2.652803e+02 -1.653526e+02 2.560286e+02
         vertex -2.656048e+02 -1.641200e+02 2.572177e+02
         vertex -2.607158e+02 -1.467805e+02 2.393006e+02
      endloop
   endfacet
   facet normal -9.647290e-01 9.671835e-17 -2.632450e-01
      outer loop
         vertex -2.607158e+02 -1.467805e+02 2.393006e+02
         vertex -2.656048e+02 -1.641200e+02 2.572177e+02
         vertex -2.659807e+02 -1.631202e+02 2.585952e+02
      endloop
   endfacet
   facet normal -9.647290e-01 9.671835e-17 -2.632450e-01
      outer loop
         vertex -2.607158e+02 -1.467805e+02 2.393006e+02
         vertex -2.659807e+02 -1.631202e+02 2.585952e+02
         vertex -2.663966e+02 -1.623835e+02 2.601193e+02
      endloop
   endfacet
   facet normal -9.647290e-01 9.671835e-17 -2.632450e-01
      outer loop
         vertex -2.686131e+02 -1.804407e+02 2.682425e+02
         vertex -2.681973e+02 -1.811774e+02 2.667184e+02
         vertex -2.738780e+02 -1.967805e+02 2.875371e+02
      endloop
   endfacet
   facet normal -9.647290e-01 9.671835e-17 -2.632450e-01
      outer loop
         vertex -2.738780e+02 -1.967805e+02 2.875371e+02
         vertex -2.681973e+02 -1.811774e+02 2.667184e+02
         vertex -2.677540e+02 -1.816285e+02 2.650941e+02
      endloop
   endfacet
   facet normal -9.647290e-01 9.671835e-17 -2.632450e-01
      outer loop
         vertex -2.738780e+02 -1.967805e+02 2.875371e+02
         vertex -2.677540e+02 -1.816285e+02 2.650941e+02
         vertex -2.607158e+02 -1.967805e+02 2.393006e+02
      endloop
   endfacet
   facet normal -9.647290e-01 9.671835e-17 -2.632450e-01
      outer loop
         vertex -2.607158e+02 -1.967805e+02 2.393006e+02
         vertex -2.677540e+02 -1.816285e+02 2.650941e+02
         vertex -2.672969e+02 -1.817805e+02 2.634189e+02
      endloop
   endfacet
   facet normal -9.647290e-01 9.671835e-17 -2.632450e-01
      outer loop
         vertex -2.607158e+02 -1.967805e+02 2.393006e+02
         vertex -2.672969e+02 -1.817805e+02 2.634189e+02
         vertex -2.668398e+02 -1.816285e+02 2.617436e+02
      endloop
   endfacet
   facet normal -9.647290e-01 9.671835e-17 -2.632450e-01
      outer loop
         vertex -2.663966e+02 -1.811774e+02 2.601193e+02
         vertex -2.659807e+02 -1.804407e+02 2.585952e+02
         vertex -2.607158e+02 -1.967805e+02 2.393006e+02
      endloop
   endfacet
   facet normal -9.647290e-01 9.671835e-17 -2.632450e-01
      outer loop
         vertex -2.607158e+02 -1.967805e+02 2.393006e+02
         vertex -2.659807e+02 -1.804407e+02 2.585952e+02
         vertex -2.656048e+02 -1.794409e+02 2.572177e+02
      endloop
   endfacet
   facet normal -9.647290e-01 9.671835e-17 -2.632450e-01
      outer loop
         vertex -2.607158e+02 -1.967805e+02 2.393006e+02
         vertex -2.656048e+02 -1.794409e+02 2.572177e+02
         vertex -2.652803e+02 -1.782083e+02 2.560286e+02
      endloop
   endfacet
   facet normal -9.647290e-01 9.671835e-17 -2.632450e-01
      outer loop
         vertex -2.650171e+02 -1.767805e+02 2.550641e+02
         vertex -2.648232e+02 -1.752007e+02 2.543534e+02
         vertex -2.607158e+02 -1.967805e+02 2.393006e+02
      endloop
   endfacet
   facet normal -9.647290e-01 9.671835e-17 -2.632450e-01
      outer loop
         vertex -2.607158e+02 -1.967805e+02 2.393006e+02
         vertex -2.648232e+02 -1.752007e+02 2.543534e+02
         vertex -2.647045e+02 -1.735169e+02 2.539181e+02
      endloop
   endfacet
   facet normal -9.647290e-01 9.671835e-17 -2.632450e-01
      outer loop
         vertex -2.607158e+02 -1.967805e+02 2.393006e+02
         vertex -2.647045e+02 -1.735169e+02 2.539181e+02
         vertex -2.607158e+02 -1.467805e+02 2.393006e+02
      endloop
   endfacet
   facet normal -9.647290e-01 9.671835e-17 -2.632450e-01
      outer loop
         vertex -2.607158e+02 -1.467805e+02 2.393006e+02
         vertex -2.647045e+02 -1.735169e+02 2.539181e+02
         vertex -2.646645e+02 -1.717805e+02 2.537716e+02
      endloop
   endfacet
   facet normal -9.647290e-01 9.671835e-17 -2.632450e-01
      outer loop
         vertex -2.607158e+02 -1.467805e+02 2.393006e+02
         vertex -2.646645e+02 -1.717805e+02 2.537716e+02
         vertex -2.647045e+02 -1.700440e+02 2.539181e+02
      endloop
   endfacet
   facet normal 9.647290e-01 -9.671835e-17 2.632450e-01
      outer loop
         vertex -2.256416e+02 -1.467805e+02 3.006994e+02
         vertex -2.256416e+02 -1.967805e+02 3.006994e+02
         vertex -2.124793e+02 -1.467805e+02 2.524629e+02
      endloop
   endfacet
   facet normal 9.647290e-01 -9.671835e-17 2.632450e-01
      outer loop
         vertex -2.124793e+02 -1.467805e+02 2.524629e+02
         vertex -2.256416e+02 -1.967805e+02 3.006994e+02
         vertex -2.124793e+02 -1.967805e+02 2.524629e+02
      endloop
   endfacet
   facet normal -1.781613e-01 -1.869844e-15 9.840013e-01
      outer loop
         vertex -2.405462e+02 -1.617805e+02 2.603527e+02
         vertex -2.405462e+02 -1.467805e+02 2.603527e+02
         vertex -2.422615e+02 -1.617805e+02 2.600422e+02
      endloop
   endfacet
   facet normal -1.781613e-01 -1.869844e-15 9.840013e-01
      outer loop
         vertex -2.422615e+02 -1.617805e+02 2.600422e+02
         vertex -2.405462e+02 -1.467805e+02 2.603527e+02
         vertex -2.422615e+02 -1.467805e+02 2.600422e+02
      endloop
   endfacet
   facet normal -4.584911e-03 -1.829889e-15 9.999895e-01
      outer loop
         vertex -2.422615e+02 -1.617805e+02 2.600422e+02
         vertex -2.422615e+02 -1.467805e+02 2.600422e+02
         vertex -2.440046e+02 -1.617805e+02 2.600342e+02
      endloop
   endfacet
   facet normal -4.584911e-03 -1.829889e-15 9.999895e-01
      outer loop
         vertex -2.440046e+02 -1.617805e+02 2.600342e+02
         vertex -2.422615e+02 -1.467805e+02 2.600422e+02
         vertex -2.440046e+02 -1.467805e+02 2.600342e+02
      endloop
   endfacet
   facet normal 1.691307e-01 -1.734334e-15 9.855936e-01
      outer loop
         vertex -2.440046e+02 -1.617805e+02 2.600342e+02
         vertex -2.440046e+02 -1.467805e+02 2.600342e+02
         vertex -2.457226e+02 -1.617805e+02 2.603290e+02
      endloop
   endfacet
   facet normal 1.691307e-01 -1.734334e-15 9.855936e-01
      outer loop
         vertex -2.457226e+02 -1.617805e+02 2.603290e+02
         vertex -2.440046e+02 -1.467805e+02 2.600342e+02
         vertex -2.457226e+02 -1.467805e+02 2.603290e+02
      endloop
   endfacet
   facet normal 3.377085e-01 -1.586081e-15 9.412508e-01
      outer loop
         vertex -2.457226e+02 -1.617805e+02 2.603290e+02
         vertex -2.457226e+02 -1.467805e+02 2.603290e+02
         vertex -2.473633e+02 -1.617805e+02 2.609176e+02
      endloop
   endfacet
   facet normal 3.377085e-01 -1.586081e-15 9.412508e-01
      outer loop
         vertex -2.473633e+02 -1.617805e+02 2.609176e+02
         vertex -2.457226e+02 -1.467805e+02 2.603290e+02
         vertex -2.473633e+02 -1.467805e+02 2.609176e+02
      endloop
   endfacet
   facet normal 4.960241e-01 -1.389637e-15 8.683088e-01
      outer loop
         vertex -2.473633e+02 -1.617805e+02 2.609176e+02
         vertex -2.473633e+02 -1.467805e+02 2.609176e+02
         vertex -2.488768e+02 -1.617805e+02 2.617823e+02
      endloop
   endfacet
   facet normal 4.960241e-01 -1.389637e-15 8.683088e-01
      outer loop
         vertex -2.488768e+02 -1.617805e+02 2.617823e+02
         vertex -2.473633e+02 -1.467805e+02 2.609176e+02
         vertex -2.488768e+02 -1.467805e+02 2.617823e+02
      endloop
   endfacet
   facet normal 6.392677e-01 -1.150971e-15 7.689843e-01
      outer loop
         vertex -2.488768e+02 -1.617805e+02 2.617823e+02
         vertex -2.488768e+02 -1.467805e+02 2.617823e+02
         vertex -2.502173e+02 -1.617805e+02 2.628966e+02
      endloop
   endfacet
   facet normal 6.392677e-01 -1.150971e-15 7.689843e-01
      outer loop
         vertex -2.502173e+02 -1.617805e+02 2.628966e+02
         vertex -2.488768e+02 -1.467805e+02 2.617823e+02
         vertex -2.502173e+02 -1.467805e+02 2.628966e+02
      endloop
   endfacet
   facet normal 7.630892e-01 -8.773294e-16 6.462932e-01
      outer loop
         vertex -2.502173e+02 -1.617805e+02 2.628966e+02
         vertex -2.502173e+02 -1.467805e+02 2.628966e+02
         vertex -2.513438e+02 -1.617805e+02 2.642267e+02
      endloop
   endfacet
   facet normal 7.630892e-01 -8.773294e-16 6.462932e-01
      outer loop
         vertex -2.513438e+02 -1.617805e+02 2.642267e+02
         vertex -2.502173e+02 -1.467805e+02 2.628966e+02
         vertex -2.513438e+02 -1.467805e+02 2.642267e+02
      endloop
   endfacet
   facet normal 8.637238e-01 -5.770326e-16 5.039654e-01
      outer loop
         vertex -2.513438e+02 -1.617805e+02 2.642267e+02
         vertex -2.513438e+02 -1.467805e+02 2.642267e+02
         vertex -2.522223e+02 -1.617805e+02 2.657323e+02
      endloop
   endfacet
   facet normal 8.637238e-01 -5.770326e-16 5.039654e-01
      outer loop
         vertex -2.522223e+02 -1.617805e+02 2.657323e+02
         vertex -2.513438e+02 -1.467805e+02 2.642267e+02
         vertex -2.522223e+02 -1.467805e+02 2.657323e+02
      endloop
   endfacet
   facet normal 9.381149e-01 -2.592014e-16 3.463242e-01
      outer loop
         vertex -2.522223e+02 -1.617805e+02 2.657323e+02
         vertex -2.522223e+02 -1.467805e+02 2.657323e+02
         vertex -2.528260e+02 -1.617805e+02 2.673676e+02
      endloop
   endfacet
   facet normal 9.381149e-01 -2.592014e-16 3.463242e-01
      outer loop
         vertex -2.528260e+02 -1.617805e+02 2.673676e+02
         vertex -2.522223e+02 -1.467805e+02 2.657323e+02
         vertex -2.528260e+02 -1.467805e+02 2.673676e+02
      endloop
   endfacet
   facet normal 9.840011e-01 6.650095e-17 1.781624e-01
      outer loop
         vertex -2.528260e+02 -1.617805e+02 2.673676e+02
         vertex -2.528260e+02 -1.467805e+02 2.673676e+02
         vertex -2.531365e+02 -1.617805e+02 2.690828e+02
      endloop
   endfacet
   facet normal 9.840011e-01 6.650095e-17 1.781624e-01
      outer loop
         vertex -2.531365e+02 -1.617805e+02 2.690828e+02
         vertex -2.528260e+02 -1.467805e+02 2.673676e+02
         vertex -2.531365e+02 -1.467805e+02 2.690828e+02
      endloop
   endfacet
   facet normal 9.999895e-01 3.901871e-16 4.584911e-03
      outer loop
         vertex -2.531365e+02 -1.617805e+02 2.690828e+02
         vertex -2.531365e+02 -1.467805e+02 2.690828e+02
         vertex -2.531445e+02 -1.617805e+02 2.708259e+02
      endloop
   endfacet
   facet normal 9.999895e-01 3.901871e-16 4.584911e-03
      outer loop
         vertex -2.531445e+02 -1.617805e+02 2.708259e+02
         vertex -2.531365e+02 -1.467805e+02 2.690828e+02
         vertex -2.531445e+02 -1.467805e+02 2.708259e+02
      endloop
   endfacet
   facet normal 9.855935e-01 7.020163e-16 -1.691312e-01
      outer loop
         vertex -2.531445e+02 -1.617805e+02 2.708259e+02
         vertex -2.531445e+02 -1.467805e+02 2.708259e+02
         vertex -2.528497e+02 -1.617805e+02 2.725439e+02
      endloop
   endfacet
   facet normal 9.855935e-01 7.020163e-16 -1.691312e-01
      outer loop
         vertex -2.528497e+02 -1.617805e+02 2.725439e+02
         vertex -2.531445e+02 -1.467805e+02 2.708259e+02
         vertex -2.528497e+02 -1.467805e+02 2.725439e+02
      endloop
   endfacet
   facet normal 9.412505e-01 9.925167e-16 -3.377093e-01
      outer loop
         vertex -2.528497e+02 -1.617805e+02 2.725439e+02
         vertex -2.528497e+02 -1.467805e+02 2.725439e+02
         vertex -2.522610e+02 -1.617805e+02 2.741846e+02
      endloop
   endfacet
   facet normal 9.412505e-01 9.925167e-16 -3.377093e-01
      outer loop
         vertex -2.522610e+02 -1.617805e+02 2.741846e+02
         vertex -2.528497e+02 -1.467805e+02 2.725439e+02
         vertex -2.522610e+02 -1.467805e+02 2.741846e+02
      endloop
   endfacet
   facet normal 8.683088e-01 1.252856e-15 -4.960241e-01
      outer loop
         vertex -2.522610e+02 -1.617805e+02 2.741846e+02
         vertex -2.522610e+02 -1.467805e+02 2.741846e+02
         vertex -2.513964e+02 -1.617805e+02 2.756981e+02
      endloop
   endfacet
   facet normal 8.683088e-01 1.252856e-15 -4.960241e-01
      outer loop
         vertex -2.513964e+02 -1.617805e+02 2.756981e+02
         vertex -2.522610e+02 -1.467805e+02 2.741846e+02
         vertex -2.513964e+02 -1.467805e+02 2.756981e+02
      endloop
   endfacet
   facet normal 7.689843e-01 1.475129e-15 -6.392677e-01
      outer loop
         vertex -2.513964e+02 -1.617805e+02 2.756981e+02
         vertex -2.513964e+02 -1.467805e+02 2.756981e+02
         vertex -2.502821e+02 -1.617805e+02 2.770386e+02
      endloop
   endfacet
   facet normal 7.689843e-01 1.475129e-15 -6.392677e-01
      outer loop
         vertex -2.502821e+02 -1.617805e+02 2.770386e+02
         vertex -2.513964e+02 -1.467805e+02 2.756981e+02
         vertex -2.502821e+02 -1.467805e+02 2.770386e+02
      endloop
   endfacet
   facet normal 6.462932e-01 1.652584e-15 -7.630892e-01
      outer loop
         vertex -2.502821e+02 -1.617805e+02 2.770386e+02
         vertex -2.502821e+02 -1.467805e+02 2.770386e+02
         vertex -2.489519e+02 -1.617805e+02 2.781651e+02
      endloop
   endfacet
   facet normal 6.462932e-01 1.652584e-15 -7.630892e-01
      outer loop
         vertex -2.489519e+02 -1.617805e+02 2.781651e+02
         vertex -2.502821e+02 -1.467805e+02 2.770386e+02
         vertex -2.489519e+02 -1.467805e+02 2.781651e+02
      endloop
   endfacet
   facet normal 5.039654e-01 1.779824e-15 -8.637238e-01
      outer loop
         vertex -2.489519e+02 -1.617805e+02 2.781651e+02
         vertex -2.489519e+02 -1.467805e+02 2.781651e+02
         vertex -2.474464e+02 -1.617805e+02 2.790436e+02
      endloop
   endfacet
   facet normal 5.039654e-01 1.779824e-15 -8.637238e-01
      outer loop
         vertex -2.474464e+02 -1.617805e+02 2.790436e+02
         vertex -2.489519e+02 -1.467805e+02 2.781651e+02
         vertex -2.474464e+02 -1.467805e+02 2.790436e+02
      endloop
   endfacet
   facet normal 3.463243e-01 1.852985e-15 -9.381149e-01
      outer loop
         vertex -2.474464e+02 -1.617805e+02 2.790436e+02
         vertex -2.474464e+02 -1.467805e+02 2.790436e+02
         vertex -2.458111e+02 -1.617805e+02 2.796473e+02
      endloop
   endfacet
   facet normal 3.463243e-01 1.852985e-15 -9.381149e-01
      outer loop
         vertex -2.458111e+02 -1.617805e+02 2.796473e+02
         vertex -2.474464e+02 -1.467805e+02 2.790436e+02
         vertex -2.458111e+02 -1.467805e+02 2.796473e+02
      endloop
   endfacet
   facet normal 1.781624e-01 1.869844e-15 -9.840011e-01
      outer loop
         vertex -2.458111e+02 -1.617805e+02 2.796473e+02
         vertex -2.458111e+02 -1.467805e+02 2.796473e+02
         vertex -2.440959e+02 -1.617805e+02 2.799578e+02
      endloop
   endfacet
   facet normal 1.781624e-01 1.869844e-15 -9.840011e-01
      outer loop
         vertex -2.440959e+02 -1.617805e+02 2.799578e+02
         vertex -2.458111e+02 -1.467805e+02 2.796473e+02
         vertex -2.440959e+02 -1.467805e+02 2.799578e+02
      endloop
   endfacet
   facet normal 4.584911e-03 1.829889e-15 -9.999895e-01
      outer loop
         vertex -2.440959e+02 -1.617805e+02 2.799578e+02
         vertex -2.440959e+02 -1.467805e+02 2.799578e+02
         vertex -2.423528e+02 -1.617805e+02 2.799658e+02
      endloop
   endfacet
   facet normal 4.584911e-03 1.829889e-15 -9.999895e-01
      outer loop
         vertex -2.423528e+02 -1.617805e+02 2.799658e+02
         vertex -2.440959e+02 -1.467805e+02 2.799578e+02
         vertex -2.423528e+02 -1.467805e+02 2.799658e+02
      endloop
   endfacet
   facet normal -1.691312e-01 1.734333e-15 -9.855935e-01
      outer loop
         vertex -2.423528e+02 -1.617805e+02 2.799658e+02
         vertex -2.423528e+02 -1.467805e+02 2.799658e+02
         vertex -2.406348e+02 -1.617805e+02 2.796710e+02
      endloop
   endfacet
   facet normal -1.691312e-01 1.734333e-15 -9.855935e-01
      outer loop
         vertex -2.406348e+02 -1.617805e+02 2.796710e+02
         vertex -2.423528e+02 -1.467805e+02 2.799658e+02
         vertex -2.406348e+02 -1.467805e+02 2.796710e+02
      endloop
   endfacet
   facet normal -3.377093e-01 1.586080e-15 -9.412505e-01
      outer loop
         vertex -2.406348e+02 -1.617805e+02 2.796710e+02
         vertex -2.406348e+02 -1.467805e+02 2.796710e+02
         vertex -2.389941e+02 -1.617805e+02 2.790824e+02
      endloop
   endfacet
   facet normal -3.377093e-01 1.586080e-15 -9.412505e-01
      outer loop
         vertex -2.389941e+02 -1.617805e+02 2.790824e+02
         vertex -2.406348e+02 -1.467805e+02 2.796710e+02
         vertex -2.389941e+02 -1.467805e+02 2.790824e+02
      endloop
   endfacet
   facet normal -4.960241e-01 1.389637e-15 -8.683088e-01
      outer loop
         vertex -2.389941e+02 -1.617805e+02 2.790824e+02
         vertex -2.389941e+02 -1.467805e+02 2.790824e+02
         vertex -2.374805e+02 -1.617805e+02 2.782177e+02
      endloop
   endfacet
   facet normal -4.960241e-01 1.389637e-15 -8.683088e-01
      outer loop
         vertex -2.374805e+02 -1.617805e+02 2.782177e+02
         vertex -2.389941e+02 -1.467805e+02 2.790824e+02
         vertex -2.374805e+02 -1.467805e+02 2.782177e+02
      endloop
   endfacet
   facet normal -6.392683e-01 1.150969e-15 -7.689837e-01
      outer loop
         vertex -2.374805e+02 -1.617805e+02 2.782177e+02
         vertex -2.374805e+02 -1.467805e+02 2.782177e+02
         vertex -2.361401e+02 -1.617805e+02 2.771034e+02
      endloop
   endfacet
   facet normal -6.392683e-01 1.150969e-15 -7.689837e-01
      outer loop
         vertex -2.361401e+02 -1.617805e+02 2.771034e+02
         vertex -2.374805e+02 -1.467805e+02 2.782177e+02
         vertex -2.361401e+02 -1.467805e+02 2.771034e+02
      endloop
   endfacet
   facet normal -7.630895e-01 8.773286e-16 -6.462928e-01
      outer loop
         vertex -2.361401e+02 -1.617805e+02 2.771034e+02
         vertex -2.361401e+02 -1.467805e+02 2.771034e+02
         vertex -2.350135e+02 -1.617805e+02 2.757733e+02
      endloop
   endfacet
   facet normal -7.630895e-01 8.773286e-16 -6.462928e-01
      outer loop
         vertex -2.350135e+02 -1.617805e+02 2.757733e+02
         vertex -2.361401e+02 -1.467805e+02 2.771034e+02
         vertex -2.350135e+02 -1.467805e+02 2.757733e+02
      endloop
   endfacet
   facet normal -8.637238e-01 5.770326e-16 -5.039654e-01
      outer loop
         vertex -2.350135e+02 -1.617805e+02 2.757733e+02
         vertex -2.350135e+02 -1.467805e+02 2.757733e+02
         vertex -2.341351e+02 -1.617805e+02 2.742677e+02
      endloop
   endfacet
   facet normal -8.637238e-01 5.770326e-16 -5.039654e-01
      outer loop
         vertex -2.341351e+02 -1.617805e+02 2.742677e+02
         vertex -2.350135e+02 -1.467805e+02 2.757733e+02
         vertex -2.341351e+02 -1.467805e+02 2.742677e+02
      endloop
   endfacet
   facet normal -9.381145e-01 2.592036e-16 -3.463253e-01
      outer loop
         vertex -2.341351e+02 -1.617805e+02 2.742677e+02
         vertex -2.341351e+02 -1.467805e+02 2.742677e+02
         vertex -2.335314e+02 -1.617805e+02 2.726325e+02
      endloop
   endfacet
   facet normal -9.381145e-01 2.592036e-16 -3.463253e-01
      outer loop
         vertex -2.335314e+02 -1.617805e+02 2.726325e+02
         vertex -2.341351e+02 -1.467805e+02 2.742677e+02
         vertex -2.335314e+02 -1.467805e+02 2.726325e+02
      endloop
   endfacet
   facet normal -9.840013e-01 -6.650277e-17 -1.781614e-01
      outer loop
         vertex -2.335314e+02 -1.617805e+02 2.726325e+02
         vertex -2.335314e+02 -1.467805e+02 2.726325e+02
         vertex -2.332208e+02 -1.617805e+02 2.709172e+02
      endloop
   endfacet
   facet normal -9.840013e-01 -6.650277e-17 -1.781614e-01
      outer loop
         vertex -2.332208e+02 -1.617805e+02 2.709172e+02
         vertex -2.335314e+02 -1.467805e+02 2.726325e+02
         vertex -2.332208e+02 -1.467805e+02 2.709172e+02
      endloop
   endfacet
   facet normal -9.999895e-01 -3.901871e-16 -4.584911e-03
      outer loop
         vertex -2.332208e+02 -1.617805e+02 2.709172e+02
         vertex -2.332208e+02 -1.467805e+02 2.709172e+02
         vertex -2.332128e+02 -1.617805e+02 2.691741e+02
      endloop
   endfacet
   facet normal -9.999895e-01 -3.901871e-16 -4.584911e-03
      outer loop
         vertex -2.332128e+02 -1.617805e+02 2.691741e+02
         vertex -2.332208e+02 -1.467805e+02 2.709172e+02
         vertex -2.332128e+02 -1.467805e+02 2.691741e+02
      endloop
   endfacet
   facet normal -9.855936e-01 -7.020154e-16 1.691307e-01
      outer loop
         vertex -2.332128e+02 -1.617805e+02 2.691741e+02
         vertex -2.332128e+02 -1.467805e+02 2.691741e+02
         vertex -2.335077e+02 -1.617805e+02 2.674561e+02
      endloop
   endfacet
   facet normal -9.855936e-01 -7.020154e-16 1.691307e-01
      outer loop
         vertex -2.335077e+02 -1.617805e+02 2.674561e+02
         vertex -2.332128e+02 -1.467805e+02 2.691741e+02
         vertex -2.335077e+02 -1.467805e+02 2.674561e+02
      endloop
   endfacet
   facet normal -9.412508e-01 -9.925153e-16 3.377085e-01
      outer loop
         vertex -2.335077e+02 -1.617805e+02 2.674561e+02
         vertex -2.335077e+02 -1.467805e+02 2.674561e+02
         vertex -2.340963e+02 -1.617805e+02 2.658154e+02
      endloop
   endfacet
   facet normal -9.412508e-01 -9.925153e-16 3.377085e-01
      outer loop
         vertex -2.340963e+02 -1.617805e+02 2.658154e+02
         vertex -2.335077e+02 -1.467805e+02 2.674561e+02
         vertex -2.340963e+02 -1.467805e+02 2.658154e+02
      endloop
   endfacet
   facet normal -8.683088e-01 -1.252856e-15 4.960241e-01
      outer loop
         vertex -2.340963e+02 -1.617805e+02 2.658154e+02
         vertex -2.340963e+02 -1.467805e+02 2.658154e+02
         vertex -2.349610e+02 -1.617805e+02 2.643019e+02
      endloop
   endfacet
   facet normal -8.683088e-01 -1.252856e-15 4.960241e-01
      outer loop
         vertex -2.349610e+02 -1.617805e+02 2.643019e+02
         vertex -2.340963e+02 -1.467805e+02 2.658154e+02
         vertex -2.349610e+02 -1.467805e+02 2.643019e+02
      endloop
   endfacet
   facet normal -7.689837e-01 -1.475130e-15 6.392683e-01
      outer loop
         vertex -2.349610e+02 -1.617805e+02 2.643019e+02
         vertex -2.349610e+02 -1.467805e+02 2.643019e+02
         vertex -2.360753e+02 -1.617805e+02 2.629614e+02
      endloop
   endfacet
   facet normal -7.689837e-01 -1.475130e-15 6.392683e-01
      outer loop
         vertex -2.360753e+02 -1.617805e+02 2.629614e+02
         vertex -2.349610e+02 -1.467805e+02 2.643019e+02
         vertex -2.360753e+02 -1.467805e+02 2.629614e+02
      endloop
   endfacet
   facet normal -6.462928e-01 -1.652584e-15 7.630895e-01
      outer loop
         vertex -2.360753e+02 -1.617805e+02 2.629614e+02
         vertex -2.360753e+02 -1.467805e+02 2.629614e+02
         vertex -2.374054e+02 -1.617805e+02 2.618349e+02
      endloop
   endfacet
   facet normal -6.462928e-01 -1.652584e-15 7.630895e-01
      outer loop
         vertex -2.374054e+02 -1.617805e+02 2.618349e+02
         vertex -2.360753e+02 -1.467805e+02 2.629614e+02
         vertex -2.374054e+02 -1.467805e+02 2.618349e+02
      endloop
   endfacet
   facet normal -5.039654e-01 -1.779824e-15 8.637238e-01
      outer loop
         vertex -2.374054e+02 -1.617805e+02 2.618349e+02
         vertex -2.374054e+02 -1.467805e+02 2.618349e+02
         vertex -2.389110e+02 -1.617805e+02 2.609564e+02
      endloop
   endfacet
   facet normal -5.039654e-01 -1.779824e-15 8.637238e-01
      outer loop
         vertex -2.389110e+02 -1.617805e+02 2.609564e+02
         vertex -2.374054e+02 -1.467805e+02 2.618349e+02
         vertex -2.389110e+02 -1.467805e+02 2.609564e+02
      endloop
   endfacet
   facet normal -3.463252e-01 -1.852985e-15 9.381145e-01
      outer loop
         vertex -2.389110e+02 -1.617805e+02 2.609564e+02
         vertex -2.389110e+02 -1.467805e+02 2.609564e+02
         vertex -2.405462e+02 -1.617805e+02 2.603527e+02
      endloop
   endfacet
   facet normal -3.463252e-01 -1.852985e-15 9.381145e-01
      outer loop
         vertex -2.405462e+02 -1.617805e+02 2.603527e+02
         vertex -2.389110e+02 -1.467805e+02 2.609564e+02
         vertex -2.405462e+02 -1.467805e+02 2.603527e+02
      endloop
   endfacet
   facet normal -3.985728e-16 1.000000e+00 1.828081e-15
      outer loop
         vertex -2.374054e+02 -1.617805e+02 2.618349e+02
         vertex -2.389110e+02 -1.617805e+02 2.609564e+02
         vertex -2.431787e+02 -1.617805e+02 2.700000e+02
      endloop
   endfacet
   facet normal -3.985728e-16 1.000000e+00 1.828081e-15
      outer loop
         vertex -2.431787e+02 -1.617805e+02 2.700000e+02
         vertex -2.389110e+02 -1.617805e+02 2.609564e+02
         vertex -2.405462e+02 -1.617805e+02 2.603527e+02
      endloop
   endfacet
   facet normal -3.985728e-16 1.000000e+00 1.828081e-15
      outer loop
         vertex -2.431787e+02 -1.617805e+02 2.700000e+02
         vertex -2.405462e+02 -1.617805e+02 2.603527e+02
         vertex -2.422615e+02 -1.617805e+02 2.600422e+02
      endloop
   endfacet
   facet normal -3.985728e-16 1.000000e+00 1.828081e-15
      outer loop
         vertex -2.340963e+02 -1.617805e+02 2.658154e+02
         vertex -2.349610e+02 -1.617805e+02 2.643019e+02
         vertex -2.431787e+02 -1.617805e+02 2.700000e+02
      endloop
   endfacet
   facet normal -3.985728e-16 1.000000e+00 1.828081e-15
      outer loop
         vertex -2.431787e+02 -1.617805e+02 2.700000e+02
         vertex -2.349610e+02 -1.617805e+02 2.643019e+02
         vertex -2.360753e+02 -1.617805e+02 2.629614e+02
      endloop
   endfacet
   facet normal -3.985728e-16 1.000000e+00 1.828081e-15
      outer loop
         vertex -2.431787e+02 -1.617805e+02 2.700000e+02
         vertex -2.360753e+02 -1.617805e+02 2.629614e+02
         vertex -2.374054e+02 -1.617805e+02 2.618349e+02
      endloop
   endfacet
   facet normal -3.985728e-16 1.000000e+00 1.828081e-15
      outer loop
         vertex -2.332208e+02 -1.617805e+02 2.709172e+02
         vertex -2.332128e+02 -1.617805e+02 2.691741e+02
         vertex -2.431787e+02 -1.617805e+02 2.700000e+02
      endloop
   endfacet
   facet normal -3.985728e-16 1.000000e+00 1.828081e-15
      outer loop
         vertex -2.431787e+02 -1.617805e+02 2.700000e+02
         vertex -2.332128e+02 -1.617805e+02 2.691741e+02
         vertex -2.335077e+02 -1.617805e+02 2.674561e+02
      endloop
   endfacet
   facet normal -3.985728e-16 1.000000e+00 1.828081e-15
      outer loop
         vertex -2.431787e+02 -1.617805e+02 2.700000e+02
         vertex -2.335077e+02 -1.617805e+02 2.674561e+02
         vertex -2.340963e+02 -1.617805e+02 2.658154e+02
      endloop
   endfacet
   facet normal -3.985728e-16 1.000000e+00 1.828081e-15
      outer loop
         vertex -2.350135e+02 -1.617805e+02 2.757733e+02
         vertex -2.341351e+02 -1.617805e+02 2.742677e+02
         vertex -2.431787e+02 -1.617805e+02 2.700000e+02
      endloop
   endfacet
   facet normal -3.985728e-16 1.000000e+00 1.828081e-15
      outer loop
         vertex -2.431787e+02 -1.617805e+02 2.700000e+02
         vertex -2.341351e+02 -1.617805e+02 2.742677e+02
         vertex -2.335314e+02 -1.617805e+02 2.726325e+02
      endloop
   endfacet
   facet normal -3.985728e-16 1.000000e+00 1.828081e-15
      outer loop
         vertex -2.431787e+02 -1.617805e+02 2.700000e+02
         vertex -2.335314e+02 -1.617805e+02 2.726325e+02
         vertex -2.332208e+02 -1.617805e+02 2.709172e+02
      endloop
   endfacet
   facet normal -3.985728e-16 1.000000e+00 1.828081e-15
      outer loop
         vertex -2.389941e+02 -1.617805e+02 2.790824e+02
         vertex -2.374805e+02 -1.617805e+02 2.782177e+02
         vertex -2.431787e+02 -1.617805e+02 2.700000e+02
      endloop
   endfacet
   facet normal -3.985728e-16 1.000000e+00 1.828081e-15
      outer loop
         vertex -2.431787e+02 -1.617805e+02 2.700000e+02
         vertex -2.374805e+02 -1.617805e+02 2.782177e+02
         vertex -2.361401e+02 -1.617805e+02 2.771034e+02
      endloop
   endfacet
   facet normal -3.985728e-16 1.000000e+00 1.828081e-15
      outer loop
         vertex -2.431787e+02 -1.617805e+02 2.700000e+02
         vertex -2.361401e+02 -1.617805e+02 2.771034e+02
         vertex -2.350135e+02 -1.617805e+02 2.757733e+02
      endloop
   endfacet
   facet normal -3.985728e-16 1.000000e+00 1.828081e-15
      outer loop
         vertex -2.440959e+02 -1.617805e+02 2.799578e+02
         vertex -2.423528e+02 -1.617805e+02 2.799658e+02
         vertex -2.431787e+02 -1.617805e+02 2.700000e+02
      endloop
   endfacet
   facet normal -3.985728e-16 1.000000e+00 1.828081e-15
      outer loop
         vertex -2.431787e+02 -1.617805e+02 2.700000e+02
         vertex -2.423528e+02 -1.617805e+02 2.799658e+02
         vertex -2.406348e+02 -1.617805e+02 2.796710e+02
      endloop
   endfacet
   facet normal -3.985728e-16 1.000000e+00 1.828081e-15
      outer loop
         vertex -2.431787e+02 -1.617805e+02 2.700000e+02
         vertex -2.406348e+02 -1.617805e+02 2.796710e+02
         vertex -2.389941e+02 -1.617805e+02 2.790824e+02
      endloop
   endfacet
   facet normal -3.985728e-16 1.000000e+00 1.828081e-15
      outer loop
         vertex -2.489519e+02 -1.617805e+02 2.781651e+02
         vertex -2.474464e+02 -1.617805e+02 2.790436e+02
         vertex -2.431787e+02 -1.617805e+02 2.700000e+02
      endloop
   endfacet
   facet normal -3.985728e-16 1.000000e+00 1.828081e-15
      outer loop
         vertex -2.431787e+02 -1.617805e+02 2.700000e+02
         vertex -2.474464e+02 -1.617805e+02 2.790436e+02
         vertex -2.458111e+02 -1.617805e+02 2.796473e+02
      endloop
   endfacet
   facet normal -3.985728e-16 1.000000e+00 1.828081e-15
      outer loop
         vertex -2.431787e+02 -1.617805e+02 2.700000e+02
         vertex -2.458111e+02 -1.617805e+02 2.796473e+02
         vertex -2.440959e+02 -1.617805e+02 2.799578e+02
      endloop
   endfacet
   facet normal -3.985728e-16 1.000000e+00 1.828081e-15
      outer loop
         vertex -2.522610e+02 -1.617805e+02 2.741846e+02
         vertex -2.513964e+02 -1.617805e+02 2.756981e+02
         vertex -2.431787e+02 -1.617805e+02 2.700000e+02
      endloop
   endfacet
   facet normal -3.985728e-16 1.000000e+00 1.828081e-15
      outer loop
         vertex -2.431787e+02 -1.617805e+02 2.700000e+02
         vertex -2.513964e+02 -1.617805e+02 2.756981e+02
         vertex -2.502821e+02 -1.617805e+02 2.770386e+02
      endloop
   endfacet
   facet normal -3.985728e-16 1.000000e+00 1.828081e-15
      outer loop
         vertex -2.431787e+02 -1.617805e+02 2.700000e+02
         vertex -2.502821e+02 -1.617805e+02 2.770386e+02
         vertex -2.489519e+02 -1.617805e+02 2.781651e+02
      endloop
   endfacet
   facet normal -3.985728e-16 1.000000e+00 1.828081e-15
      outer loop
         vertex -2.531365e+02 -1.617805e+02 2.690828e+02
         vertex -2.531445e+02 -1.617805e+02 2.708259e+02
         vertex -2.431787e+02 -1.617805e+02 2.700000e+02
      endloop
   endfacet
   facet normal -3.985728e-16 1.000000e+00 1.828081e-15
      outer loop
         vertex -2.431787e+02 -1.617805e+02 2.700000e+02
         vertex -2.531445e+02 -1.617805e+02 2.708259e+02
         vertex -2.528497e+02 -1.617805e+02 2.725439e+02
      endloop
   endfacet
   facet normal -3.985728e-16 1.000000e+00 1.828081e-15
      outer loop
         vertex -2.431787e+02 -1.617805e+02 2.700000e+02
         vertex -2.528497e+02 -1.617805e+02 2.725439e+02
         vertex -2.522610e+02 -1.617805e+02 2.741846e+02
      endloop
   endfacet
   facet normal -3.985728e-16 1.000000e+00 1.828081e-15
      outer loop
         vertex -2.513438e+02 -1.617805e+02 2.642267e+02
         vertex -2.522223e+02 -1.617805e+02 2.657323e+02
         vertex -2.431787e+02 -1.617805e+02 2.700000e+02
      endloop
   endfacet
   facet normal -3.985728e-16 1.000000e+00 1.828081e-15
      outer loop
         vertex -2.431787e+02 -1.617805e+02 2.700000e+02
         vertex -2.522223e+02 -1.617805e+02 2.657323e+02
         vertex -2.528260e+02 -1.617805e+02 2.673676e+02
      endloop
   endfacet
   facet normal -3.985728e-16 1.000000e+00 1.828081e-15
      outer loop
         vertex -2.431787e+02 -1.617805e+02 2.700000e+02
         vertex -2.528260e+02 -1.617805e+02 2.673676e+02
         vertex -2.531365e+02 -1.617805e+02 2.690828e+02
      endloop
   endfacet
   facet normal -3.985728e-16 1.000000e+00 1.828081e-15
      outer loop
         vertex -2.473633e+02 -1.617805e+02 2.609176e+02
         vertex -2.488768e+02 -1.617805e+02 2.617823e+02
         vertex -2.431787e+02 -1.617805e+02 2.700000e+02
      endloop
   endfacet
   facet normal -3.985728e-16 1.000000e+00 1.828081e-15
      outer loop
         vertex -2.431787e+02 -1.617805e+02 2.700000e+02
         vertex -2.488768e+02 -1.617805e+02 2.617823e+02
         vertex -2.502173e+02 -1.617805e+02 2.628966e+02
      endloop
   endfacet
   facet normal -3.985728e-16 1.000000e+00 1.828081e-15
      outer loop
         vertex -2.431787e+02 -1.617805e+02 2.700000e+02
         vertex -2.502173e+02 -1.617805e+02 2.628966e+02
         vertex -2.513438e+02 -1.617805e+02 2.642267e+02
      endloop
   endfacet
   facet normal -3.985728e-16 1.000000e+00 1.828081e-15
      outer loop
         vertex -2.422615e+02 -1.617805e+02 2.600422e+02
         vertex -2.440046e+02 -1.617805e+02 2.600342e+02
         vertex -2.431787e+02 -1.617805e+02 2.700000e+02
      endloop
   endfacet
   facet normal -3.985728e-16 1.000000e+00 1.828081e-15
      outer loop
         vertex -2.431787e+02 -1.617805e+02 2.700000e+02
         vertex -2.440046e+02 -1.617805e+02 2.600342e+02
         vertex -2.457226e+02 -1.617805e+02 2.603290e+02
      endloop
   endfacet
   facet normal -3.985728e-16 1.000000e+00 1.828081e-15
      outer loop
         vertex -2.431787e+02 -1.617805e+02 2.700000e+02
         vertex -2.457226e+02 -1.617805e+02 2.603290e+02
         vertex -2.473633e+02 -1.617805e+02 2.609176e+02
      endloop
   endfacet
   facet normal -2.294337e-02 -9.961947e-01 8.408188e-02
      outer loop
         vertex -2.576496e+02 -1.617805e+02 2.660513e+02
         vertex -2.672969e+02 -1.617805e+02 2.634189e+02
         vertex -2.571925e+02 -1.619324e+02 2.643761e+02
      endloop
   endfacet
   facet normal -2.294337e-02 -9.961947e-01 8.408188e-02
      outer loop
         vertex -2.571925e+02 -1.619324e+02 2.643761e+02
         vertex -2.672969e+02 -1.617805e+02 2.634189e+02
         vertex -2.668398e+02 -1.619324e+02 2.617436e+02
      endloop
   endfacet
   facet normal -6.813283e-02 -9.659258e-01 2.496902e-01
      outer loop
         vertex -2.571925e+02 -1.619324e+02 2.643761e+02
         vertex -2.668398e+02 -1.619324e+02 2.617436e+02
         vertex -2.567493e+02 -1.623835e+02 2.627518e+02
      endloop
   endfacet
   facet normal -6.813283e-02 -9.659258e-01 2.496902e-01
      outer loop
         vertex -2.567493e+02 -1.623835e+02 2.627518e+02
         vertex -2.668398e+02 -1.619324e+02 2.617436e+02
         vertex -2.663966e+02 -1.623835e+02 2.601193e+02
      endloop
   endfacet
   facet normal -1.112521e-01 -9.063080e-01 4.077118e-01
      outer loop
         vertex -2.567493e+02 -1.623835e+02 2.627518e+02
         vertex -2.663966e+02 -1.623835e+02 2.601193e+02
         vertex -2.563334e+02 -1.631202e+02 2.612277e+02
      endloop
   endfacet
   facet normal -1.112521e-01 -9.063080e-01 4.077118e-01
      outer loop
         vertex -2.563334e+02 -1.631202e+02 2.612277e+02
         vertex -2.663966e+02 -1.623835e+02 2.601193e+02
         vertex -2.659807e+02 -1.631202e+02 2.585952e+02
      endloop
   endfacet
   facet normal -1.509912e-01 -8.191518e-01 5.533461e-01
      outer loop
         vertex -2.563334e+02 -1.631202e+02 2.612277e+02
         vertex -2.659807e+02 -1.631202e+02 2.585952e+02
         vertex -2.559575e+02 -1.641200e+02 2.598502e+02
      endloop
   endfacet
   facet normal -1.509912e-01 -8.191518e-01 5.533461e-01
      outer loop
         vertex -2.559575e+02 -1.641200e+02 2.598502e+02
         vertex -2.659807e+02 -1.631202e+02 2.585952e+02
         vertex -2.656048e+02 -1.641200e+02 2.572177e+02
      endloop
   endfacet
   facet normal -1.861423e-01 -7.071068e-01 6.821664e-01
      outer loop
         vertex -2.559575e+02 -1.641200e+02 2.598502e+02
         vertex -2.656048e+02 -1.641200e+02 2.572177e+02
         vertex -2.556330e+02 -1.653526e+02 2.586611e+02
      endloop
   endfacet
   facet normal -1.861423e-01 -7.071068e-01 6.821664e-01
      outer loop
         vertex -2.556330e+02 -1.653526e+02 2.586611e+02
         vertex -2.656048e+02 -1.641200e+02 2.572177e+02
         vertex -2.652803e+02 -1.653526e+02 2.560286e+02
      endloop
   endfacet
   facet normal -2.156376e-01 -5.735767e-01 7.902595e-01
      outer loop
         vertex -2.556330e+02 -1.653526e+02 2.586611e+02
         vertex -2.652803e+02 -1.653526e+02 2.560286e+02
         vertex -2.553698e+02 -1.667805e+02 2.576965e+02
      endloop
   endfacet
   facet normal -2.156376e-01 -5.735767e-01 7.902595e-01
      outer loop
         vertex -2.553698e+02 -1.667805e+02 2.576965e+02
         vertex -2.652803e+02 -1.653526e+02 2.560286e+02
         vertex -2.650171e+02 -1.667805e+02 2.550641e+02
      endloop
   endfacet
   facet normal -2.385811e-01 -4.226179e-01 8.743416e-01
      outer loop
         vertex -2.553698e+02 -1.667805e+02 2.576965e+02
         vertex -2.650171e+02 -1.667805e+02 2.550641e+02
         vertex -2.551759e+02 -1.683602e+02 2.569858e+02
      endloop
   endfacet
   facet normal -2.385811e-01 -4.226179e-01 8.743416e-01
      outer loop
         vertex -2.551759e+02 -1.683602e+02 2.569858e+02
         vertex -2.650171e+02 -1.667805e+02 2.550641e+02
         vertex -2.648232e+02 -1.683602e+02 2.543534e+02
      endloop
   endfacet
   facet normal -2.542752e-01 -2.588191e-01 9.318567e-01
      outer loop
         vertex -2.551759e+02 -1.683602e+02 2.569858e+02
         vertex -2.648232e+02 -1.683602e+02 2.543534e+02
         vertex -2.550572e+02 -1.700440e+02 2.565506e+02
      endloop
   endfacet
   facet normal -2.542752e-01 -2.588191e-01 9.318567e-01
      outer loop
         vertex -2.550572e+02 -1.700440e+02 2.565506e+02
         vertex -2.648232e+02 -1.683602e+02 2.543534e+02
         vertex -2.647045e+02 -1.700440e+02 2.539181e+02
      endloop
   endfacet
   facet normal -2.622433e-01 -8.715596e-02 9.610579e-01
      outer loop
         vertex -2.550572e+02 -1.700440e+02 2.565506e+02
         vertex -2.647045e+02 -1.700440e+02 2.539181e+02
         vertex -2.550172e+02 -1.717805e+02 2.564040e+02
      endloop
   endfacet
   facet normal -2.622433e-01 -8.715596e-02 9.610579e-01
      outer loop
         vertex -2.550172e+02 -1.717805e+02 2.564040e+02
         vertex -2.647045e+02 -1.700440e+02 2.539181e+02
         vertex -2.646645e+02 -1.717805e+02 2.537716e+02
      endloop
   endfacet
   facet normal -2.622433e-01 8.715605e-02 9.610579e-01
      outer loop
         vertex -2.550172e+02 -1.717805e+02 2.564040e+02
         vertex -2.646645e+02 -1.717805e+02 2.537716e+02
         vertex -2.550572e+02 -1.735169e+02 2.565506e+02
      endloop
   endfacet
   facet normal -2.622433e-01 8.715605e-02 9.610579e-01
      outer loop
         vertex -2.550572e+02 -1.735169e+02 2.565506e+02
         vertex -2.646645e+02 -1.717805e+02 2.537716e+02
         vertex -2.647045e+02 -1.735169e+02 2.539181e+02
      endloop
   endfacet
   facet normal -2.542752e-01 2.588191e-01 9.318567e-01
      outer loop
         vertex -2.550572e+02 -1.735169e+02 2.565506e+02
         vertex -2.647045e+02 -1.735169e+02 2.539181e+02
         vertex -2.551759e+02 -1.752007e+02 2.569858e+02
      endloop
   endfacet
   facet normal -2.542752e-01 2.588191e-01 9.318567e-01
      outer loop
         vertex -2.551759e+02 -1.752007e+02 2.569858e+02
         vertex -2.647045e+02 -1.735169e+02 2.539181e+02
         vertex -2.648232e+02 -1.752007e+02 2.543534e+02
      endloop
   endfacet
   facet normal -2.385811e-01 4.226179e-01 8.743416e-01
      outer loop
         vertex -2.551759e+02 -1.752007e+02 2.569858e+02
         vertex -2.648232e+02 -1.752007e+02 2.543534e+02
         vertex -2.553698e+02 -1.767805e+02 2.576965e+02
      endloop
   endfacet
   facet normal -2.385811e-01 4.226179e-01 8.743416e-01
      outer loop
         vertex -2.553698e+02 -1.767805e+02 2.576965e+02
         vertex -2.648232e+02 -1.752007e+02 2.543534e+02
         vertex -2.650171e+02 -1.767805e+02 2.550641e+02
      endloop
   endfacet
   facet normal -2.156376e-01 5.735767e-01 7.902595e-01
      outer loop
         vertex -2.553698e+02 -1.767805e+02 2.576965e+02
         vertex -2.650171e+02 -1.767805e+02 2.550641e+02
         vertex -2.556330e+02 -1.782083e+02 2.586611e+02
      endloop
   endfacet
   facet normal -2.156376e-01 5.735767e-01 7.902595e-01
      outer loop
         vertex -2.556330e+02 -1.782083e+02 2.586611e+02
         vertex -2.650171e+02 -1.767805e+02 2.550641e+02
         vertex -2.652803e+02 -1.782083e+02 2.560286e+02
      endloop
   endfacet
   facet normal -1.861423e-01 7.071068e-01 6.821664e-01
      outer loop
         vertex -2.556330e+02 -1.782083e+02 2.586611e+02
         vertex -2.652803e+02 -1.782083e+02 2.560286e+02
         vertex -2.559575e+02 -1.794409e+02 2.598502e+02
      endloop
   endfacet
   facet normal -1.861423e-01 7.071068e-01 6.821664e-01
      outer loop
         vertex -2.559575e+02 -1.794409e+02 2.598502e+02
         vertex -2.652803e+02 -1.782083e+02 2.560286e+02
         vertex -2.656048e+02 -1.794409e+02 2.572177e+02
      endloop
   endfacet
   facet normal -1.509914e-01 8.191513e-01 5.533468e-01
      outer loop
         vertex -2.559575e+02 -1.794409e+02 2.598502e+02
         vertex -2.656048e+02 -1.794409e+02 2.572177e+02
         vertex -2.563334e+02 -1.804407e+02 2.612277e+02
      endloop
   endfacet
   facet normal -1.509914e-01 8.191513e-01 5.533468e-01
      outer loop
         vertex -2.563334e+02 -1.804407e+02 2.612277e+02
         vertex -2.656048e+02 -1.794409e+02 2.572177e+02
         vertex -2.659807e+02 -1.804407e+02 2.585952e+02
      endloop
   endfacet
   facet normal -1.112522e-01 9.063077e-01 4.077122e-01
      outer loop
         vertex -2.563334e+02 -1.804407e+02 2.612277e+02
         vertex -2.659807e+02 -1.804407e+02 2.585952e+02
         vertex -2.567493e+02 -1.811774e+02 2.627518e+02
      endloop
   endfacet
   facet normal -1.112522e-01 9.063077e-01 4.077122e-01
      outer loop
         vertex -2.567493e+02 -1.811774e+02 2.627518e+02
         vertex -2.659807e+02 -1.804407e+02 2.585952e+02
         vertex -2.663966e+02 -1.811774e+02 2.601193e+02
      endloop
   endfacet
   facet normal -6.813283e-02 9.659258e-01 2.496902e-01
      outer loop
         vertex -2.567493e+02 -1.811774e+02 2.627518e+02
         vertex -2.663966e+02 -1.811774e+02 2.601193e+02
         vertex -2.571925e+02 -1.816285e+02 2.643761e+02
      endloop
   endfacet
   facet normal -6.813283e-02 9.659258e-01 2.496902e-01
      outer loop
         vertex -2.571925e+02 -1.816285e+02 2.643761e+02
         vertex -2.663966e+02 -1.811774e+02 2.601193e+02
         vertex -2.668398e+02 -1.816285e+02 2.617436e+02
      endloop
   endfacet
   facet normal -2.294309e-02 9.961948e-01 8.408086e-02
      outer loop
         vertex -2.571925e+02 -1.816285e+02 2.643761e+02
         vertex -2.668398e+02 -1.816285e+02 2.617436e+02
         vertex -2.576496e+02 -1.817805e+02 2.660513e+02
      endloop
   endfacet
   facet normal -2.294309e-02 9.961948e-01 8.408086e-02
      outer loop
         vertex -2.576496e+02 -1.817805e+02 2.660513e+02
         vertex -2.668398e+02 -1.816285e+02 2.617436e+02
         vertex -2.672969e+02 -1.817805e+02 2.634189e+02
      endloop
   endfacet
   facet normal 2.294312e-02 9.961948e-01 -8.408095e-02
      outer loop
         vertex -2.576496e+02 -1.817805e+02 2.660513e+02
         vertex -2.672969e+02 -1.817805e+02 2.634189e+02
         vertex -2.581067e+02 -1.816285e+02 2.677266e+02
      endloop
   endfacet
   facet normal 2.294312e-02 9.961948e-01 -8.408095e-02
      outer loop
         vertex -2.581067e+02 -1.816285e+02 2.677266e+02
         vertex -2.672969e+02 -1.817805e+02 2.634189e+02
         vertex -2.677540e+02 -1.816285e+02 2.650941e+02
      endloop
   endfacet
   facet normal 6.813283e-02 9.659258e-01 -2.496902e-01
      outer loop
         vertex -2.581067e+02 -1.816285e+02 2.677266e+02
         vertex -2.677540e+02 -1.816285e+02 2.650941e+02
         vertex -2.585500e+02 -1.811774e+02 2.693509e+02
      endloop
   endfacet
   facet normal 6.813283e-02 9.659258e-01 -2.496902e-01
      outer loop
         vertex -2.585500e+02 -1.811774e+02 2.693509e+02
         vertex -2.677540e+02 -1.816285e+02 2.650941e+02
         vertex -2.681973e+02 -1.811774e+02 2.667184e+02
      endloop
   endfacet
   facet normal 1.112522e-01 9.063077e-01 -4.077122e-01
      outer loop
         vertex -2.585500e+02 -1.811774e+02 2.693509e+02
         vertex -2.681973e+02 -1.811774e+02 2.667184e+02
         vertex -2.589658e+02 -1.804407e+02 2.708750e+02
      endloop
   endfacet
   facet normal 1.112522e-01 9.063077e-01 -4.077122e-01
      outer loop
         vertex -2.589658e+02 -1.804407e+02 2.708750e+02
         vertex -2.681973e+02 -1.811774e+02 2.667184e+02
         vertex -2.686131e+02 -1.804407e+02 2.682425e+02
      endloop
   endfacet
   facet normal 1.509914e-01 8.191513e-01 -5.533468e-01
      outer loop
         vertex -2.589658e+02 -1.804407e+02 2.708750e+02
         vertex -2.686131e+02 -1.804407e+02 2.682425e+02
         vertex -2.593417e+02 -1.794409e+02 2.722525e+02
      endloop
   endfacet
   facet normal 1.509914e-01 8.191513e-01 -5.533468e-01
      outer loop
         vertex -2.593417e+02 -1.794409e+02 2.722525e+02
         vertex -2.686131e+02 -1.804407e+02 2.682425e+02
         vertex -2.689890e+02 -1.794409e+02 2.696200e+02
      endloop
   endfacet
   facet normal 1.861423e-01 7.071068e-01 -6.821664e-01
      outer loop
         vertex -2.593417e+02 -1.794409e+02 2.722525e+02
         vertex -2.689890e+02 -1.794409e+02 2.696200e+02
         vertex -2.596662e+02 -1.782083e+02 2.734416e+02
      endloop
   endfacet
   facet normal 1.861423e-01 7.071068e-01 -6.821664e-01
      outer loop
         vertex -2.596662e+02 -1.782083e+02 2.734416e+02
         vertex -2.689890e+02 -1.794409e+02 2.696200e+02
         vertex -2.693135e+02 -1.782083e+02 2.708091e+02
      endloop
   endfacet
   facet normal 2.156375e-01 5.735774e-01 -7.902591e-01
      outer loop
         vertex -2.596662e+02 -1.782083e+02 2.734416e+02
         vertex -2.693135e+02 -1.782083e+02 2.708091e+02
         vertex -2.599294e+02 -1.767805e+02 2.744061e+02
      endloop
   endfacet
   facet normal 2.156375e-01 5.735774e-01 -7.902591e-01
      outer loop
         vertex -2.599294e+02 -1.767805e+02 2.744061e+02
         vertex -2.693135e+02 -1.782083e+02 2.708091e+02
         vertex -2.695767e+02 -1.767805e+02 2.717737e+02
      endloop
   endfacet
   facet normal 2.385810e-01 4.226183e-01 -8.743414e-01
      outer loop
         vertex -2.599294e+02 -1.767805e+02 2.744061e+02
         vertex -2.695767e+02 -1.767805e+02 2.717737e+02
         vertex -2.601233e+02 -1.752007e+02 2.751168e+02
      endloop
   endfacet
   facet normal 2.385810e-01 4.226183e-01 -8.743414e-01
      outer loop
         vertex -2.601233e+02 -1.752007e+02 2.751168e+02
         vertex -2.695767e+02 -1.767805e+02 2.717737e+02
         vertex -2.697706e+02 -1.752007e+02 2.724844e+02
      endloop
   endfacet
   facet normal 2.542752e-01 2.588191e-01 -9.318567e-01
      outer loop
         vertex -2.601233e+02 -1.752007e+02 2.751168e+02
         vertex -2.697706e+02 -1.752007e+02 2.724844e+02
         vertex -2.602421e+02 -1.735169e+02 2.755521e+02
      endloop
   endfacet
   facet normal 2.542752e-01 2.588191e-01 -9.318567e-01
      outer loop
         vertex -2.602421e+02 -1.735169e+02 2.755521e+02
         vertex -2.697706e+02 -1.752007e+02 2.724844e+02
         vertex -2.698894e+02 -1.735169e+02 2.729196e+02
      endloop
   endfacet
   facet normal 2.622433e-01 8.715499e-02 -9.610580e-01
      outer loop
         vertex -2.602421e+02 -1.735169e+02 2.755521e+02
         vertex -2.698894e+02 -1.735169e+02 2.729196e+02
         vertex -2.602821e+02 -1.717805e+02 2.756986e+02
      endloop
   endfacet
   facet normal 2.622433e-01 8.715499e-02 -9.610580e-01
      outer loop
         vertex -2.602821e+02 -1.717805e+02 2.756986e+02
         vertex -2.698894e+02 -1.735169e+02 2.729196e+02
         vertex -2.699294e+02 -1.717805e+02 2.730662e+02
      endloop
   endfacet
   facet normal 2.622433e-01 -8.715490e-02 -9.610580e-01
      outer loop
         vertex -2.602821e+02 -1.717805e+02 2.756986e+02
         vertex -2.699294e+02 -1.717805e+02 2.730662e+02
         vertex -2.602421e+02 -1.700440e+02 2.755521e+02
      endloop
   endfacet
   facet normal 2.622433e-01 -8.715490e-02 -9.610580e-01
      outer loop
         vertex -2.602421e+02 -1.700440e+02 2.755521e+02
         vertex -2.699294e+02 -1.717805e+02 2.730662e+02
         vertex -2.698894e+02 -1.700440e+02 2.729196e+02
      endloop
   endfacet
   facet normal 2.542752e-01 -2.588191e-01 -9.318567e-01
      outer loop
         vertex -2.602421e+02 -1.700440e+02 2.755521e+02
         vertex -2.698894e+02 -1.700440e+02 2.729196e+02
         vertex -2.601233e+02 -1.683602e+02 2.751168e+02
      endloop
   endfacet
   facet normal 2.542752e-01 -2.588191e-01 -9.318567e-01
      outer loop
         vertex -2.601233e+02 -1.683602e+02 2.751168e+02
         vertex -2.698894e+02 -1.700440e+02 2.729196e+02
         vertex -2.697706e+02 -1.683602e+02 2.724844e+02
      endloop
   endfacet
   facet normal 2.385810e-01 -4.226183e-01 -8.743414e-01
      outer loop
         vertex -2.601233e+02 -1.683602e+02 2.751168e+02
         vertex -2.697706e+02 -1.683602e+02 2.724844e+02
         vertex -2.599294e+02 -1.667805e+02 2.744061e+02
      endloop
   endfacet
   facet normal 2.385810e-01 -4.226183e-01 -8.743414e-01
      outer loop
         vertex -2.599294e+02 -1.667805e+02 2.744061e+02
         vertex -2.697706e+02 -1.683602e+02 2.724844e+02
         vertex -2.695767e+02 -1.667805e+02 2.717737e+02
      endloop
   endfacet
   facet normal 2.156375e-01 -5.735774e-01 -7.902591e-01
      outer loop
         vertex -2.599294e+02 -1.667805e+02 2.744061e+02
         vertex -2.695767e+02 -1.667805e+02 2.717737e+02
         vertex -2.596662e+02 -1.653526e+02 2.734416e+02
      endloop
   endfacet
   facet normal 2.156375e-01 -5.735774e-01 -7.902591e-01
      outer loop
         vertex -2.596662e+02 -1.653526e+02 2.734416e+02
         vertex -2.695767e+02 -1.667805e+02 2.717737e+02
         vertex -2.693135e+02 -1.653526e+02 2.708091e+02
      endloop
   endfacet
   facet normal 1.861423e-01 -7.071068e-01 -6.821664e-01
      outer loop
         vertex -2.596662e+02 -1.653526e+02 2.734416e+02
         vertex -2.693135e+02 -1.653526e+02 2.708091e+02
         vertex -2.593417e+02 -1.641200e+02 2.722525e+02
      endloop
   endfacet
   facet normal 1.861423e-01 -7.071068e-01 -6.821664e-01
      outer loop
         vertex -2.593417e+02 -1.641200e+02 2.722525e+02
         vertex -2.693135e+02 -1.653526e+02 2.708091e+02
         vertex -2.689890e+02 -1.641200e+02 2.696200e+02
      endloop
   endfacet
   facet normal 1.509912e-01 -8.191518e-01 -5.533461e-01
      outer loop
         vertex -2.593417e+02 -1.641200e+02 2.722525e+02
         vertex -2.689890e+02 -1.641200e+02 2.696200e+02
         vertex -2.589658e+02 -1.631202e+02 2.708750e+02
      endloop
   endfacet
   facet normal 1.509912e-01 -8.191518e-01 -5.533461e-01
      outer loop
         vertex -2.589658e+02 -1.631202e+02 2.708750e+02
         vertex -2.689890e+02 -1.641200e+02 2.696200e+02
         vertex -2.686131e+02 -1.631202e+02 2.682425e+02
      endloop
   endfacet
   facet normal 1.112521e-01 -9.063080e-01 -4.077118e-01
      outer loop
         vertex -2.589658e+02 -1.631202e+02 2.708750e+02
         vertex -2.686131e+02 -1.631202e+02 2.682425e+02
         vertex -2.585500e+02 -1.623835e+02 2.693509e+02
      endloop
   endfacet
   facet normal 1.112521e-01 -9.063080e-01 -4.077118e-01
      outer loop
         vertex -2.585500e+02 -1.623835e+02 2.693509e+02
         vertex -2.686131e+02 -1.631202e+02 2.682425e+02
         vertex -2.681973e+02 -1.623835e+02 2.667184e+02
      endloop
   endfacet
   facet normal 6.813283e-02 -9.659258e-01 -2.496902e-01
      outer loop
         vertex -2.585500e+02 -1.623835e+02 2.693509e+02
         vertex -2.681973e+02 -1.623835e+02 2.667184e+02
         vertex -2.581067e+02 -1.619324e+02 2.677266e+02
      endloop
   endfacet
   facet normal 6.813283e-02 -9.659258e-01 -2.496902e-01
      outer loop
         vertex -2.581067e+02 -1.619324e+02 2.677266e+02
         vertex -2.681973e+02 -1.623835e+02 2.667184e+02
         vertex -2.677540e+02 -1.619324e+02 2.650941e+02
      endloop
   endfacet
   facet normal 2.294340e-02 -9.961947e-01 -8.408197e-02
      outer loop
         vertex -2.581067e+02 -1.619324e+02 2.677266e+02
         vertex -2.677540e+02 -1.619324e+02 2.650941e+02
         vertex -2.576496e+02 -1.617805e+02 2.660513e+02
      endloop
   endfacet
   facet normal 2.294340e-02 -9.961947e-01 -8.408197e-02
      outer loop
         vertex -2.576496e+02 -1.617805e+02 2.660513e+02
         vertex -2.677540e+02 -1.619324e+02 2.650941e+02
         vertex -2.672969e+02 -1.617805e+02 2.634189e+02
      endloop
   endfacet
   facet normal -9.647290e-01 9.671835e-17 -2.632450e-01
      outer loop
         vertex -2.585500e+02 -1.623835e+02 2.693509e+02
         vertex -2.581067e+02 -1.619324e+02 2.677266e+02
         vertex -2.576496e+02 -1.717805e+02 2.660513e+02
      endloop
   endfacet
   facet normal -9.647290e-01 9.671835e-17 -2.632450e-01
      outer loop
         vertex -2.576496e+02 -1.717805e+02 2.660513e+02
         vertex -2.581067e+02 -1.619324e+02 2.677266e+02
         vertex -2.576496e+02 -1.617805e+02 2.660513e+02
      endloop
   endfacet
   facet normal -9.647290e-01 9.671835e-17 -2.632450e-01
      outer loop
         vertex -2.576496e+02 -1.717805e+02 2.660513e+02
         vertex -2.576496e+02 -1.617805e+02 2.660513e+02
         vertex -2.571925e+02 -1.619324e+02 2.643761e+02
      endloop
   endfacet
   facet normal -9.647290e-01 9.671835e-17 -2.632450e-01
      outer loop
         vertex -2.596662e+02 -1.653526e+02 2.734416e+02
         vertex -2.593417e+02 -1.641200e+02 2.722525e+02
         vertex -2.576496e+02 -1.717805e+02 2.660513e+02
      endloop
   endfacet
   facet normal -9.647290e-01 9.671835e-17 -2.632450e-01
      outer loop
         vertex -2.576496e+02 -1.717805e+02 2.660513e+02
         vertex -2.593417e+02 -1.641200e+02 2.722525e+02
         vertex -2.589658e+02 -1.631202e+02 2.708750e+02
      endloop
   endfacet
   facet normal -9.647290e-01 9.671835e-17 -2.632450e-01
      outer loop
         vertex -2.576496e+02 -1.717805e+02 2.660513e+02
         vertex -2.589658e+02 -1.631202e+02 2.708750e+02
         vertex -2.585500e+02 -1.623835e+02 2.693509e+02
      endloop
   endfacet
   facet normal -9.647290e-01 9.671835e-17 -2.632450e-01
      outer loop
         vertex -2.602421e+02 -1.700440e+02 2.755521e+02
         vertex -2.601233e+02 -1.683602e+02 2.751168e+02
         vertex -2.576496e+02 -1.717805e+02 2.660513e+02
      endloop
   endfacet
   facet normal -9.647290e-01 9.671835e-17 -2.632450e-01
      outer loop
         vertex -2.576496e+02 -1.717805e+02 2.660513e+02
         vertex -2.601233e+02 -1.683602e+02 2.751168e+02
         vertex -2.599294e+02 -1.667805e+02 2.744061e+02
      endloop
   endfacet
   facet normal -9.647290e-01 9.671835e-17 -2.632450e-01
      outer loop
         vertex -2.576496e+02 -1.717805e+02 2.660513e+02
         vertex -2.599294e+02 -1.667805e+02 2.744061e+02
         vertex -2.596662e+02 -1.653526e+02 2.734416e+02
      endloop
   endfacet
   facet normal -9.647290e-01 9.671835e-17 -2.632450e-01
      outer loop
         vertex -2.601233e+02 -1.752007e+02 2.751168e+02
         vertex -2.602421e+02 -1.735169e+02 2.755521e+02
         vertex -2.576496e+02 -1.717805e+02 2.660513e+02
      endloop
   endfacet
   facet normal -9.647290e-01 9.671835e-17 -2.632450e-01
      outer loop
         vertex -2.576496e+02 -1.717805e+02 2.660513e+02
         vertex -2.602421e+02 -1.735169e+02 2.755521e+02
         vertex -2.602821e+02 -1.717805e+02 2.756986e+02
      endloop
   endfacet
   facet normal -9.647290e-01 9.671835e-17 -2.632450e-01
      outer loop
         vertex -2.576496e+02 -1.717805e+02 2.660513e+02
         vertex -2.602821e+02 -1.717805e+02 2.756986e+02
         vertex -2.602421e+02 -1.700440e+02 2.755521e+02
      endloop
   endfacet
   facet normal -9.647290e-01 9.671835e-17 -2.632450e-01
      outer loop
         vertex -2.593417e+02 -1.794409e+02 2.722525e+02
         vertex -2.596662e+02 -1.782083e+02 2.734416e+02
         vertex -2.576496e+02 -1.717805e+02 2.660513e+02
      endloop
   endfacet
   facet normal -9.647290e-01 9.671835e-17 -2.632450e-01
      outer loop
         vertex -2.576496e+02 -1.717805e+02 2.660513e+02
         vertex -2.596662e+02 -1.782083e+02 2.734416e+02
         vertex -2.599294e+02 -1.767805e+02 2.744061e+02
      endloop
   endfacet
   facet normal -9.647290e-01 9.671835e-17 -2.632450e-01
      outer loop
         vertex -2.576496e+02 -1.717805e+02 2.660513e+02
         vertex -2.599294e+02 -1.767805e+02 2.744061e+02
         vertex -2.601233e+02 -1.752007e+02 2.751168e+02
      endloop
   endfacet
   facet normal -9.647290e-01 9.671835e-17 -2.632450e-01
      outer loop
         vertex -2.581067e+02 -1.816285e+02 2.677266e+02
         vertex -2.585500e+02 -1.811774e+02 2.693509e+02
         vertex -2.576496e+02 -1.717805e+02 2.660513e+02
      endloop
   endfacet
   facet normal -9.647290e-01 9.671835e-17 -2.632450e-01
      outer loop
         vertex -2.576496e+02 -1.717805e+02 2.660513e+02
         vertex -2.585500e+02 -1.811774e+02 2.693509e+02
         vertex -2.589658e+02 -1.804407e+02 2.708750e+02
      endloop
   endfacet
   facet normal -9.647290e-01 9.671835e-17 -2.632450e-01
      outer loop
         vertex -2.576496e+02 -1.717805e+02 2.660513e+02
         vertex -2.589658e+02 -1.804407e+02 2.708750e+02
         vertex -2.593417e+02 -1.794409e+02 2.722525e+02
      endloop
   endfacet
   facet normal -9.647290e-01 9.671835e-17 -2.632450e-01
      outer loop
         vertex -2.567493e+02 -1.811774e+02 2.627518e+02
         vertex -2.571925e+02 -1.816285e+02 2.643761e+02
         vertex -2.576496e+02 -1.717805e+02 2.660513e+02
      endloop
   endfacet
   facet normal -9.647290e-01 9.671835e-17 -2.632450e-01
      outer loop
         vertex -2.576496e+02 -1.717805e+02 2.660513e+02
         vertex -2.571925e+02 -1.816285e+02 2.643761e+02
         vertex -2.576496e+02 -1.817805e+02 2.660513e+02
      endloop
   endfacet
   facet normal -9.647290e-01 9.671835e-17 -2.632450e-01
      outer loop
         vertex -2.576496e+02 -1.717805e+02 2.660513e+02
         vertex -2.576496e+02 -1.817805e+02 2.660513e+02
         vertex -2.581067e+02 -1.816285e+02 2.677266e+02
      endloop
   endfacet
   facet normal -9.647290e-01 9.671835e-17 -2.632450e-01
      outer loop
         vertex -2.556330e+02 -1.782083e+02 2.586611e+02
         vertex -2.559575e+02 -1.794409e+02 2.598502e+02
         vertex -2.576496e+02 -1.717805e+02 2.660513e+02
      endloop
   endfacet
   facet normal -9.647290e-01 9.671835e-17 -2.632450e-01
      outer loop
         vertex -2.576496e+02 -1.717805e+02 2.660513e+02
         vertex -2.559575e+02 -1.794409e+02 2.598502e+02
         vertex -2.563334e+02 -1.804407e+02 2.612277e+02
      endloop
   endfacet
   facet normal -9.647290e-01 9.671835e-17 -2.632450e-01
      outer loop
         vertex -2.576496e+02 -1.717805e+02 2.660513e+02
         vertex -2.563334e+02 -1.804407e+02 2.612277e+02
         vertex -2.567493e+02 -1.811774e+02 2.627518e+02
      endloop
   endfacet
   facet normal -9.647290e-01 9.671835e-17 -2.632450e-01
      outer loop
         vertex -2.550572e+02 -1.735169e+02 2.565506e+02
         vertex -2.551759e+02 -1.752007e+02 2.569858e+02
         vertex -2.576496e+02 -1.717805e+02 2.660513e+02
      endloop
   endfacet
   facet normal -9.647290e-01 9.671835e-17 -2.632450e-01
      outer loop
         vertex -2.576496e+02 -1.717805e+02 2.660513e+02
         vertex -2.551759e+02 -1.752007e+02 2.569858e+02
         vertex -2.553698e+02 -1.767805e+02 2.576965e+02
      endloop
   endfacet
   facet normal -9.647290e-01 9.671835e-17 -2.632450e-01
      outer loop
         vertex -2.576496e+02 -1.717805e+02 2.660513e+02
         vertex -2.553698e+02 -1.767805e+02 2.576965e+02
         vertex -2.556330e+02 -1.782083e+02 2.586611e+02
      endloop
   endfacet
   facet normal -9.647290e-01 9.671835e-17 -2.632450e-01
      outer loop
         vertex -2.551759e+02 -1.683602e+02 2.569858e+02
         vertex -2.550572e+02 -1.700440e+02 2.565506e+02
         vertex -2.576496e+02 -1.717805e+02 2.660513e+02
      endloop
   endfacet
   facet normal -9.647290e-01 9.671835e-17 -2.632450e-01
      outer loop
         vertex -2.576496e+02 -1.717805e+02 2.660513e+02
         vertex -2.550572e+02 -1.700440e+02 2.565506e+02
         vertex -2.550172e+02 -1.717805e+02 2.564040e+02
      endloop
   endfacet
   facet normal -9.647290e-01 9.671835e-17 -2.632450e-01
      outer loop
         vertex -2.576496e+02 -1.717805e+02 2.660513e+02
         vertex -2.550172e+02 -1.717805e+02 2.564040e+02
         vertex -2.550572e+02 -1.735169e+02 2.565506e+02
      endloop
   endfacet
   facet normal -9.647290e-01 9.671835e-17 -2.632450e-01
      outer loop
         vertex -2.559575e+02 -1.641200e+02 2.598502e+02
         vertex -2.556330e+02 -1.653526e+02 2.586611e+02
         vertex -2.576496e+02 -1.717805e+02 2.660513e+02
      endloop
   endfacet
   facet normal -9.647290e-01 9.671835e-17 -2.632450e-01
      outer loop
         vertex -2.576496e+02 -1.717805e+02 2.660513e+02
         vertex -2.556330e+02 -1.653526e+02 2.586611e+02
         vertex -2.553698e+02 -1.667805e+02 2.576965e+02
      endloop
   endfacet
   facet normal -9.647290e-01 9.671835e-17 -2.632450e-01
      outer loop
         vertex -2.576496e+02 -1.717805e+02 2.660513e+02
         vertex -2.553698e+02 -1.667805e+02 2.576965e+02
         vertex -2.551759e+02 -1.683602e+02 2.569858e+02
      endloop
   endfacet
   facet normal -9.647290e-01 9.671835e-17 -2.632450e-01
      outer loop
         vertex -2.571925e+02 -1.619324e+02 2.643761e+02
         vertex -2.567493e+02 -1.623835e+02 2.627518e+02
         vertex -2.576496e+02 -1.717805e+02 2.660513e+02
      endloop
   endfacet
   facet normal -9.647290e-01 9.671835e-17 -2.632450e-01
      outer loop
         vertex -2.576496e+02 -1.717805e+02 2.660513e+02
         vertex -2.567493e+02 -1.623835e+02 2.627518e+02
         vertex -2.563334e+02 -1.631202e+02 2.612277e+02
      endloop
   endfacet
   facet normal -9.647290e-01 9.671835e-17 -2.632450e-01
      outer loop
         vertex -2.576496e+02 -1.717805e+02 2.660513e+02
         vertex -2.563334e+02 -1.631202e+02 2.612277e+02
         vertex -2.559575e+02 -1.641200e+02 2.598502e+02
      endloop
   endfacet
endsolid