solid rev1
   facet normal 1.721555e-02 9.998518e-01 1.367393e-16
      outer loop
         vertex -1.674559e+01 3.459626e+01 2.000000e+01
         vertex -1.770699e+01 3.461281e+01 2.000000e+01
         vertex -1.770699e+01 3.461281e+01 7.000000e+01
      endloop
   endfacet
   facet normal -4.687907e-02 9.989006e-01 1.167844e-16
      outer loop
         vertex -1.770699e+01 3.461281e+01 7.000000e+01
         vertex -1.770699e+01 3.461281e+01 2.000000e+01
         vertex -1.866748e+01 3.456774e+01 7.000000e+01
      endloop
   endfacet
   facet normal -4.687907e-02 9.989006e-01 1.191395e-16
      outer loop
         vertex -1.770699e+01 3.461281e+01 2.000000e+01
         vertex -1.866748e+01 3.456774e+01 2.000000e+01
         vertex -1.866748e+01 3.456774e+01 7.000000e+01
      endloop
   endfacet
   facet normal -1.425807e-01 9.897832e-01 9.545427e-17
      outer loop
         vertex -1.866748e+01 3.456774e+01 7.000000e+01
         vertex -1.866748e+01 3.456774e+01 2.000000e+01
         vertex -2.056995e+01 3.429368e+01 2.000000e+01
      endloop
   endfacet
   facet normal -1.425807e-01 9.897832e-01 9.545427e-17
      outer loop
         vertex -1.866748e+01 3.456774e+01 7.000000e+01
         vertex -2.056995e+01 3.429368e+01 2.000000e+01
         vertex -2.056995e+01 3.429368e+01 7.000000e+01
      endloop
   endfacet
   facet normal -2.679807e-01 9.634243e-01 6.254109e-17
      outer loop
         vertex -2.056995e+01 3.429368e+01 7.000000e+01
         vertex -2.056995e+01 3.429368e+01 2.000000e+01
         vertex -2.242175e+01 3.377859e+01 2.000000e+01
      endloop
   endfacet
   facet normal -2.679807e-01 9.634243e-01 6.254109e-17
      outer loop
         vertex -2.056995e+01 3.429368e+01 7.000000e+01
         vertex -2.242175e+01 3.377859e+01 2.000000e+01
         vertex -2.242175e+01 3.377859e+01 7.000000e+01
      endloop
   endfacet
   facet normal -3.889808e-01 9.212459e-01 2.860090e-17
      outer loop
         vertex -2.242175e+01 3.377859e+01 7.000000e+01
         vertex -2.242175e+01 3.377859e+01 2.000000e+01
         vertex -2.419249e+01 3.303093e+01 2.000000e+01
      endloop
   endfacet
   facet normal -3.889808e-01 9.212459e-01 2.860090e-17
      outer loop
         vertex -2.242175e+01 3.377859e+01 7.000000e+01
         vertex -2.419249e+01 3.303093e+01 2.000000e+01
         vertex -2.419249e+01 3.303093e+01 7.000000e+01
      endloop
   endfacet
   facet normal -5.035931e-01 8.639410e-01 -5.808723e-18
      outer loop
         vertex -2.419249e+01 3.303093e+01 7.000000e+01
         vertex -2.419249e+01 3.303093e+01 2.000000e+01
         vertex -2.585307e+01 3.206297e+01 2.000000e+01
      endloop
   endfacet
   facet normal -5.035931e-01 8.639410e-01 -5.808723e-18
      outer loop
         vertex -2.419249e+01 3.303093e+01 7.000000e+01
         vertex -2.585307e+01 3.206297e+01 2.000000e+01
         vertex -2.585307e+01 3.206297e+01 7.000000e+01
      endloop
   endfacet
   facet normal -6.099372e-01 7.924497e-01 -4.012319e-17
      outer loop
         vertex -2.585307e+01 3.206297e+01 7.000000e+01
         vertex -2.585307e+01 3.206297e+01 2.000000e+01
         vertex -2.737625e+01 3.089061e+01 2.000000e+01
      endloop
   endfacet
   facet normal -6.099372e-01 7.924497e-01 -4.012319e-17
      outer loop
         vertex -2.585307e+01 3.206297e+01 7.000000e+01
         vertex -2.737625e+01 3.089061e+01 2.000000e+01
         vertex -2.737625e+01 3.089061e+01 7.000000e+01
      endloop
   endfacet
   facet normal -7.062658e-01 7.079468e-01 -7.377871e-17
      outer loop
         vertex -2.737625e+01 3.089061e+01 7.000000e+01
         vertex -2.737625e+01 3.089061e+01 2.000000e+01
         vertex -2.873700e+01 2.953309e+01 2.000000e+01
      endloop
   endfacet
   facet normal -7.062658e-01 7.079468e-01 -7.377871e-17
      outer loop
         vertex -2.737625e+01 3.089061e+01 7.000000e+01
         vertex -2.873700e+01 2.953309e+01 2.000000e+01
         vertex -2.873700e+01 2.953309e+01 7.000000e+01
      endloop
   endfacet
   facet normal -7.909976e-01 6.118192e-01 -1.062228e-16
      outer loop
         vertex -2.873700e+01 2.953309e+01 7.000000e+01
         vertex -2.873700e+01 2.953309e+01 2.000000e+01
         vertex -2.991298e+01 2.801271e+01 2.000000e+01
      endloop
   endfacet
   facet normal -7.909976e-01 6.118192e-01 -1.062228e-16
      outer loop
         vertex -2.873700e+01 2.953309e+01 7.000000e+01
         vertex -2.991298e+01 2.801271e+01 2.000000e+01
         vertex -2.991298e+01 2.801271e+01 7.000000e+01
      endloop
   endfacet
   facet normal -8.627414e-01 5.056454e-01 -1.369228e-16
      outer loop
         vertex -2.991298e+01 2.801271e+01 7.000000e+01
         vertex -2.991298e+01 2.801271e+01 2.000000e+01
         vertex -3.088488e+01 2.635443e+01 2.000000e+01
      endloop
   endfacet
   facet normal -8.627414e-01 5.056454e-01 -1.369228e-16
      outer loop
         vertex -2.991298e+01 2.801271e+01 7.000000e+01
         vertex -3.088488e+01 2.635443e+01 2.000000e+01
         vertex -3.088488e+01 2.635443e+01 7.000000e+01
      endloop
   endfacet
   facet normal -9.203186e-01 3.911696e-01 -1.653744e-16
      outer loop
         vertex -3.088488e+01 2.635443e+01 7.000000e+01
         vertex -3.088488e+01 2.635443e+01 2.000000e+01
         vertex -3.163675e+01 2.458548e+01 2.000000e+01
      endloop
   endfacet
   facet normal -9.203186e-01 3.911696e-01 -1.653744e-16
      outer loop
         vertex -3.088488e+01 2.635443e+01 7.000000e+01
         vertex -3.163675e+01 2.458548e+01 2.000000e+01
         vertex -3.163675e+01 2.458548e+01 7.000000e+01
      endloop
   endfacet
   facet normal -9.627845e-01 2.702701e-01 -1.911107e-16
      outer loop
         vertex -3.163675e+01 2.458548e+01 7.000000e+01
         vertex -3.163675e+01 2.458548e+01 2.000000e+01
         vertex -3.215624e+01 2.273490e+01 2.000000e+01
      endloop
   endfacet
   facet normal -9.627845e-01 2.702701e-01 -1.911107e-16
      outer loop
         vertex -3.163675e+01 2.458548e+01 7.000000e+01
         vertex -3.215624e+01 2.273490e+01 2.000000e+01
         vertex -3.215624e+01 2.273490e+01 7.000000e+01
      endloop
   endfacet
   facet normal -9.894414e-01 1.449333e-01 -2.137088e-16
      outer loop
         vertex -3.215624e+01 2.273490e+01 7.000000e+01
         vertex -3.215624e+01 2.273490e+01 2.000000e+01
         vertex -3.243482e+01 2.083309e+01 2.000000e+01
      endloop
   endfacet
   facet normal -9.894414e-01 1.449333e-01 -2.137088e-16
      outer loop
         vertex -3.215624e+01 2.273490e+01 7.000000e+01
         vertex -3.243482e+01 2.083309e+01 2.000000e+01
         vertex -3.243482e+01 2.083309e+01 7.000000e+01
      endloop
   endfacet
   facet normal -9.998518e-01 1.721603e-02 -2.327980e-16
      outer loop
         vertex -3.243482e+01 2.083309e+01 7.000000e+01
         vertex -3.243482e+01 2.083309e+01 2.000000e+01
         vertex -3.246791e+01 1.891127e+01 2.000000e+01
      endloop
   endfacet
   facet normal -9.998518e-01 1.721603e-02 -2.327980e-16
      outer loop
         vertex -3.243482e+01 2.083309e+01 7.000000e+01
         vertex -3.246791e+01 1.891127e+01 2.000000e+01
         vertex -3.246791e+01 1.891127e+01 7.000000e+01
      endloop
   endfacet
   facet normal -9.938446e-01 -1.107829e-01 -2.480645e-16
      outer loop
         vertex -3.246791e+01 1.891127e+01 7.000000e+01
         vertex -3.246791e+01 1.891127e+01 2.000000e+01
         vertex -3.225497e+01 1.700099e+01 2.000000e+01
      endloop
   endfacet
   facet normal -9.938446e-01 -1.107829e-01 -2.480645e-16
      outer loop
         vertex -3.246791e+01 1.891127e+01 7.000000e+01
         vertex -3.225497e+01 1.700099e+01 2.000000e+01
         vertex -3.225497e+01 1.700099e+01 7.000000e+01
      endloop
   endfacet
   facet normal -9.715185e-01 -2.369638e-01 -2.592578e-16
      outer loop
         vertex -3.225497e+01 1.700099e+01 7.000000e+01
         vertex -3.225497e+01 1.700099e+01 2.000000e+01
         vertex -3.179950e+01 1.513363e+01 2.000000e+01
      endloop
   endfacet
   facet normal -9.715185e-01 -2.369638e-01 -2.592578e-16
      outer loop
         vertex -3.225497e+01 1.700099e+01 7.000000e+01
         vertex -3.179950e+01 1.513363e+01 2.000000e+01
         vertex -3.179950e+01 1.513363e+01 7.000000e+01
      endloop
   endfacet
   facet normal -9.332400e-01 -3.592536e-01 -2.661942e-16
      outer loop
         vertex -3.179950e+01 1.513363e+01 7.000000e+01
         vertex -3.179950e+01 1.513363e+01 2.000000e+01
         vertex -3.110898e+01 1.333984e+01 2.000000e+01
      endloop
   endfacet
   facet normal -9.332400e-01 -3.592536e-01 -2.661942e-16
      outer loop
         vertex -3.179950e+01 1.513363e+01 7.000000e+01
         vertex -3.110898e+01 1.333984e+01 2.000000e+01
         vertex -3.110898e+01 1.333984e+01 7.000000e+01
      endloop
   endfacet
   facet normal -8.796379e-01 -4.756440e-01 -2.687596e-16
      outer loop
         vertex -3.110898e+01 1.333984e+01 7.000000e+01
         vertex -3.110898e+01 1.333984e+01 2.000000e+01
         vertex -3.019474e+01 1.164909e+01 2.000000e+01
      endloop
   endfacet
   facet normal -8.796379e-01 -4.756440e-01 -2.687596e-16
      outer loop
         vertex -3.110898e+01 1.333984e+01 7.000000e+01
         vertex -3.019474e+01 1.164909e+01 2.000000e+01
         vertex -3.019474e+01 1.164909e+01 7.000000e+01
      endloop
   endfacet
   facet normal -8.115921e-01 -5.842246e-01 -2.669120e-16
      outer loop
         vertex -3.019474e+01 1.164909e+01 7.000000e+01
         vertex -3.019474e+01 1.164909e+01 2.000000e+01
         vertex -2.907180e+01 1.008912e+01 2.000000e+01
      endloop
   endfacet
   facet normal -8.115921e-01 -5.842246e-01 -2.669120e-16
      outer loop
         vertex -3.019474e+01 1.164909e+01 7.000000e+01
         vertex -2.907180e+01 1.008912e+01 2.000000e+01
         vertex -2.907180e+01 1.008912e+01 7.000000e+01
      endloop
   endfacet
   facet normal -7.302201e-01 -6.832120e-01 -2.606818e-16
      outer loop
         vertex -2.907180e+01 1.008912e+01 7.000000e+01
         vertex -2.907180e+01 1.008912e+01 2.000000e+01
         vertex -2.775859e+01 8.685559e+00 2.000000e+01
      endloop
   endfacet
   facet normal -7.302201e-01 -6.832120e-01 -2.606818e-16
      outer loop
         vertex -2.907180e+01 1.008912e+01 7.000000e+01
         vertex -2.775859e+01 8.685559e+00 2.000000e+01
         vertex -2.775859e+01 8.685559e+00 7.000000e+01
      endloop
   endfacet
   facet normal -6.368576e-01 -7.709815e-01 -2.501711e-16
      outer loop
         vertex -2.775859e+01 8.685559e+00 7.000000e+01
         vertex -2.775859e+01 8.685559e+00 2.000000e+01
         vertex -2.627668e+01 7.461451e+00 2.000000e+01
      endloop
   endfacet
   facet normal -6.368576e-01 -7.709815e-01 -2.501711e-16
      outer loop
         vertex -2.775859e+01 8.685559e+00 7.000000e+01
         vertex -2.627668e+01 7.461451e+00 2.000000e+01
         vertex -2.627668e+01 7.461451e+00 7.000000e+01
      endloop
   endfacet
   facet normal -5.330382e-01 -8.460912e-01 -2.355527e-16
      outer loop
         vertex -2.627668e+01 7.461451e+00 7.000000e+01
         vertex -2.627668e+01 7.461451e+00 2.000000e+01
         vertex -2.465040e+01 6.436895e+00 2.000000e+01
      endloop
   endfacet
   facet normal -5.330382e-01 -8.460912e-01 -2.355527e-16
      outer loop
         vertex -2.627668e+01 7.461451e+00 7.000000e+01
         vertex -2.465040e+01 6.436895e+00 2.000000e+01
         vertex -2.465040e+01 6.436895e+00 7.000000e+01
      endloop
   endfacet
   facet normal -4.204660e-01 -9.073083e-01 -2.170664e-16
      outer loop
         vertex -2.465040e+01 6.436895e+00 7.000000e+01
         vertex -2.465040e+01 6.436895e+00 2.000000e+01
         vertex -2.290646e+01 5.628715e+00 2.000000e+01
      endloop
   endfacet
   facet normal -4.204660e-01 -9.073083e-01 -2.170664e-16
      outer loop
         vertex -2.465040e+01 6.436895e+00 7.000000e+01
         vertex -2.290646e+01 5.628715e+00 2.000000e+01
         vertex -2.290646e+01 5.628715e+00 7.000000e+01
      endloop
   endfacet
   facet normal -3.009902e-01 -9.536272e-01 -1.950160e-16
      outer loop
         vertex -2.290646e+01 5.628715e+00 7.000000e+01
         vertex -2.290646e+01 5.628715e+00 2.000000e+01
         vertex -2.107349e+01 5.050179e+00 2.000000e+01
      endloop
   endfacet
   facet normal -3.009902e-01 -9.536272e-01 -1.950160e-16
      outer loop
         vertex -2.290646e+01 5.628715e+00 7.000000e+01
         vertex -2.107349e+01 5.050179e+00 2.000000e+01
         vertex -2.107349e+01 5.050179e+00 7.000000e+01
      endloop
   endfacet
   facet normal -1.765718e-01 -9.842878e-01 -1.697633e-16
      outer loop
         vertex -2.107349e+01 5.050179e+00 7.000000e+01
         vertex -2.107349e+01 5.050179e+00 2.000000e+01
         vertex -1.918158e+01 4.710789e+00 2.000000e+01
      endloop
   endfacet
   facet normal -1.765718e-01 -9.842878e-01 -1.697633e-16
      outer loop
         vertex -2.107349e+01 5.050179e+00 7.000000e+01
         vertex -1.918158e+01 4.710789e+00 2.000000e+01
         vertex -1.918158e+01 4.710789e+00 7.000000e+01
      endloop
   endfacet
   facet normal -4.925423e-02 -9.987863e-01 -1.417232e-16
      outer loop
         vertex -1.918158e+01 4.710789e+00 7.000000e+01
         vertex -1.918158e+01 4.710789e+00 2.000000e+01
         vertex -1.726181e+01 4.616118e+00 2.000000e+01
      endloop
   endfacet
   facet normal -4.925423e-02 -9.987863e-01 -1.417232e-16
      outer loop
         vertex -1.918158e+01 4.710789e+00 7.000000e+01
         vertex -1.726181e+01 4.616118e+00 2.000000e+01
         vertex -1.726181e+01 4.616118e+00 7.000000e+01
      endloop
   endfacet
   facet normal 7.887202e-02 -9.968847e-01 -1.113560e-16
      outer loop
         vertex -1.726181e+01 4.616118e+00 7.000000e+01
         vertex -1.726181e+01 4.616118e+00 2.000000e+01
         vertex -1.534569e+01 4.767718e+00 2.000000e+01
      endloop
   endfacet
   facet normal 7.887202e-02 -9.968847e-01 -1.113560e-16
      outer loop
         vertex -1.726181e+01 4.616118e+00 7.000000e+01
         vertex -1.534569e+01 4.767718e+00 2.000000e+01
         vertex -1.534569e+01 4.767718e+00 7.000000e+01
      endloop
   endfacet
   facet normal 2.057033e-01 -9.786144e-01 -7.916033e-17
      outer loop
         vertex -1.534569e+01 4.767718e+00 7.000000e+01
         vertex -1.534569e+01 4.767718e+00 2.000000e+01
         vertex -1.346469e+01 5.163102e+00 2.000000e+01
      endloop
   endfacet
   facet normal 2.057033e-01 -9.786144e-01 -7.916033e-17
      outer loop
         vertex -1.534569e+01 4.767718e+00 7.000000e+01
         vertex -1.346469e+01 5.163102e+00 2.000000e+01
         vertex -1.346469e+01 5.163102e+00 7.000000e+01
      endloop
   endfacet
   facet normal 3.291570e-01 -9.442752e-01 -4.566483e-17
      outer loop
         vertex -1.346469e+01 5.163102e+00 7.000000e+01
         vertex -1.346469e+01 5.163102e+00 2.000000e+01
         vertex -1.164969e+01 5.795777e+00 2.000000e+01
      endloop
   endfacet
   facet normal 3.291570e-01 -9.442752e-01 -4.566483e-17
      outer loop
         vertex -1.346469e+01 5.163102e+00 7.000000e+01
         vertex -1.164969e+01 5.795777e+00 2.000000e+01
         vertex -1.164969e+01 5.795777e+00 7.000000e+01
      endloop
   endfacet
   facet normal 4.472056e-01 -8.944312e-01 -1.141960e-17
      outer loop
         vertex -1.164969e+01 5.795777e+00 7.000000e+01
         vertex -1.164969e+01 5.795777e+00 2.000000e+01
         vertex -9.930499e+00 6.655353e+00 2.000000e+01
      endloop
   endfacet
   facet normal 4.472056e-01 -8.944312e-01 -1.141960e-17
      outer loop
         vertex -1.164969e+01 5.795777e+00 7.000000e+01
         vertex -9.930499e+00 6.655353e+00 2.000000e+01
         vertex -9.930499e+00 6.655353e+00 7.000000e+01
      endloop
   endfacet
   facet normal 5.579116e-01 -8.299004e-01 2.301329e-17
      outer loop
         vertex -9.930499e+00 6.655353e+00 7.000000e+01
         vertex -9.930499e+00 6.655353e+00 2.000000e+01
         vertex -8.335342e+00 7.727719e+00 2.000000e+01
      endloop
   endfacet
   facet normal 5.579116e-01 -8.299004e-01 2.301329e-17
      outer loop
         vertex -9.930499e+00 6.655353e+00 7.000000e+01
         vertex -8.335342e+00 7.727719e+00 2.000000e+01
         vertex -8.335342e+00 7.727719e+00 7.000000e+01
      endloop
   endfacet
   facet normal 6.594563e-01 -7.517429e-01 5.706818e-17
      outer loop
         vertex -8.335342e+00 7.727719e+00 7.000000e+01
         vertex -8.335342e+00 7.727719e+00 2.000000e+01
         vertex -6.890412e+00 8.995264e+00 2.000000e+01
      endloop
   endfacet
   facet normal 6.594563e-01 -7.517429e-01 5.706818e-17
      outer loop
         vertex -8.335342e+00 7.727719e+00 7.000000e+01
         vertex -6.890412e+00 8.995264e+00 2.000000e+01
         vertex -6.890412e+00 8.995264e+00 7.000000e+01
      endloop
   endfacet
   facet normal 7.501732e-01 -6.612414e-01 9.018614e-17
      outer loop
         vertex -6.890412e+00 8.995264e+00 7.000000e+01
         vertex -6.890412e+00 8.995264e+00 2.000000e+01
         vertex -5.619436e+00 1.043718e+01 2.000000e+01
      endloop
   endfacet
   facet normal 7.501732e-01 -6.612414e-01 9.018614e-17
      outer loop
         vertex -6.890412e+00 8.995264e+00 7.000000e+01
         vertex -5.619436e+00 1.043718e+01 2.000000e+01
         vertex -5.619436e+00 1.043718e+01 7.000000e+01
      endloop
   endfacet
   facet normal 8.285718e-01 -5.598829e-01 1.218231e-16
      outer loop
         vertex -5.619436e+00 1.043718e+01 7.000000e+01
         vertex -5.619436e+00 1.043718e+01 2.000000e+01
         vertex -4.543281e+00 1.202978e+01 2.000000e+01
      endloop
   endfacet
   facet normal 8.285718e-01 -5.598829e-01 1.218231e-16
      outer loop
         vertex -5.619436e+00 1.043718e+01 7.000000e+01
         vertex -4.543281e+00 1.202978e+01 2.000000e+01
         vertex -4.543281e+00 1.202978e+01 7.000000e+01
      endloop
   endfacet
   facet normal 8.933654e-01 -4.493308e-01 1.514598e-16
      outer loop
         vertex -4.543281e+00 1.202978e+01 7.000000e+01
         vertex -4.543281e+00 1.202978e+01 2.000000e+01
         vertex -3.679620e+00 1.374692e+01 2.000000e+01
      endloop
   endfacet
   facet normal 8.933654e-01 -4.493308e-01 1.514598e-16
      outer loop
         vertex -4.543281e+00 1.202978e+01 7.000000e+01
         vertex -3.679620e+00 1.374692e+01 2.000000e+01
         vertex -3.679620e+00 1.374692e+01 7.000000e+01
      endloop
   endfacet
   facet normal 9.434900e-01 -3.314010e-01 1.786095e-16
      outer loop
         vertex -3.679620e+00 1.374692e+01 7.000000e+01
         vertex -3.679620e+00 1.374692e+01 2.000000e+01
         vertex -3.042631e+00 1.556041e+01 2.000000e+01
      endloop
   endfacet
   facet normal 9.434900e-01 -3.314010e-01 1.786095e-16
      outer loop
         vertex -3.679620e+00 1.374692e+01 7.000000e+01
         vertex -3.042631e+00 1.556041e+01 2.000000e+01
         vertex -3.042631e+00 1.556041e+01 7.000000e+01
      endloop
   endfacet
   facet normal 9.781226e-01 -2.080291e-01 2.028265e-16
      outer loop
         vertex -3.042631e+00 1.556041e+01 7.000000e+01
         vertex -3.042631e+00 1.556041e+01 2.000000e+01
         vertex -2.642777e+00 1.744047e+01 2.000000e+01
      endloop
   endfacet
   facet normal 9.781226e-01 -2.080291e-01 2.028265e-16
      outer loop
         vertex -3.042631e+00 1.556041e+01 7.000000e+01
         vertex -2.642777e+00 1.744047e+01 2.000000e+01
         vertex -2.642777e+00 1.744047e+01 7.000000e+01
      endloop
   endfacet
   facet normal 9.966945e-01 -8.124127e-02 2.237131e-16
      outer loop
         vertex -2.642777e+00 1.744047e+01 7.000000e+01
         vertex -2.642777e+00 1.744047e+01 2.000000e+01
         vertex -2.486623e+00 1.935622e+01 2.000000e+01
      endloop
   endfacet
   facet normal 9.966945e-01 -8.124127e-02 2.237131e-16
      outer loop
         vertex -2.642777e+00 1.744047e+01 7.000000e+01
         vertex -2.486623e+00 1.935622e+01 2.000000e+01
         vertex -2.486623e+00 1.935622e+01 7.000000e+01
      endloop
   endfacet
   facet normal 9.989005e-01 4.687955e-02 2.409262e-16
      outer loop
         vertex -2.486623e+00 1.935622e+01 7.000000e+01
         vertex -2.486623e+00 1.935622e+01 2.000000e+01
         vertex -2.576730e+00 2.127621e+01 2.000000e+01
      endloop
   endfacet
   facet normal 9.989005e-01 4.687955e-02 2.409262e-16
      outer loop
         vertex -2.486623e+00 1.935622e+01 7.000000e+01
         vertex -2.576730e+00 2.127621e+01 2.000000e+01
         vertex -2.576730e+00 2.127621e+01 7.000000e+01
      endloop
   endfacet
   facet normal 9.847047e-01 1.742317e-01 2.541834e-16
      outer loop
         vertex -2.576730e+00 2.127621e+01 7.000000e+01
         vertex -2.576730e+00 2.127621e+01 2.000000e+01
         vertex -2.911622e+00 2.316892e+01 2.000000e+01
      endloop
   endfacet
   facet normal 9.847047e-01 1.742317e-01 2.541834e-16
      outer loop
         vertex -2.576730e+00 2.127621e+01 7.000000e+01
         vertex -2.911622e+00 2.316892e+01 2.000000e+01
         vertex -2.911622e+00 2.316892e+01 7.000000e+01
      endloop
   endfacet
   facet normal 9.543401e-01 2.987222e-01 2.632669e-16
      outer loop
         vertex -2.911622e+00 2.316892e+01 7.000000e+01
         vertex -2.911622e+00 2.316892e+01 2.000000e+01
         vertex -3.485798e+00 2.500327e+01 2.000000e+01
      endloop
   endfacet
   facet normal 9.543401e-01 2.987222e-01 2.632669e-16
      outer loop
         vertex -2.911622e+00 2.316892e+01 7.000000e+01
         vertex -3.485798e+00 2.500327e+01 2.000000e+01
         vertex -3.485798e+00 2.500327e+01 7.000000e+01
      endloop
   endfacet
   facet normal 9.083051e-01 4.183083e-01 2.680276e-16
      outer loop
         vertex -3.485798e+00 2.500327e+01 7.000000e+01
         vertex -3.485798e+00 2.500327e+01 2.000000e+01
         vertex -4.289831e+00 2.674912e+01 2.000000e+01
      endloop
   endfacet
   facet normal 9.083051e-01 4.183083e-01 2.680276e-16
      outer loop
         vertex -3.485798e+00 2.500327e+01 7.000000e+01
         vertex -4.289831e+00 2.674912e+01 2.000000e+01
         vertex -4.289831e+00 2.674912e+01 7.000000e+01
      endloop
   endfacet
   facet normal 8.473561e-01 5.310250e-01 2.683873e-16
      outer loop
         vertex -4.289831e+00 2.674912e+01 7.000000e+01
         vertex -4.289831e+00 2.674912e+01 2.000000e+01
         vertex -5.310518e+00 2.837783e+01 2.000000e+01
      endloop
   endfacet
   facet normal 8.473561e-01 5.310250e-01 2.683873e-16
      outer loop
         vertex -4.289831e+00 2.674912e+01 7.000000e+01
         vertex -5.310518e+00 2.837783e+01 2.000000e+01
         vertex -5.310518e+00 2.837783e+01 7.000000e+01
      endloop
   endfacet
   facet normal 7.724932e-01 6.350230e-01 2.643400e-16
      outer loop
         vertex -5.310518e+00 2.837783e+01 7.000000e+01
         vertex -5.310518e+00 2.837783e+01 2.000000e+01
         vertex -6.531100e+00 2.986265e+01 2.000000e+01
      endloop
   endfacet
   facet normal 7.724932e-01 6.350230e-01 2.643400e-16
      outer loop
         vertex -5.310518e+00 2.837783e+01 7.000000e+01
         vertex -6.531100e+00 2.986265e+01 2.000000e+01
         vertex -6.531100e+00 2.986265e+01 7.000000e+01
      endloop
   endfacet
   facet normal 6.849460e-01 7.285938e-01 2.559523e-16
      outer loop
         vertex -6.531100e+00 2.986265e+01 7.000000e+01
         vertex -6.531100e+00 2.986265e+01 2.000000e+01
         vertex -7.931535e+00 3.117919e+01 2.000000e+01
      endloop
   endfacet
   facet normal 6.849460e-01 7.285938e-01 2.559523e-16
      outer loop
         vertex -6.531100e+00 2.986265e+01 7.000000e+01
         vertex -7.931535e+00 3.117919e+01 2.000000e+01
         vertex -7.931535e+00 3.117919e+01 7.000000e+01
      endloop
   endfacet
   facet normal 5.861522e-01 8.102009e-01 2.433619e-16
      outer loop
         vertex -7.931535e+00 3.117919e+01 7.000000e+01
         vertex -7.931535e+00 3.117919e+01 2.000000e+01
         vertex -9.488827e+00 3.230583e+01 2.000000e+01
      endloop
   endfacet
   facet normal 5.861522e-01 8.102009e-01 2.433619e-16
      outer loop
         vertex -7.931535e+00 3.117919e+01 7.000000e+01
         vertex -9.488827e+00 3.230583e+01 2.000000e+01
         vertex -9.488827e+00 3.230583e+01 7.000000e+01
      endloop
   endfacet
   facet normal 4.777334e-01 8.785048e-01 2.267754e-16
      outer loop
         vertex -9.488827e+00 3.230583e+01 7.000000e+01
         vertex -9.488827e+00 3.230583e+01 2.000000e+01
         vertex -1.117741e+01 3.322409e+01 2.000000e+01
      endloop
   endfacet
   facet normal 4.777334e-01 8.785048e-01 2.267754e-16
      outer loop
         vertex -9.488827e+00 3.230583e+01 7.000000e+01
         vertex -1.117741e+01 3.322409e+01 2.000000e+01
         vertex -1.117741e+01 3.322409e+01 7.000000e+01
      endloop
   endfacet
   facet normal 3.614710e-01 9.323834e-01 2.064654e-16
      outer loop
         vertex -1.117741e+01 3.322409e+01 7.000000e+01
         vertex -1.117741e+01 3.322409e+01 2.000000e+01
         vertex -1.296955e+01 3.391887e+01 2.000000e+01
      endloop
   endfacet
   facet normal 3.614710e-01 9.323834e-01 2.064654e-16
      outer loop
         vertex -1.117741e+01 3.322409e+01 7.000000e+01
         vertex -1.296955e+01 3.391887e+01 2.000000e+01
         vertex -1.296955e+01 3.391887e+01 7.000000e+01
      endloop
   endfacet
   facet normal 2.392726e-01 9.709524e-01 1.827652e-16
      outer loop
         vertex -1.296955e+01 3.391887e+01 7.000000e+01
         vertex -1.296955e+01 3.391887e+01 2.000000e+01
         vertex -1.483582e+01 3.437878e+01 2.000000e+01
      endloop
   endfacet
   facet normal 2.392726e-01 9.709524e-01 1.827652e-16
      outer loop
         vertex -1.296955e+01 3.391887e+01 7.000000e+01
         vertex -1.483582e+01 3.437878e+01 2.000000e+01
         vertex -1.483582e+01 3.437878e+01 7.000000e+01
      endloop
   endfacet
   facet normal 1.131456e-01 9.935784e-01 1.560640e-16
      outer loop
         vertex -1.483582e+01 3.437878e+01 7.000000e+01
         vertex -1.483582e+01 3.437878e+01 2.000000e+01
         vertex -1.674559e+01 3.459626e+01 2.000000e+01
      endloop
   endfacet
   facet normal 1.131456e-01 9.935784e-01 1.560640e-16
      outer loop
         vertex -1.483582e+01 3.437878e+01 7.000000e+01
         vertex -1.674559e+01 3.459626e+01 2.000000e+01
         vertex -1.674559e+01 3.459626e+01 7.000000e+01
      endloop
   endfacet
   facet normal 1.721555e-02 9.998518e-01 1.343305e-16
      outer loop
         vertex -1.674559e+01 3.459626e+01 7.000000e+01
         vertex -1.674559e+01 3.459626e+01 2.000000e+01
         vertex -1.770699e+01 3.461281e+01 7.000000e+01
      endloop
   endfacet
   facet normal 7.485657e-17 8.658218e-17 -1.000000e+00
      outer loop
         vertex -1.866748e+01 3.456774e+01 2.000000e+01
         vertex -1.748440e+01 2.961447e+01 2.000000e+01
         vertex -1.904874e+01 2.949135e+01 2.000000e+01
      endloop
   endfacet
   facet normal 7.485657e-17 8.658218e-17 -1.000000e+00
      outer loop
         vertex -2.455547e+01 2.668553e+01 2.000000e+01
         vertex -2.737625e+01 3.089061e+01 2.000000e+01
         vertex -2.336225e+01 2.770464e+01 2.000000e+01
      endloop
   endfacet
   facet normal 7.485657e-17 8.658218e-17 -1.000000e+00
      outer loop
         vertex -2.336225e+01 2.770464e+01 2.000000e+01
         vertex -2.737625e+01 3.089061e+01 2.000000e+01
         vertex -2.585307e+01 3.206297e+01 2.000000e+01
      endloop
   endfacet
   facet normal 7.485657e-17 8.658218e-17 -1.000000e+00
      outer loop
         vertex -2.336225e+01 2.770464e+01 2.000000e+01
         vertex -2.585307e+01 3.206297e+01 2.000000e+01
         vertex -2.202430e+01 2.852453e+01 2.000000e+01
      endloop
   endfacet
   facet normal 7.485657e-17 8.658218e-17 -1.000000e+00
      outer loop
         vertex -2.202430e+01 2.852453e+01 2.000000e+01
         vertex -2.585307e+01 3.206297e+01 2.000000e+01
         vertex -2.419249e+01 3.303093e+01 2.000000e+01
      endloop
   endfacet
   facet normal 7.485657e-17 8.658218e-17 -1.000000e+00
      outer loop
         vertex -2.202430e+01 2.852453e+01 2.000000e+01
         vertex -2.419249e+01 3.303093e+01 2.000000e+01
         vertex -2.057457e+01 2.912503e+01 2.000000e+01
      endloop
   endfacet
   facet normal 7.485657e-17 8.658218e-17 -1.000000e+00
      outer loop
         vertex -2.057457e+01 2.912503e+01 2.000000e+01
         vertex -2.419249e+01 3.303093e+01 2.000000e+01
         vertex -2.242175e+01 3.377859e+01 2.000000e+01
      endloop
   endfacet
   facet normal 7.485657e-17 8.658218e-17 -1.000000e+00
      outer loop
         vertex -2.057457e+01 2.912503e+01 2.000000e+01
         vertex -2.242175e+01 3.377859e+01 2.000000e+01
         vertex -1.904874e+01 2.949135e+01 2.000000e+01
      endloop
   endfacet
   facet normal 7.485657e-17 8.658218e-17 -1.000000e+00
      outer loop
         vertex -1.904874e+01 2.949135e+01 2.000000e+01
         vertex -2.242175e+01 3.377859e+01 2.000000e+01
         vertex -2.056995e+01 3.429368e+01 2.000000e+01
      endloop
   endfacet
   facet normal 7.485657e-17 8.658218e-17 -1.000000e+00
      outer loop
         vertex -1.904874e+01 2.949135e+01 2.000000e+01
         vertex -2.056995e+01 3.429368e+01 2.000000e+01
         vertex -1.866748e+01 3.456774e+01 2.000000e+01
      endloop
   endfacet
   facet normal 7.485657e-17 8.658218e-17 -1.000000e+00
      outer loop
         vertex -1.294449e+01 2.852453e+01 2.000000e+01
         vertex -9.488827e+00 3.230583e+01 2.000000e+01
         vertex -1.160655e+01 2.770464e+01 2.000000e+01
      endloop
   endfacet
   facet normal 7.485657e-17 8.658218e-17 -1.000000e+00
      outer loop
         vertex -1.160655e+01 2.770464e+01 2.000000e+01
         vertex -9.488827e+00 3.230583e+01 2.000000e+01
         vertex -7.931535e+00 3.117919e+01 2.000000e+01
      endloop
   endfacet
   facet normal 7.485657e-17 8.658218e-17 -1.000000e+00
      outer loop
         vertex -1.160655e+01 2.770464e+01 2.000000e+01
         vertex -7.931535e+00 3.117919e+01 2.000000e+01
         vertex -1.041333e+01 2.668553e+01 2.000000e+01
      endloop
   endfacet
   facet normal 7.485657e-17 8.658218e-17 -1.000000e+00
      outer loop
         vertex -1.041333e+01 2.668553e+01 2.000000e+01
         vertex -7.931535e+00 3.117919e+01 2.000000e+01
         vertex -6.531100e+00 2.986265e+01 2.000000e+01
      endloop
   endfacet
   facet normal 7.485657e-17 8.658218e-17 -1.000000e+00
      outer loop
         vertex -1.041333e+01 2.668553e+01 2.000000e+01
         vertex -6.531100e+00 2.986265e+01 2.000000e+01
         vertex -9.394230e+00 2.549232e+01 2.000000e+01
      endloop
   endfacet
   facet normal 7.485657e-17 8.658218e-17 -1.000000e+00
      outer loop
         vertex -9.394230e+00 2.549232e+01 2.000000e+01
         vertex -6.531100e+00 2.986265e+01 2.000000e+01
         vertex -5.310518e+00 2.837783e+01 2.000000e+01
      endloop
   endfacet
   facet normal 7.485657e-17 8.658218e-17 -1.000000e+00
      outer loop
         vertex -9.394230e+00 2.549232e+01 2.000000e+01
         vertex -5.310518e+00 2.837783e+01 2.000000e+01
         vertex -8.574334e+00 2.415437e+01 2.000000e+01
      endloop
   endfacet
   facet normal 7.485657e-17 8.658218e-17 -1.000000e+00
      outer loop
         vertex -8.574334e+00 2.415437e+01 2.000000e+01
         vertex -5.310518e+00 2.837783e+01 2.000000e+01
         vertex -4.289831e+00 2.674912e+01 2.000000e+01
      endloop
   endfacet
   facet normal 7.485657e-17 8.658218e-17 -1.000000e+00
      outer loop
         vertex -8.574334e+00 2.415437e+01 2.000000e+01
         vertex -4.289831e+00 2.674912e+01 2.000000e+01
         vertex -7.973834e+00 2.270464e+01 2.000000e+01
      endloop
   endfacet
   facet normal 7.485657e-17 8.658218e-17 -1.000000e+00
      outer loop
         vertex -2.748440e+01 1.961447e+01 2.000000e+01
         vertex -3.243482e+01 2.083309e+01 2.000000e+01
         vertex -2.736128e+01 2.117881e+01 2.000000e+01
      endloop
   endfacet
   facet normal 7.485657e-17 8.658218e-17 -1.000000e+00
      outer loop
         vertex -2.736128e+01 2.117881e+01 2.000000e+01
         vertex -3.243482e+01 2.083309e+01 2.000000e+01
         vertex -3.215624e+01 2.273490e+01 2.000000e+01
      endloop
   endfacet
   facet normal 7.485657e-17 8.658218e-17 -1.000000e+00
      outer loop
         vertex -2.736128e+01 2.117881e+01 2.000000e+01
         vertex -3.215624e+01 2.273490e+01 2.000000e+01
         vertex -2.699496e+01 2.270464e+01 2.000000e+01
      endloop
   endfacet
   facet normal 7.485657e-17 8.658218e-17 -1.000000e+00
      outer loop
         vertex -2.699496e+01 2.270464e+01 2.000000e+01
         vertex -3.215624e+01 2.273490e+01 2.000000e+01
         vertex -3.163675e+01 2.458548e+01 2.000000e+01
      endloop
   endfacet
   facet normal 7.485657e-17 8.658218e-17 -1.000000e+00
      outer loop
         vertex -2.699496e+01 2.270464e+01 2.000000e+01
         vertex -3.163675e+01 2.458548e+01 2.000000e+01
         vertex -2.639446e+01 2.415437e+01 2.000000e+01
      endloop
   endfacet
   facet normal 7.485657e-17 8.658218e-17 -1.000000e+00
      outer loop
         vertex -2.639446e+01 2.415437e+01 2.000000e+01
         vertex -3.163675e+01 2.458548e+01 2.000000e+01
         vertex -3.088488e+01 2.635443e+01 2.000000e+01
      endloop
   endfacet
   facet normal 7.485657e-17 8.658218e-17 -1.000000e+00
      outer loop
         vertex -2.639446e+01 2.415437e+01 2.000000e+01
         vertex -3.088488e+01 2.635443e+01 2.000000e+01
         vertex -2.557457e+01 2.549232e+01 2.000000e+01
      endloop
   endfacet
   facet normal 7.485657e-17 8.658218e-17 -1.000000e+00
      outer loop
         vertex -2.557457e+01 2.549232e+01 2.000000e+01
         vertex -3.088488e+01 2.635443e+01 2.000000e+01
         vertex -2.991298e+01 2.801271e+01 2.000000e+01
      endloop
   endfacet
   facet normal 7.485657e-17 8.658218e-17 -1.000000e+00
      outer loop
         vertex -2.557457e+01 2.549232e+01 2.000000e+01
         vertex -2.991298e+01 2.801271e+01 2.000000e+01
         vertex -2.455547e+01 2.668553e+01 2.000000e+01
      endloop
   endfacet
   facet normal 7.485657e-17 8.658218e-17 -1.000000e+00
      outer loop
         vertex -2.455547e+01 2.668553e+01 2.000000e+01
         vertex -2.991298e+01 2.801271e+01 2.000000e+01
         vertex -2.873700e+01 2.953309e+01 2.000000e+01
      endloop
   endfacet
   facet normal 7.485657e-17 8.658218e-17 -1.000000e+00
      outer loop
         vertex -2.455547e+01 2.668553e+01 2.000000e+01
         vertex -2.873700e+01 2.953309e+01 2.000000e+01
         vertex -2.737625e+01 3.089061e+01 2.000000e+01
      endloop
   endfacet
   facet normal 7.485657e-17 8.658218e-17 -1.000000e+00
      outer loop
         vertex -1.866748e+01 3.456774e+01 2.000000e+01
         vertex -1.770699e+01 3.461281e+01 2.000000e+01
         vertex -1.748440e+01 2.961447e+01 2.000000e+01
      endloop
   endfacet
   facet normal 7.485657e-17 8.658218e-17 -1.000000e+00
      outer loop
         vertex -1.748440e+01 2.961447e+01 2.000000e+01
         vertex -1.770699e+01 3.461281e+01 2.000000e+01
         vertex -1.674559e+01 3.459626e+01 2.000000e+01
      endloop
   endfacet
   facet normal 7.485657e-17 8.658218e-17 -1.000000e+00
      outer loop
         vertex -1.748440e+01 2.961447e+01 2.000000e+01
         vertex -1.674559e+01 3.459626e+01 2.000000e+01
         vertex -1.592005e+01 2.949135e+01 2.000000e+01
      endloop
   endfacet
   facet normal 7.485657e-17 8.658218e-17 -1.000000e+00
      outer loop
         vertex -1.592005e+01 2.949135e+01 2.000000e+01
         vertex -1.674559e+01 3.459626e+01 2.000000e+01
         vertex -1.483582e+01 3.437878e+01 2.000000e+01
      endloop
   endfacet
   facet normal 7.485657e-17 8.658218e-17 -1.000000e+00
      outer loop
         vertex -1.592005e+01 2.949135e+01 2.000000e+01
         vertex -1.483582e+01 3.437878e+01 2.000000e+01
         vertex -1.439423e+01 2.912503e+01 2.000000e+01
      endloop
   endfacet
   facet normal 7.485657e-17 8.658218e-17 -1.000000e+00
      outer loop
         vertex -1.439423e+01 2.912503e+01 2.000000e+01
         vertex -1.483582e+01 3.437878e+01 2.000000e+01
         vertex -1.296955e+01 3.391887e+01 2.000000e+01
      endloop
   endfacet
   facet normal 7.485657e-17 8.658218e-17 -1.000000e+00
      outer loop
         vertex -1.439423e+01 2.912503e+01 2.000000e+01
         vertex -1.296955e+01 3.391887e+01 2.000000e+01
         vertex -1.294449e+01 2.852453e+01 2.000000e+01
      endloop
   endfacet
   facet normal 7.485657e-17 8.658218e-17 -1.000000e+00
      outer loop
         vertex -1.294449e+01 2.852453e+01 2.000000e+01
         vertex -1.296955e+01 3.391887e+01 2.000000e+01
         vertex -1.117741e+01 3.322409e+01 2.000000e+01
      endloop
   endfacet
   facet normal 7.485657e-17 8.658218e-17 -1.000000e+00
      outer loop
         vertex -1.294449e+01 2.852453e+01 2.000000e+01
         vertex -1.117741e+01 3.322409e+01 2.000000e+01
         vertex -9.488827e+00 3.230583e+01 2.000000e+01
      endloop
   endfacet
   facet normal 7.485657e-17 8.658218e-17 -1.000000e+00
      outer loop
         vertex -1.904874e+01 9.737583e+00 2.000000e+01
         vertex -2.107349e+01 5.050179e+00 2.000000e+01
         vertex -2.057457e+01 1.010390e+01 2.000000e+01
      endloop
   endfacet
   facet normal 7.485657e-17 8.658218e-17 -1.000000e+00
      outer loop
         vertex -2.057457e+01 1.010390e+01 2.000000e+01
         vertex -2.107349e+01 5.050179e+00 2.000000e+01
         vertex -2.290646e+01 5.628715e+00 2.000000e+01
      endloop
   endfacet
   facet normal 7.485657e-17 8.658218e-17 -1.000000e+00
      outer loop
         vertex -2.057457e+01 1.010390e+01 2.000000e+01
         vertex -2.290646e+01 5.628715e+00 2.000000e+01
         vertex -2.202430e+01 1.070440e+01 2.000000e+01
      endloop
   endfacet
   facet normal 7.485657e-17 8.658218e-17 -1.000000e+00
      outer loop
         vertex -2.202430e+01 1.070440e+01 2.000000e+01
         vertex -2.290646e+01 5.628715e+00 2.000000e+01
         vertex -2.465040e+01 6.436895e+00 2.000000e+01
      endloop
   endfacet
   facet normal 7.485657e-17 8.658218e-17 -1.000000e+00
      outer loop
         vertex -2.202430e+01 1.070440e+01 2.000000e+01
         vertex -2.465040e+01 6.436895e+00 2.000000e+01
         vertex -2.336225e+01 1.152430e+01 2.000000e+01
      endloop
   endfacet
   facet normal 7.485657e-17 8.658218e-17 -1.000000e+00
      outer loop
         vertex -2.336225e+01 1.152430e+01 2.000000e+01
         vertex -2.465040e+01 6.436895e+00 2.000000e+01
         vertex -2.627668e+01 7.461451e+00 2.000000e+01
      endloop
   endfacet
   facet normal 7.485657e-17 8.658218e-17 -1.000000e+00
      outer loop
         vertex -2.336225e+01 1.152430e+01 2.000000e+01
         vertex -2.627668e+01 7.461451e+00 2.000000e+01
         vertex -2.455547e+01 1.254340e+01 2.000000e+01
      endloop
   endfacet
   facet normal 7.485657e-17 8.658218e-17 -1.000000e+00
      outer loop
         vertex -2.455547e+01 1.254340e+01 2.000000e+01
         vertex -2.627668e+01 7.461451e+00 2.000000e+01
         vertex -2.775859e+01 8.685559e+00 2.000000e+01
      endloop
   endfacet
   facet normal 7.485657e-17 8.658218e-17 -1.000000e+00
      outer loop
         vertex -2.455547e+01 1.254340e+01 2.000000e+01
         vertex -2.775859e+01 8.685559e+00 2.000000e+01
         vertex -2.557457e+01 1.373661e+01 2.000000e+01
      endloop
   endfacet
   facet normal 7.485657e-17 8.658218e-17 -1.000000e+00
      outer loop
         vertex -1.294449e+01 1.070440e+01 2.000000e+01
         vertex -1.164969e+01 5.795777e+00 2.000000e+01
         vertex -1.439423e+01 1.010390e+01 2.000000e+01
      endloop
   endfacet
   facet normal 7.485657e-17 8.658218e-17 -1.000000e+00
      outer loop
         vertex -1.439423e+01 1.010390e+01 2.000000e+01
         vertex -1.164969e+01 5.795777e+00 2.000000e+01
         vertex -1.346469e+01 5.163102e+00 2.000000e+01
      endloop
   endfacet
   facet normal 7.485657e-17 8.658218e-17 -1.000000e+00
      outer loop
         vertex -1.439423e+01 1.010390e+01 2.000000e+01
         vertex -1.346469e+01 5.163102e+00 2.000000e+01
         vertex -1.592005e+01 9.737582e+00 2.000000e+01
      endloop
   endfacet
   facet normal 7.485657e-17 8.658218e-17 -1.000000e+00
      outer loop
         vertex -1.592005e+01 9.737582e+00 2.000000e+01
         vertex -1.346469e+01 5.163102e+00 2.000000e+01
         vertex -1.534569e+01 4.767718e+00 2.000000e+01
      endloop
   endfacet
   facet normal 7.485657e-17 8.658218e-17 -1.000000e+00
      outer loop
         vertex -1.592005e+01 9.737582e+00 2.000000e+01
         vertex -1.534569e+01 4.767718e+00 2.000000e+01
         vertex -1.748440e+01 9.614466e+00 2.000000e+01
      endloop
   endfacet
   facet normal 7.485657e-17 8.658218e-17 -1.000000e+00
      outer loop
         vertex -1.748440e+01 9.614466e+00 2.000000e+01
         vertex -1.534569e+01 4.767718e+00 2.000000e+01
         vertex -1.726181e+01 4.616118e+00 2.000000e+01
      endloop
   endfacet
   facet normal 7.485657e-17 8.658218e-17 -1.000000e+00
      outer loop
         vertex -1.748440e+01 9.614466e+00 2.000000e+01
         vertex -1.726181e+01 4.616118e+00 2.000000e+01
         vertex -1.904874e+01 9.737583e+00 2.000000e+01
      endloop
   endfacet
   facet normal 7.485657e-17 8.658218e-17 -1.000000e+00
      outer loop
         vertex -1.904874e+01 9.737583e+00 2.000000e+01
         vertex -1.726181e+01 4.616118e+00 2.000000e+01
         vertex -1.918158e+01 4.710789e+00 2.000000e+01
      endloop
   endfacet
   facet normal 7.485657e-17 8.658218e-17 -1.000000e+00
      outer loop
         vertex -1.904874e+01 9.737583e+00 2.000000e+01
         vertex -1.918158e+01 4.710789e+00 2.000000e+01
         vertex -2.107349e+01 5.050179e+00 2.000000e+01
      endloop
   endfacet
   facet normal 7.485657e-17 8.658218e-17 -1.000000e+00
      outer loop
         vertex -7.973835e+00 1.652430e+01 2.000000e+01
         vertex -3.679620e+00 1.374692e+01 2.000000e+01
         vertex -8.574334e+00 1.507456e+01 2.000000e+01
      endloop
   endfacet
   facet normal 7.485657e-17 8.658218e-17 -1.000000e+00
      outer loop
         vertex -8.574334e+00 1.507456e+01 2.000000e+01
         vertex -3.679620e+00 1.374692e+01 2.000000e+01
         vertex -4.543281e+00 1.202978e+01 2.000000e+01
      endloop
   endfacet
   facet normal 7.485657e-17 8.658218e-17 -1.000000e+00
      outer loop
         vertex -8.574334e+00 1.507456e+01 2.000000e+01
         vertex -4.543281e+00 1.202978e+01 2.000000e+01
         vertex -9.394229e+00 1.373661e+01 2.000000e+01
      endloop
   endfacet
   facet normal 7.485657e-17 8.658218e-17 -1.000000e+00
      outer loop
         vertex -9.394229e+00 1.373661e+01 2.000000e+01
         vertex -4.543281e+00 1.202978e+01 2.000000e+01
         vertex -5.619436e+00 1.043718e+01 2.000000e+01
      endloop
   endfacet
   facet normal 7.485657e-17 8.658218e-17 -1.000000e+00
      outer loop
         vertex -9.394229e+00 1.373661e+01 2.000000e+01
         vertex -5.619436e+00 1.043718e+01 2.000000e+01
         vertex -1.041333e+01 1.254340e+01 2.000000e+01
      endloop
   endfacet
   facet normal 7.485657e-17 8.658218e-17 -1.000000e+00
      outer loop
         vertex -1.041333e+01 1.254340e+01 2.000000e+01
         vertex -5.619436e+00 1.043718e+01 2.000000e+01
         vertex -6.890412e+00 8.995264e+00 2.000000e+01
      endloop
   endfacet
   facet normal 7.485657e-17 8.658218e-17 -1.000000e+00
      outer loop
         vertex -1.041333e+01 1.254340e+01 2.000000e+01
         vertex -6.890412e+00 8.995264e+00 2.000000e+01
         vertex -1.160655e+01 1.152430e+01 2.000000e+01
      endloop
   endfacet
   facet normal 7.485657e-17 8.658218e-17 -1.000000e+00
      outer loop
         vertex -1.160655e+01 1.152430e+01 2.000000e+01
         vertex -6.890412e+00 8.995264e+00 2.000000e+01
         vertex -8.335342e+00 7.727719e+00 2.000000e+01
      endloop
   endfacet
   facet normal 7.485657e-17 8.658218e-17 -1.000000e+00
      outer loop
         vertex -1.160655e+01 1.152430e+01 2.000000e+01
         vertex -8.335342e+00 7.727719e+00 2.000000e+01
         vertex -1.294449e+01 1.070440e+01 2.000000e+01
      endloop
   endfacet
   facet normal 7.485657e-17 8.658218e-17 -1.000000e+00
      outer loop
         vertex -1.294449e+01 1.070440e+01 2.000000e+01
         vertex -8.335342e+00 7.727719e+00 2.000000e+01
         vertex -9.930499e+00 6.655353e+00 2.000000e+01
      endloop
   endfacet
   facet normal 7.485657e-17 8.658218e-17 -1.000000e+00
      outer loop
         vertex -1.294449e+01 1.070440e+01 2.000000e+01
         vertex -9.930499e+00 6.655353e+00 2.000000e+01
         vertex -1.164969e+01 5.795777e+00 2.000000e+01
      endloop
   endfacet
   facet normal 7.485657e-17 8.658218e-17 -1.000000e+00
      outer loop
         vertex -4.289831e+00 2.674912e+01 2.000000e+01
         vertex -3.485798e+00 2.500327e+01 2.000000e+01
         vertex -7.973834e+00 2.270464e+01 2.000000e+01
      endloop
   endfacet
   facet normal 7.485657e-17 8.658218e-17 -1.000000e+00
      outer loop
         vertex -7.973834e+00 2.270464e+01 2.000000e+01
         vertex -3.485798e+00 2.500327e+01 2.000000e+01
         vertex -2.911622e+00 2.316892e+01 2.000000e+01
      endloop
   endfacet
   facet normal 7.485657e-17 8.658218e-17 -1.000000e+00
      outer loop
         vertex -7.973834e+00 2.270464e+01 2.000000e+01
         vertex -2.911622e+00 2.316892e+01 2.000000e+01
         vertex -7.607516e+00 2.117881e+01 2.000000e+01
      endloop
   endfacet
   facet normal 7.485657e-17 8.658218e-17 -1.000000e+00
      outer loop
         vertex -7.607516e+00 2.117881e+01 2.000000e+01
         vertex -2.911622e+00 2.316892e+01 2.000000e+01
         vertex -2.576730e+00 2.127621e+01 2.000000e+01
      endloop
   endfacet
   facet normal 7.485657e-17 8.658218e-17 -1.000000e+00
      outer loop
         vertex -7.607516e+00 2.117881e+01 2.000000e+01
         vertex -2.576730e+00 2.127621e+01 2.000000e+01
         vertex -7.484399e+00 1.961447e+01 2.000000e+01
      endloop
   endfacet
   facet normal 7.485657e-17 8.658218e-17 -1.000000e+00
      outer loop
         vertex -7.484399e+00 1.961447e+01 2.000000e+01
         vertex -2.576730e+00 2.127621e+01 2.000000e+01
         vertex -2.486623e+00 1.935622e+01 2.000000e+01
      endloop
   endfacet
   facet normal 7.485657e-17 8.658218e-17 -1.000000e+00
      outer loop
         vertex -7.484399e+00 1.961447e+01 2.000000e+01
         vertex -2.486623e+00 1.935622e+01 2.000000e+01
         vertex -7.607516e+00 1.805012e+01 2.000000e+01
      endloop
   endfacet
   facet normal 7.485657e-17 8.658218e-17 -1.000000e+00
      outer loop
         vertex -7.607516e+00 1.805012e+01 2.000000e+01
         vertex -2.486623e+00 1.935622e+01 2.000000e+01
         vertex -2.642777e+00 1.744047e+01 2.000000e+01
      endloop
   endfacet
   facet normal 7.485657e-17 8.658218e-17 -1.000000e+00
      outer loop
         vertex -7.607516e+00 1.805012e+01 2.000000e+01
         vertex -2.642777e+00 1.744047e+01 2.000000e+01
         vertex -7.973835e+00 1.652430e+01 2.000000e+01
      endloop
   endfacet
   facet normal 7.485657e-17 8.658218e-17 -1.000000e+00
      outer loop
         vertex -7.973835e+00 1.652430e+01 2.000000e+01
         vertex -2.642777e+00 1.744047e+01 2.000000e+01
         vertex -3.042631e+00 1.556041e+01 2.000000e+01
      endloop
   endfacet
   facet normal 7.485657e-17 8.658218e-17 -1.000000e+00
      outer loop
         vertex -7.973835e+00 1.652430e+01 2.000000e+01
         vertex -3.042631e+00 1.556041e+01 2.000000e+01
         vertex -3.679620e+00 1.374692e+01 2.000000e+01
      endloop
   endfacet
   facet normal 7.485657e-17 8.658218e-17 -1.000000e+00
      outer loop
         vertex -2.775859e+01 8.685559e+00 2.000000e+01
         vertex -2.907180e+01 1.008912e+01 2.000000e+01
         vertex -2.557457e+01 1.373661e+01 2.000000e+01
      endloop
   endfacet
   facet normal 7.485657e-17 8.658218e-17 -1.000000e+00
      outer loop
         vertex -2.557457e+01 1.373661e+01 2.000000e+01
         vertex -2.907180e+01 1.008912e+01 2.000000e+01
         vertex -3.019474e+01 1.164909e+01 2.000000e+01
      endloop
   endfacet
   facet normal 7.485657e-17 8.658218e-17 -1.000000e+00
      outer loop
         vertex -2.557457e+01 1.373661e+01 2.000000e+01
         vertex -3.019474e+01 1.164909e+01 2.000000e+01
         vertex -2.639447e+01 1.507456e+01 2.000000e+01
      endloop
   endfacet
   facet normal 7.485657e-17 8.658218e-17 -1.000000e+00
      outer loop
         vertex -2.639447e+01 1.507456e+01 2.000000e+01
         vertex -3.019474e+01 1.164909e+01 2.000000e+01
         vertex -3.110898e+01 1.333984e+01 2.000000e+01
      endloop
   endfacet
   facet normal 7.485657e-17 8.658218e-17 -1.000000e+00
      outer loop
         vertex -2.639447e+01 1.507456e+01 2.000000e+01
         vertex -3.110898e+01 1.333984e+01 2.000000e+01
         vertex -2.699496e+01 1.652430e+01 2.000000e+01
      endloop
   endfacet
   facet normal 7.485657e-17 8.658218e-17 -1.000000e+00
      outer loop
         vertex -2.699496e+01 1.652430e+01 2.000000e+01
         vertex -3.110898e+01 1.333984e+01 2.000000e+01
         vertex -3.179950e+01 1.513363e+01 2.000000e+01
      endloop
   endfacet
   facet normal 7.485657e-17 8.658218e-17 -1.000000e+00
      outer loop
         vertex -2.699496e+01 1.652430e+01 2.000000e+01
         vertex -3.179950e+01 1.513363e+01 2.000000e+01
         vertex -2.736128e+01 1.805012e+01 2.000000e+01
      endloop
   endfacet
   facet normal 7.485657e-17 8.658218e-17 -1.000000e+00
      outer loop
         vertex -2.736128e+01 1.805012e+01 2.000000e+01
         vertex -3.179950e+01 1.513363e+01 2.000000e+01
         vertex -3.225497e+01 1.700099e+01 2.000000e+01
      endloop
   endfacet
   facet normal 7.485657e-17 8.658218e-17 -1.000000e+00
      outer loop
         vertex -2.736128e+01 1.805012e+01 2.000000e+01
         vertex -3.225497e+01 1.700099e+01 2.000000e+01
         vertex -2.748440e+01 1.961447e+01 2.000000e+01
      endloop
   endfacet
   facet normal 7.485657e-17 8.658218e-17 -1.000000e+00
      outer loop
         vertex -2.748440e+01 1.961447e+01 2.000000e+01
         vertex -3.225497e+01 1.700099e+01 2.000000e+01
         vertex -3.246791e+01 1.891127e+01 2.000000e+01
      endloop
   endfacet
   facet normal 7.485657e-17 8.658218e-17 -1.000000e+00
      outer loop
         vertex -2.748440e+01 1.961447e+01 2.000000e+01
         vertex -3.246791e+01 1.891127e+01 2.000000e+01
         vertex -3.243482e+01 2.083309e+01 2.000000e+01
      endloop
   endfacet
   facet normal -7.485657e-17 -8.658218e-17 1.000000e+00
      outer loop
         vertex -1.770699e+01 3.461281e+01 7.000000e+01
         vertex -1.866748e+01 3.456774e+01 7.000000e+01
         vertex -1.748440e+01 1.961447e+01 7.000000e+01
      endloop
   endfacet
   facet normal -7.485657e-17 -8.658218e-17 1.000000e+00
      outer loop
         vertex -1.770699e+01 3.461281e+01 7.000000e+01
         vertex -1.748440e+01 1.961447e+01 7.000000e+01
         vertex -1.674559e+01 3.459626e+01 7.000000e+01
      endloop
   endfacet
   facet normal -7.485657e-17 -8.658218e-17 1.000000e+00
      outer loop
         vertex -1.117741e+01 3.322409e+01 7.000000e+01
         vertex -1.296955e+01 3.391887e+01 7.000000e+01
         vertex -1.748440e+01 1.961447e+01 7.000000e+01
      endloop
   endfacet
   facet normal -7.485657e-17 -8.658218e-17 1.000000e+00
      outer loop
         vertex -1.748440e+01 1.961447e+01 7.000000e+01
         vertex -1.296955e+01 3.391887e+01 7.000000e+01
         vertex -1.483582e+01 3.437878e+01 7.000000e+01
      endloop
   endfacet
   facet normal -7.485657e-17 -8.658218e-17 1.000000e+00
      outer loop
         vertex -1.748440e+01 1.961447e+01 7.000000e+01
         vertex -1.483582e+01 3.437878e+01 7.000000e+01
         vertex -1.674559e+01 3.459626e+01 7.000000e+01
      endloop
   endfacet
   facet normal -7.485657e-17 -8.658218e-17 1.000000e+00
      outer loop
         vertex -6.531100e+00 2.986265e+01 7.000000e+01
         vertex -7.931535e+00 3.117919e+01 7.000000e+01
         vertex -1.748440e+01 1.961447e+01 7.000000e+01
      endloop
   endfacet
   facet normal -7.485657e-17 -8.658218e-17 1.000000e+00
      outer loop
         vertex -1.748440e+01 1.961447e+01 7.000000e+01
         vertex -7.931535e+00 3.117919e+01 7.000000e+01
         vertex -9.488827e+00 3.230583e+01 7.000000e+01
      endloop
   endfacet
   facet normal -7.485657e-17 -8.658218e-17 1.000000e+00
      outer loop
         vertex -1.748440e+01 1.961447e+01 7.000000e+01
         vertex -9.488827e+00 3.230583e+01 7.000000e+01
         vertex -1.117741e+01 3.322409e+01 7.000000e+01
      endloop
   endfacet
   facet normal -7.485657e-17 -8.658218e-17 1.000000e+00
      outer loop
         vertex -3.485798e+00 2.500327e+01 7.000000e+01
         vertex -4.289831e+00 2.674912e+01 7.000000e+01
         vertex -1.748440e+01 1.961447e+01 7.000000e+01
      endloop
   endfacet
   facet normal -7.485657e-17 -8.658218e-17 1.000000e+00
      outer loop
         vertex -1.748440e+01 1.961447e+01 7.000000e+01
         vertex -4.289831e+00 2.674912e+01 7.000000e+01
         vertex -5.310518e+00 2.837783e+01 7.000000e+01
      endloop
   endfacet
   facet normal -7.485657e-17 -8.658218e-17 1.000000e+00
      outer loop
         vertex -1.748440e+01 1.961447e+01 7.000000e+01
         vertex -5.310518e+00 2.837783e+01 7.000000e+01
         vertex -6.531100e+00 2.986265e+01 7.000000e+01
      endloop
   endfacet
   facet normal -7.485657e-17 -8.658218e-17 1.000000e+00
      outer loop
         vertex -2.486623e+00 1.935622e+01 7.000000e+01
         vertex -2.576730e+00 2.127621e+01 7.000000e+01
         vertex -1.748440e+01 1.961447e+01 7.000000e+01
      endloop
   endfacet
   facet normal -7.485657e-17 -8.658218e-17 1.000000e+00
      outer loop
         vertex -1.748440e+01 1.961447e+01 7.000000e+01
         vertex -2.576730e+00 2.127621e+01 7.000000e+01
         vertex -2.911622e+00 2.316892e+01 7.000000e+01
      endloop
   endfacet
   facet normal -7.485657e-17 -8.658218e-17 1.000000e+00
      outer loop
         vertex -1.748440e+01 1.961447e+01 7.000000e+01
         vertex -2.911622e+00 2.316892e+01 7.000000e+01
         vertex -3.485798e+00 2.500327e+01 7.000000e+01
      endloop
   endfacet
   facet normal -7.485657e-17 -8.658218e-17 1.000000e+00
      outer loop
         vertex -3.679620e+00 1.374692e+01 7.000000e+01
         vertex -3.042631e+00 1.556041e+01 7.000000e+01
         vertex -1.748440e+01 1.961447e+01 7.000000e+01
      endloop
   endfacet
   facet normal -7.485657e-17 -8.658218e-17 1.000000e+00
      outer loop
         vertex -1.748440e+01 1.961447e+01 7.000000e+01
         vertex -3.042631e+00 1.556041e+01 7.000000e+01
         vertex -2.642777e+00 1.744047e+01 7.000000e+01
      endloop
   endfacet
   facet normal -7.485657e-17 -8.658218e-17 1.000000e+00
      outer loop
         vertex -1.748440e+01 1.961447e+01 7.000000e+01
         vertex -2.642777e+00 1.744047e+01 7.000000e+01
         vertex -2.486623e+00 1.935622e+01 7.000000e+01
      endloop
   endfacet
   facet normal -7.485657e-17 -8.658218e-17 1.000000e+00
      outer loop
         vertex -6.890412e+00 8.995264e+00 7.000000e+01
         vertex -5.619436e+00 1.043718e+01 7.000000e+01
         vertex -1.748440e+01 1.961447e+01 7.000000e+01
      endloop
   endfacet
   facet normal -7.485657e-17 -8.658218e-17 1.000000e+00
      outer loop
         vertex -1.748440e+01 1.961447e+01 7.000000e+01
         vertex -5.619436e+00 1.043718e+01 7.000000e+01
         vertex -4.543281e+00 1.202978e+01 7.000000e+01
      endloop
   endfacet
   facet normal -7.485657e-17 -8.658218e-17 1.000000e+00
      outer loop
         vertex -1.748440e+01 1.961447e+01 7.000000e+01
         vertex -4.543281e+00 1.202978e+01 7.000000e+01
         vertex -3.679620e+00 1.374692e+01 7.000000e+01
      endloop
   endfacet
   facet normal -7.485657e-17 -8.658218e-17 1.000000e+00
      outer loop
         vertex -1.164969e+01 5.795777e+00 7.000000e+01
         vertex -9.930499e+00 6.655353e+00 7.000000e+01
         vertex -1.748440e+01 1.961447e+01 7.000000e+01
      endloop
   endfacet
   facet normal -7.485657e-17 -8.658218e-17 1.000000e+00
      outer loop
         vertex -1.748440e+01 1.961447e+01 7.000000e+01
         vertex -9.930499e+00 6.655353e+00 7.000000e+01
         vertex -8.335342e+00 7.727719e+00 7.000000e+01
      endloop
   endfacet
   facet normal -7.485657e-17 -8.658218e-17 1.000000e+00
      outer loop
         vertex -1.748440e+01 1.961447e+01 7.000000e+01
         vertex -8.335342e+00 7.727719e+00 7.000000e+01
         vertex -6.890412e+00 8.995264e+00 7.000000e+01
      endloop
   endfacet
   facet normal -7.485657e-17 -8.658218e-17 1.000000e+00
      outer loop
         vertex -1.726181e+01 4.616118e+00 7.000000e+01
         vertex -1.534569e+01 4.767718e+00 7.000000e+01
         vertex -1.748440e+01 1.961447e+01 7.000000e+01
      endloop
   endfacet
   facet normal -7.485657e-17 -8.658218e-17 1.000000e+00
      outer loop
         vertex -1.748440e+01 1.961447e+01 7.000000e+01
         vertex -1.534569e+01 4.767718e+00 7.000000e+01
         vertex -1.346469e+01 5.163102e+00 7.000000e+01
      endloop
   endfacet
   facet normal -7.485657e-17 -8.658218e-17 1.000000e+00
      outer loop
         vertex -1.748440e+01 1.961447e+01 7.000000e+01
         vertex -1.346469e+01 5.163102e+00 7.000000e+01
         vertex -1.164969e+01 5.795777e+00 7.000000e+01
      endloop
   endfacet
   facet normal -7.485657e-17 -8.658218e-17 1.000000e+00
      outer loop
         vertex -2.290646e+01 5.628715e+00 7.000000e+01
         vertex -2.107349e+01 5.050179e+00 7.000000e+01
         vertex -1.748440e+01 1.961447e+01 7.000000e+01
      endloop
   endfacet
   facet normal -7.485657e-17 -8.658218e-17 1.000000e+00
      outer loop
         vertex -1.748440e+01 1.961447e+01 7.000000e+01
         vertex -2.107349e+01 5.050179e+00 7.000000e+01
         vertex -1.918158e+01 4.710789e+00 7.000000e+01
      endloop
   endfacet
   facet normal -7.485657e-17 -8.658218e-17 1.000000e+00
      outer loop
         vertex -1.748440e+01 1.961447e+01 7.000000e+01
         vertex -1.918158e+01 4.710789e+00 7.000000e+01
         vertex -1.726181e+01 4.616118e+00 7.000000e+01
      endloop
   endfacet
   facet normal -7.485657e-17 -8.658218e-17 1.000000e+00
      outer loop
         vertex -2.775859e+01 8.685559e+00 7.000000e+01
         vertex -2.627668e+01 7.461451e+00 7.000000e+01
         vertex -1.748440e+01 1.961447e+01 7.000000e+01
      endloop
   endfacet
   facet normal -7.485657e-17 -8.658218e-17 1.000000e+00
      outer loop
         vertex -1.748440e+01 1.961447e+01 7.000000e+01
         vertex -2.627668e+01 7.461451e+00 7.000000e+01
         vertex -2.465040e+01 6.436895e+00 7.000000e+01
      endloop
   endfacet
   facet normal -7.485657e-17 -8.658218e-17 1.000000e+00
      outer loop
         vertex -1.748440e+01 1.961447e+01 7.000000e+01
         vertex -2.465040e+01 6.436895e+00 7.000000e+01
         vertex -2.290646e+01 5.628715e+00 7.000000e+01
      endloop
   endfacet
   facet normal -7.485657e-17 -8.658218e-17 1.000000e+00
      outer loop
         vertex -3.110898e+01 1.333984e+01 7.000000e+01
         vertex -3.019474e+01 1.164909e+01 7.000000e+01
         vertex -1.748440e+01 1.961447e+01 7.000000e+01
      endloop
   endfacet
   facet normal -7.485657e-17 -8.658218e-17 1.000000e+00
      outer loop
         vertex -1.748440e+01 1.961447e+01 7.000000e+01
         vertex -3.019474e+01 1.164909e+01 7.000000e+01
         vertex -2.907180e+01 1.008912e+01 7.000000e+01
      endloop
   endfacet
   facet normal -7.485657e-17 -8.658218e-17 1.000000e+00
      outer loop
         vertex -1.748440e+01 1.961447e+01 7.000000e+01
         vertex -2.907180e+01 1.008912e+01 7.000000e+01
         vertex -2.775859e+01 8.685559e+00 7.000000e+01
      endloop
   endfacet
   facet normal -7.485657e-17 -8.658218e-17 1.000000e+00
      outer loop
         vertex -3.246791e+01 1.891127e+01 7.000000e+01
         vertex -3.225497e+01 1.700099e+01 7.000000e+01
         vertex -1.748440e+01 1.961447e+01 7.000000e+01
      endloop
   endfacet
   facet normal -7.485657e-17 -8.658218e-17 1.000000e+00
      outer loop
         vertex -1.748440e+01 1.961447e+01 7.000000e+01
         vertex -3.225497e+01 1.700099e+01 7.000000e+01
         vertex -3.179950e+01 1.513363e+01 7.000000e+01
      endloop
   endfacet
   facet normal -7.485657e-17 -8.658218e-17 1.000000e+00
      outer loop
         vertex -1.748440e+01 1.961447e+01 7.000000e+01
         vertex -3.179950e+01 1.513363e+01 7.000000e+01
         vertex -3.110898e+01 1.333984e+01 7.000000e+01
      endloop
   endfacet
   facet normal -7.485657e-17 -8.658218e-17 1.000000e+00
      outer loop
         vertex -3.163675e+01 2.458548e+01 7.000000e+01
         vertex -3.215624e+01 2.273490e+01 7.000000e+01
         vertex -1.748440e+01 1.961447e+01 7.000000e+01
      endloop
   endfacet
   facet normal -7.485657e-17 -8.658218e-17 1.000000e+00
      outer loop
         vertex -1.748440e+01 1.961447e+01 7.000000e+01
         vertex -3.215624e+01 2.273490e+01 7.000000e+01
         vertex -3.243482e+01 2.083309e+01 7.000000e+01
      endloop
   endfacet
   facet normal -7.485657e-17 -8.658218e-17 1.000000e+00
      outer loop
         vertex -1.748440e+01 1.961447e+01 7.000000e+01
         vertex -3.243482e+01 2.083309e+01 7.000000e+01
         vertex -3.246791e+01 1.891127e+01 7.000000e+01
      endloop
   endfacet
   facet normal -7.485657e-17 -8.658218e-17 1.000000e+00
      outer loop
         vertex -2.873700e+01 2.953309e+01 7.000000e+01
         vertex -2.991298e+01 2.801271e+01 7.000000e+01
         vertex -1.748440e+01 1.961447e+01 7.000000e+01
      endloop
   endfacet
   facet normal -7.485657e-17 -8.658218e-17 1.000000e+00
      outer loop
         vertex -1.748440e+01 1.961447e+01 7.000000e+01
         vertex -2.991298e+01 2.801271e+01 7.000000e+01
         vertex -3.088488e+01 2.635443e+01 7.000000e+01
      endloop
   endfacet
   facet normal -7.485657e-17 -8.658218e-17 1.000000e+00
      outer loop
         vertex -1.748440e+01 1.961447e+01 7.000000e+01
         vertex -3.088488e+01 2.635443e+01 7.000000e+01
         vertex -3.163675e+01 2.458548e+01 7.000000e+01
      endloop
   endfacet
   facet normal -7.485657e-17 -8.658218e-17 1.000000e+00
      outer loop
         vertex -2.419249e+01 3.303093e+01 7.000000e+01
         vertex -2.585307e+01 3.206297e+01 7.000000e+01
         vertex -1.748440e+01 1.961447e+01 7.000000e+01
      endloop
   endfacet
   facet normal -7.485657e-17 -8.658218e-17 1.000000e+00
      outer loop
         vertex -1.748440e+01 1.961447e+01 7.000000e+01
         vertex -2.585307e+01 3.206297e+01 7.000000e+01
         vertex -2.737625e+01 3.089061e+01 7.000000e+01
      endloop
   endfacet
   facet normal -7.485657e-17 -8.658218e-17 1.000000e+00
      outer loop
         vertex -1.748440e+01 1.961447e+01 7.000000e+01
         vertex -2.737625e+01 3.089061e+01 7.000000e+01
         vertex -2.873700e+01 2.953309e+01 7.000000e+01
      endloop
   endfacet
   facet normal -7.485657e-17 -8.658218e-17 1.000000e+00
      outer loop
         vertex -1.866748e+01 3.456774e+01 7.000000e+01
         vertex -2.056995e+01 3.429368e+01 7.000000e+01
         vertex -1.748440e+01 1.961447e+01 7.000000e+01
      endloop
   endfacet
   facet normal -7.485657e-17 -8.658218e-17 1.000000e+00
      outer loop
         vertex -1.748440e+01 1.961447e+01 7.000000e+01
         vertex -2.056995e+01 3.429368e+01 7.000000e+01
         vertex -2.242175e+01 3.377859e+01 7.000000e+01
      endloop
   endfacet
   facet normal -7.485657e-17 -8.658218e-17 1.000000e+00
      outer loop
         vertex -1.748440e+01 1.961447e+01 7.000000e+01
         vertex -2.242175e+01 3.377859e+01 7.000000e+01
         vertex -2.419249e+01 3.303093e+01 7.000000e+01
      endloop
   endfacet
   facet normal -7.845931e-02 -9.969173e-01 -1.483451e-16
      outer loop
         vertex -1.748440e+01 2.961447e+01 3.000000e+01
         vertex -1.748440e+01 2.961447e+01 2.000000e+01
         vertex -1.592005e+01 2.949135e+01 3.000000e+01
      endloop
   endfacet
   facet normal -7.845931e-02 -9.969173e-01 -1.483451e-16
      outer loop
         vertex -1.592005e+01 2.949135e+01 3.000000e+01
         vertex -1.748440e+01 2.961447e+01 2.000000e+01
         vertex -1.592005e+01 2.949135e+01 2.000000e+01
      endloop
   endfacet
   facet normal -2.334454e-01 -9.723699e-01 -1.815800e-16
      outer loop
         vertex -1.592005e+01 2.949135e+01 3.000000e+01
         vertex -1.592005e+01 2.949135e+01 2.000000e+01
         vertex -1.439423e+01 2.912503e+01 3.000000e+01
      endloop
   endfacet
   facet normal -2.334454e-01 -9.723699e-01 -1.815800e-16
      outer loop
         vertex -1.439423e+01 2.912503e+01 3.000000e+01
         vertex -1.592005e+01 2.949135e+01 2.000000e+01
         vertex -1.439423e+01 2.912503e+01 2.000000e+01
      endloop
   endfacet
   facet normal -3.826832e-01 -9.238796e-01 -2.103438e-16
      outer loop
         vertex -1.439423e+01 2.912503e+01 3.000000e+01
         vertex -1.439423e+01 2.912503e+01 2.000000e+01
         vertex -1.294449e+01 2.852453e+01 3.000000e+01
      endloop
   endfacet
   facet normal -3.826832e-01 -9.238796e-01 -2.103438e-16
      outer loop
         vertex -1.294449e+01 2.852453e+01 3.000000e+01
         vertex -1.439423e+01 2.912503e+01 2.000000e+01
         vertex -1.294449e+01 2.852453e+01 2.000000e+01
      endloop
   endfacet
   facet normal -5.224984e-01 -8.526402e-01 -2.339284e-16
      outer loop
         vertex -1.294449e+01 2.852453e+01 3.000000e+01
         vertex -1.294449e+01 2.852453e+01 2.000000e+01
         vertex -1.160655e+01 2.770464e+01 3.000000e+01
      endloop
   endfacet
   facet normal -5.224984e-01 -8.526402e-01 -2.339284e-16
      outer loop
         vertex -1.160655e+01 2.770464e+01 3.000000e+01
         vertex -1.294449e+01 2.852453e+01 2.000000e+01
         vertex -1.160655e+01 2.770464e+01 2.000000e+01
      endloop
   endfacet
   facet normal -6.494481e-01 -7.604059e-01 -2.517528e-16
      outer loop
         vertex -1.160655e+01 2.770464e+01 3.000000e+01
         vertex -1.160655e+01 2.770464e+01 2.000000e+01
         vertex -1.041333e+01 2.668553e+01 3.000000e+01
      endloop
   endfacet
   facet normal -6.494481e-01 -7.604059e-01 -2.517528e-16
      outer loop
         vertex -1.041333e+01 2.668553e+01 3.000000e+01
         vertex -1.160655e+01 2.770464e+01 2.000000e+01
         vertex -1.041333e+01 2.668553e+01 2.000000e+01
      endloop
   endfacet
   facet normal -7.604060e-01 -6.494480e-01 -2.633782e-16
      outer loop
         vertex -1.041333e+01 2.668553e+01 3.000000e+01
         vertex -1.041333e+01 2.668553e+01 2.000000e+01
         vertex -9.394230e+00 2.549232e+01 3.000000e+01
      endloop
   endfacet
   facet normal -7.604060e-01 -6.494480e-01 -2.633782e-16
      outer loop
         vertex -9.394230e+00 2.549232e+01 3.000000e+01
         vertex -1.041333e+01 2.668553e+01 2.000000e+01
         vertex -9.394230e+00 2.549232e+01 2.000000e+01
      endloop
   endfacet
   facet normal -8.526400e-01 -5.224988e-01 -2.685184e-16
      outer loop
         vertex -9.394230e+00 2.549232e+01 3.000000e+01
         vertex -9.394230e+00 2.549232e+01 2.000000e+01
         vertex -8.574334e+00 2.415437e+01 3.000000e+01
      endloop
   endfacet
   facet normal -8.526400e-01 -5.224988e-01 -2.685184e-16
      outer loop
         vertex -8.574334e+00 2.415437e+01 3.000000e+01
         vertex -9.394230e+00 2.549232e+01 2.000000e+01
         vertex -8.574334e+00 2.415437e+01 2.000000e+01
      endloop
   endfacet
   facet normal -9.238796e-01 -3.826833e-01 -2.670468e-16
      outer loop
         vertex -8.574334e+00 2.415437e+01 3.000000e+01
         vertex -8.574334e+00 2.415437e+01 2.000000e+01
         vertex -7.973834e+00 2.270464e+01 3.000000e+01
      endloop
   endfacet
   facet normal -9.238796e-01 -3.826833e-01 -2.670468e-16
      outer loop
         vertex -7.973834e+00 2.270464e+01 3.000000e+01
         vertex -8.574334e+00 2.415437e+01 2.000000e+01
         vertex -7.973834e+00 2.270464e+01 2.000000e+01
      endloop
   endfacet
   facet normal -9.723699e-01 -2.334454e-01 -2.589995e-16
      outer loop
         vertex -7.973834e+00 2.270464e+01 3.000000e+01
         vertex -7.973834e+00 2.270464e+01 2.000000e+01
         vertex -7.607516e+00 2.117881e+01 3.000000e+01
      endloop
   endfacet
   facet normal -9.723699e-01 -2.334454e-01 -2.589995e-16
      outer loop
         vertex -7.607516e+00 2.117881e+01 3.000000e+01
         vertex -7.973834e+00 2.270464e+01 2.000000e+01
         vertex -7.607516e+00 2.117881e+01 2.000000e+01
      endloop
   endfacet
   facet normal -9.969173e-01 -7.845902e-02 -2.445749e-16
      outer loop
         vertex -7.607516e+00 2.117881e+01 3.000000e+01
         vertex -7.607516e+00 2.117881e+01 2.000000e+01
         vertex -7.484399e+00 1.961447e+01 3.000000e+01
      endloop
   endfacet
   facet normal -9.969173e-01 -7.845902e-02 -2.445749e-16
      outer loop
         vertex -7.484399e+00 1.961447e+01 3.000000e+01
         vertex -7.607516e+00 2.117881e+01 2.000000e+01
         vertex -7.484399e+00 1.961447e+01 2.000000e+01
      endloop
   endfacet
   facet normal -9.969173e-01 7.845931e-02 -2.241280e-16
      outer loop
         vertex -7.484399e+00 1.961447e+01 3.000000e+01
         vertex -7.484399e+00 1.961447e+01 2.000000e+01
         vertex -7.607516e+00 1.805012e+01 3.000000e+01
      endloop
   endfacet
   facet normal -9.969173e-01 7.845931e-02 -2.241280e-16
      outer loop
         vertex -7.607516e+00 1.805012e+01 3.000000e+01
         vertex -7.484399e+00 1.961447e+01 2.000000e+01
         vertex -7.607516e+00 1.805012e+01 2.000000e+01
      endloop
   endfacet
   facet normal -9.723699e-01 2.334454e-01 -1.981623e-16
      outer loop
         vertex -7.607516e+00 1.805012e+01 3.000000e+01
         vertex -7.607516e+00 1.805012e+01 2.000000e+01
         vertex -7.973835e+00 1.652430e+01 3.000000e+01
      endloop
   endfacet
   facet normal -9.723699e-01 2.334454e-01 -1.981623e-16
      outer loop
         vertex -7.973835e+00 1.652430e+01 3.000000e+01
         vertex -7.607516e+00 1.805012e+01 2.000000e+01
         vertex -7.973835e+00 1.652430e+01 2.000000e+01
      endloop
   endfacet
   facet normal -9.238796e-01 3.826832e-01 -1.673173e-16
      outer loop
         vertex -7.973835e+00 1.652430e+01 3.000000e+01
         vertex -7.973835e+00 1.652430e+01 2.000000e+01
         vertex -8.574334e+00 1.507456e+01 3.000000e+01
      endloop
   endfacet
   facet normal -9.238796e-01 3.826832e-01 -1.673173e-16
      outer loop
         vertex -8.574334e+00 1.507456e+01 3.000000e+01
         vertex -7.973835e+00 1.652430e+01 2.000000e+01
         vertex -8.574334e+00 1.507456e+01 2.000000e+01
      endloop
   endfacet
   facet normal -8.526402e-01 5.224984e-01 -1.323523e-16
      outer loop
         vertex -8.574334e+00 1.507456e+01 3.000000e+01
         vertex -8.574334e+00 1.507456e+01 2.000000e+01
         vertex -9.394229e+00 1.373661e+01 3.000000e+01
      endloop
   endfacet
   facet normal -8.526402e-01 5.224984e-01 -1.323523e-16
      outer loop
         vertex -9.394229e+00 1.373661e+01 3.000000e+01
         vertex -8.574334e+00 1.507456e+01 2.000000e+01
         vertex -9.394229e+00 1.373661e+01 2.000000e+01
      endloop
   endfacet
   facet normal -7.604059e-01 6.494481e-01 -9.412831e-17
      outer loop
         vertex -9.394229e+00 1.373661e+01 3.000000e+01
         vertex -9.394229e+00 1.373661e+01 2.000000e+01
         vertex -1.041333e+01 1.254340e+01 3.000000e+01
      endloop
   endfacet
   facet normal -7.604059e-01 6.494481e-01 -9.412831e-17
      outer loop
         vertex -1.041333e+01 1.254340e+01 3.000000e+01
         vertex -9.394229e+00 1.373661e+01 2.000000e+01
         vertex -1.041333e+01 1.254340e+01 2.000000e+01
      endloop
   endfacet
   facet normal -6.494480e-01 7.604060e-01 -5.358662e-17
      outer loop
         vertex -1.041333e+01 1.254340e+01 3.000000e+01
         vertex -1.041333e+01 1.254340e+01 2.000000e+01
         vertex -1.160655e+01 1.152430e+01 3.000000e+01
      endloop
   endfacet
   facet normal -6.494480e-01 7.604060e-01 -5.358662e-17
      outer loop
         vertex -1.160655e+01 1.152430e+01 3.000000e+01
         vertex -1.041333e+01 1.254340e+01 2.000000e+01
         vertex -1.160655e+01 1.152430e+01 2.000000e+01
      endloop
   endfacet
   facet normal -5.224988e-01 8.526400e-01 -1.172553e-17
      outer loop
         vertex -1.160655e+01 1.152430e+01 3.000000e+01
         vertex -1.160655e+01 1.152430e+01 2.000000e+01
         vertex -1.294449e+01 1.070440e+01 3.000000e+01
      endloop
   endfacet
   facet normal -5.224988e-01 8.526400e-01 -1.172553e-17
      outer loop
         vertex -1.294449e+01 1.070440e+01 3.000000e+01
         vertex -1.160655e+01 1.152430e+01 2.000000e+01
         vertex -1.294449e+01 1.070440e+01 2.000000e+01
      endloop
   endfacet
   facet normal -3.826833e-01 9.238796e-01 3.042445e-17
      outer loop
         vertex -1.294449e+01 1.070440e+01 3.000000e+01
         vertex -1.294449e+01 1.070440e+01 2.000000e+01
         vertex -1.439423e+01 1.010390e+01 3.000000e+01
      endloop
   endfacet
   facet normal -3.826833e-01 9.238796e-01 3.042445e-17
      outer loop
         vertex -1.439423e+01 1.010390e+01 3.000000e+01
         vertex -1.294449e+01 1.070440e+01 2.000000e+01
         vertex -1.439423e+01 1.010390e+01 2.000000e+01
      endloop
   endfacet
   facet normal -2.334454e-01 9.723699e-01 7.182515e-17
      outer loop
         vertex -1.439423e+01 1.010390e+01 3.000000e+01
         vertex -1.439423e+01 1.010390e+01 2.000000e+01
         vertex -1.592005e+01 9.737582e+00 3.000000e+01
      endloop
   endfacet
   facet normal -2.334454e-01 9.723699e-01 7.182515e-17
      outer loop
         vertex -1.592005e+01 9.737582e+00 3.000000e+01
         vertex -1.439423e+01 1.010390e+01 2.000000e+01
         vertex -1.592005e+01 9.737582e+00 2.000000e+01
      endloop
   endfacet
   facet normal -7.845902e-02 9.969173e-01 1.114574e-16
      outer loop
         vertex -1.592005e+01 9.737582e+00 3.000000e+01
         vertex -1.592005e+01 9.737582e+00 2.000000e+01
         vertex -1.748440e+01 9.614466e+00 3.000000e+01
      endloop
   endfacet
   facet normal -7.845902e-02 9.969173e-01 1.114574e-16
      outer loop
         vertex -1.748440e+01 9.614466e+00 3.000000e+01
         vertex -1.592005e+01 9.737582e+00 2.000000e+01
         vertex -1.748440e+01 9.614466e+00 2.000000e+01
      endloop
   endfacet
   facet normal 7.845931e-02 9.969173e-01 1.483451e-16
      outer loop
         vertex -1.748440e+01 9.614466e+00 3.000000e+01
         vertex -1.748440e+01 9.614466e+00 2.000000e+01
         vertex -1.904874e+01 9.737583e+00 3.000000e+01
      endloop
   endfacet
   facet normal 7.845931e-02 9.969173e-01 1.483451e-16
      outer loop
         vertex -1.904874e+01 9.737583e+00 3.000000e+01
         vertex -1.748440e+01 9.614466e+00 2.000000e+01
         vertex -1.904874e+01 9.737583e+00 2.000000e+01
      endloop
   endfacet
   facet normal 2.334454e-01 9.723699e-01 1.815800e-16
      outer loop
         vertex -1.904874e+01 9.737583e+00 3.000000e+01
         vertex -1.904874e+01 9.737583e+00 2.000000e+01
         vertex -2.057457e+01 1.010390e+01 3.000000e+01
      endloop
   endfacet
   facet normal 2.334454e-01 9.723699e-01 1.815800e-16
      outer loop
         vertex -2.057457e+01 1.010390e+01 3.000000e+01
         vertex -1.904874e+01 9.737583e+00 2.000000e+01
         vertex -2.057457e+01 1.010390e+01 2.000000e+01
      endloop
   endfacet
   facet normal 3.826832e-01 9.238796e-01 2.103438e-16
      outer loop
         vertex -2.057457e+01 1.010390e+01 3.000000e+01
         vertex -2.057457e+01 1.010390e+01 2.000000e+01
         vertex -2.202430e+01 1.070440e+01 3.000000e+01
      endloop
   endfacet
   facet normal 3.826832e-01 9.238796e-01 2.103438e-16
      outer loop
         vertex -2.202430e+01 1.070440e+01 3.000000e+01
         vertex -2.057457e+01 1.010390e+01 2.000000e+01
         vertex -2.202430e+01 1.070440e+01 2.000000e+01
      endloop
   endfacet
   facet normal 5.224984e-01 8.526402e-01 2.339284e-16
      outer loop
         vertex -2.202430e+01 1.070440e+01 3.000000e+01
         vertex -2.202430e+01 1.070440e+01 2.000000e+01
         vertex -2.336225e+01 1.152430e+01 3.000000e+01
      endloop
   endfacet
   facet normal 5.224984e-01 8.526402e-01 2.339284e-16
      outer loop
         vertex -2.336225e+01 1.152430e+01 3.000000e+01
         vertex -2.202430e+01 1.070440e+01 2.000000e+01
         vertex -2.336225e+01 1.152430e+01 2.000000e+01
      endloop
   endfacet
   facet normal 6.494481e-01 7.604059e-01 2.517528e-16
      outer loop
         vertex -2.336225e+01 1.152430e+01 3.000000e+01
         vertex -2.336225e+01 1.152430e+01 2.000000e+01
         vertex -2.455547e+01 1.254340e+01 3.000000e+01
      endloop
   endfacet
   facet normal 6.494481e-01 7.604059e-01 2.517528e-16
      outer loop
         vertex -2.455547e+01 1.254340e+01 3.000000e+01
         vertex -2.336225e+01 1.152430e+01 2.000000e+01
         vertex -2.455547e+01 1.254340e+01 2.000000e+01
      endloop
   endfacet
   facet normal 7.604060e-01 6.494480e-01 2.633782e-16
      outer loop
         vertex -2.455547e+01 1.254340e+01 3.000000e+01
         vertex -2.455547e+01 1.254340e+01 2.000000e+01
         vertex -2.557457e+01 1.373661e+01 3.000000e+01
      endloop
   endfacet
   facet normal 7.604060e-01 6.494480e-01 2.633782e-16
      outer loop
         vertex -2.557457e+01 1.373661e+01 3.000000e+01
         vertex -2.455547e+01 1.254340e+01 2.000000e+01
         vertex -2.557457e+01 1.373661e+01 2.000000e+01
      endloop
   endfacet
   facet normal 8.526400e-01 5.224988e-01 2.685184e-16
      outer loop
         vertex -2.557457e+01 1.373661e+01 3.000000e+01
         vertex -2.557457e+01 1.373661e+01 2.000000e+01
         vertex -2.639447e+01 1.507456e+01 3.000000e+01
      endloop
   endfacet
   facet normal 8.526400e-01 5.224988e-01 2.685184e-16
      outer loop
         vertex -2.639447e+01 1.507456e+01 3.000000e+01
         vertex -2.557457e+01 1.373661e+01 2.000000e+01
         vertex -2.639447e+01 1.507456e+01 2.000000e+01
      endloop
   endfacet
   facet normal 9.238796e-01 3.826833e-01 2.670468e-16
      outer loop
         vertex -2.639447e+01 1.507456e+01 3.000000e+01
         vertex -2.639447e+01 1.507456e+01 2.000000e+01
         vertex -2.699496e+01 1.652430e+01 3.000000e+01
      endloop
   endfacet
   facet normal 9.238796e-01 3.826833e-01 2.670468e-16
      outer loop
         vertex -2.699496e+01 1.652430e+01 3.000000e+01
         vertex -2.639447e+01 1.507456e+01 2.000000e+01
         vertex -2.699496e+01 1.652430e+01 2.000000e+01
      endloop
   endfacet
   facet normal 9.723699e-01 2.334454e-01 2.589995e-16
      outer loop
         vertex -2.699496e+01 1.652430e+01 3.000000e+01
         vertex -2.699496e+01 1.652430e+01 2.000000e+01
         vertex -2.736128e+01 1.805012e+01 3.000000e+01
      endloop
   endfacet
   facet normal 9.723699e-01 2.334454e-01 2.589995e-16
      outer loop
         vertex -2.736128e+01 1.805012e+01 3.000000e+01
         vertex -2.699496e+01 1.652430e+01 2.000000e+01
         vertex -2.736128e+01 1.805012e+01 2.000000e+01
      endloop
   endfacet
   facet normal 9.969173e-01 7.845902e-02 2.445749e-16
      outer loop
         vertex -2.736128e+01 1.805012e+01 3.000000e+01
         vertex -2.736128e+01 1.805012e+01 2.000000e+01
         vertex -2.748440e+01 1.961447e+01 3.000000e+01
      endloop
   endfacet
   facet normal 9.969173e-01 7.845902e-02 2.445749e-16
      outer loop
         vertex -2.748440e+01 1.961447e+01 3.000000e+01
         vertex -2.736128e+01 1.805012e+01 2.000000e+01
         vertex -2.748440e+01 1.961447e+01 2.000000e+01
      endloop
   endfacet
   facet normal 9.969173e-01 -7.845931e-02 2.241280e-16
      outer loop
         vertex -2.748440e+01 1.961447e+01 3.000000e+01
         vertex -2.748440e+01 1.961447e+01 2.000000e+01
         vertex -2.736128e+01 2.117881e+01 3.000000e+01
      endloop
   endfacet
   facet normal 9.969173e-01 -7.845931e-02 2.241280e-16
      outer loop
         vertex -2.736128e+01 2.117881e+01 3.000000e+01
         vertex -2.748440e+01 1.961447e+01 2.000000e+01
         vertex -2.736128e+01 2.117881e+01 2.000000e+01
      endloop
   endfacet
   facet normal 9.723699e-01 -2.334454e-01 1.981623e-16
      outer loop
         vertex -2.736128e+01 2.117881e+01 3.000000e+01
         vertex -2.736128e+01 2.117881e+01 2.000000e+01
         vertex -2.699496e+01 2.270464e+01 3.000000e+01
      endloop
   endfacet
   facet normal 9.723699e-01 -2.334454e-01 1.981623e-16
      outer loop
         vertex -2.699496e+01 2.270464e+01 3.000000e+01
         vertex -2.736128e+01 2.117881e+01 2.000000e+01
         vertex -2.699496e+01 2.270464e+01 2.000000e+01
      endloop
   endfacet
   facet normal 9.238796e-01 -3.826832e-01 1.673173e-16
      outer loop
         vertex -2.699496e+01 2.270464e+01 3.000000e+01
         vertex -2.699496e+01 2.270464e+01 2.000000e+01
         vertex -2.639446e+01 2.415437e+01 3.000000e+01
      endloop
   endfacet
   facet normal 9.238796e-01 -3.826832e-01 1.673173e-16
      outer loop
         vertex -2.639446e+01 2.415437e+01 3.000000e+01
         vertex -2.699496e+01 2.270464e+01 2.000000e+01
         vertex -2.639446e+01 2.415437e+01 2.000000e+01
      endloop
   endfacet
   facet normal 8.526402e-01 -5.224984e-01 1.323523e-16
      outer loop
         vertex -2.639446e+01 2.415437e+01 3.000000e+01
         vertex -2.639446e+01 2.415437e+01 2.000000e+01
         vertex -2.557457e+01 2.549232e+01 3.000000e+01
      endloop
   endfacet
   facet normal 8.526402e-01 -5.224984e-01 1.323523e-16
      outer loop
         vertex -2.557457e+01 2.549232e+01 3.000000e+01
         vertex -2.639446e+01 2.415437e+01 2.000000e+01
         vertex -2.557457e+01 2.549232e+01 2.000000e+01
      endloop
   endfacet
   facet normal 7.604059e-01 -6.494481e-01 9.412831e-17
      outer loop
         vertex -2.557457e+01 2.549232e+01 3.000000e+01
         vertex -2.557457e+01 2.549232e+01 2.000000e+01
         vertex -2.455547e+01 2.668553e+01 3.000000e+01
      endloop
   endfacet
   facet normal 7.604059e-01 -6.494481e-01 9.412831e-17
      outer loop
         vertex -2.455547e+01 2.668553e+01 3.000000e+01
         vertex -2.557457e+01 2.549232e+01 2.000000e+01
         vertex -2.455547e+01 2.668553e+01 2.000000e+01
      endloop
   endfacet
   facet normal 6.494480e-01 -7.604060e-01 5.358662e-17
      outer loop
         vertex -2.455547e+01 2.668553e+01 3.000000e+01
         vertex -2.455547e+01 2.668553e+01 2.000000e+01
         vertex -2.336225e+01 2.770464e+01 3.000000e+01
      endloop
   endfacet
   facet normal 6.494480e-01 -7.604060e-01 5.358662e-17
      outer loop
         vertex -2.336225e+01 2.770464e+01 3.000000e+01
         vertex -2.455547e+01 2.668553e+01 2.000000e+01
         vertex -2.336225e+01 2.770464e+01 2.000000e+01
      endloop
   endfacet
   facet normal 5.224988e-01 -8.526400e-01 1.172553e-17
      outer loop
         vertex -2.336225e+01 2.770464e+01 3.000000e+01
         vertex -2.336225e+01 2.770464e+01 2.000000e+01
         vertex -2.202430e+01 2.852453e+01 3.000000e+01
      endloop
   endfacet
   facet normal 5.224988e-01 -8.526400e-01 1.172553e-17
      outer loop
         vertex -2.202430e+01 2.852453e+01 3.000000e+01
         vertex -2.336225e+01 2.770464e+01 2.000000e+01
         vertex -2.202430e+01 2.852453e+01 2.000000e+01
      endloop
   endfacet
   facet normal 3.826833e-01 -9.238796e-01 -3.042445e-17
      outer loop
         vertex -2.202430e+01 2.852453e+01 3.000000e+01
         vertex -2.202430e+01 2.852453e+01 2.000000e+01
         vertex -2.057457e+01 2.912503e+01 3.000000e+01
      endloop
   endfacet
   facet normal 3.826833e-01 -9.238796e-01 -3.042445e-17
      outer loop
         vertex -2.057457e+01 2.912503e+01 3.000000e+01
         vertex -2.202430e+01 2.852453e+01 2.000000e+01
         vertex -2.057457e+01 2.912503e+01 2.000000e+01
      endloop
   endfacet
   facet normal 2.334454e-01 -9.723699e-01 -7.182515e-17
      outer loop
         vertex -2.057457e+01 2.912503e+01 3.000000e+01
         vertex -2.057457e+01 2.912503e+01 2.000000e+01
         vertex -1.904874e+01 2.949135e+01 3.000000e+01
      endloop
   endfacet
   facet normal 2.334454e-01 -9.723699e-01 -7.182515e-17
      outer loop
         vertex -1.904874e+01 2.949135e+01 3.000000e+01
         vertex -2.057457e+01 2.912503e+01 2.000000e+01
         vertex -1.904874e+01 2.949135e+01 2.000000e+01
      endloop
   endfacet
   facet normal 7.845902e-02 -9.969173e-01 -1.114574e-16
      outer loop
         vertex -1.904874e+01 2.949135e+01 3.000000e+01
         vertex -1.904874e+01 2.949135e+01 2.000000e+01
         vertex -1.748440e+01 2.961447e+01 3.000000e+01
      endloop
   endfacet
   facet normal 7.845902e-02 -9.969173e-01 -1.114574e-16
      outer loop
         vertex -1.748440e+01 2.961447e+01 3.000000e+01
         vertex -1.904874e+01 2.949135e+01 2.000000e+01
         vertex -1.748440e+01 2.961447e+01 2.000000e+01
      endloop
   endfacet
   facet normal 7.485657e-17 8.658218e-17 -1.000000e+00
      outer loop
         vertex -1.748440e+01 2.961447e+01 3.000000e+01
         vertex -1.592005e+01 2.949135e+01 3.000000e+01
         vertex -1.748440e+01 1.961447e+01 3.000000e+01
      endloop
   endfacet
   facet normal 7.485657e-17 8.658218e-17 -1.000000e+00
      outer loop
         vertex -2.202430e+01 2.852453e+01 3.000000e+01
         vertex -2.057457e+01 2.912503e+01 3.000000e+01
         vertex -1.748440e+01 1.961447e+01 3.000000e+01
      endloop
   endfacet
   facet normal 7.485657e-17 8.658218e-17 -1.000000e+00
      outer loop
         vertex -1.748440e+01 1.961447e+01 3.000000e+01
         vertex -2.057457e+01 2.912503e+01 3.000000e+01
         vertex -1.904874e+01 2.949135e+01 3.000000e+01
      endloop
   endfacet
   facet normal 7.485657e-17 8.658218e-17 -1.000000e+00
      outer loop
         vertex -1.748440e+01 1.961447e+01 3.000000e+01
         vertex -1.904874e+01 2.949135e+01 3.000000e+01
         vertex -1.748440e+01 2.961447e+01 3.000000e+01
      endloop
   endfacet
   facet normal 7.485657e-17 8.658218e-17 -1.000000e+00
      outer loop
         vertex -2.557457e+01 2.549232e+01 3.000000e+01
         vertex -2.455547e+01 2.668553e+01 3.000000e+01
         vertex -1.748440e+01 1.961447e+01 3.000000e+01
      endloop
   endfacet
   facet normal 7.485657e-17 8.658218e-17 -1.000000e+00
      outer loop
         vertex -1.748440e+01 1.961447e+01 3.000000e+01
         vertex -2.455547e+01 2.668553e+01 3.000000e+01
         vertex -2.336225e+01 2.770464e+01 3.000000e+01
      endloop
   endfacet
   facet normal 7.485657e-17 8.658218e-17 -1.000000e+00
      outer loop
         vertex -1.748440e+01 1.961447e+01 3.000000e+01
         vertex -2.336225e+01 2.770464e+01 3.000000e+01
         vertex -2.202430e+01 2.852453e+01 3.000000e+01
      endloop
   endfacet
   facet normal 7.485657e-17 8.658218e-17 -1.000000e+00
      outer loop
         vertex -2.736128e+01 2.117881e+01 3.000000e+01
         vertex -2.699496e+01 2.270464e+01 3.000000e+01
         vertex -1.748440e+01 1.961447e+01 3.000000e+01
      endloop
   endfacet
   facet normal 7.485657e-17 8.658218e-17 -1.000000e+00
      outer loop
         vertex -1.748440e+01 1.961447e+01 3.000000e+01
         vertex -2.699496e+01 2.270464e+01 3.000000e+01
         vertex -2.639446e+01 2.415437e+01 3.000000e+01
      endloop
   endfacet
   facet normal 7.485657e-17 8.658218e-17 -1.000000e+00
      outer loop
         vertex -1.748440e+01 1.961447e+01 3.000000e+01
         vertex -2.639446e+01 2.415437e+01 3.000000e+01
         vertex -2.557457e+01 2.549232e+01 3.000000e+01
      endloop
   endfacet
   facet normal 7.485657e-17 8.658218e-17 -1.000000e+00
      outer loop
         vertex -2.699496e+01 1.652430e+01 3.000000e+01
         vertex -2.736128e+01 1.805012e+01 3.000000e+01
         vertex -1.748440e+01 1.961447e+01 3.000000e+01
      endloop
   endfacet
   facet normal 7.485657e-17 8.658218e-17 -1.000000e+00
      outer loop
         vertex -1.748440e+01 1.961447e+01 3.000000e+01
         vertex -2.736128e+01 1.805012e+01 3.000000e+01
         vertex -2.748440e+01 1.961447e+01 3.000000e+01
      endloop
   endfacet
   facet normal 7.485657e-17 8.658218e-17 -1.000000e+00
      outer loop
         vertex -1.748440e+01 1.961447e+01 3.000000e+01
         vertex -2.748440e+01 1.961447e+01 3.000000e+01
         vertex -2.736128e+01 2.117881e+01 3.000000e+01
      endloop
   endfacet
   facet normal 7.485657e-17 8.658218e-17 -1.000000e+00
      outer loop
         vertex -2.455547e+01 1.254340e+01 3.000000e+01
         vertex -2.557457e+01 1.373661e+01 3.000000e+01
         vertex -1.748440e+01 1.961447e+01 3.000000e+01
      endloop
   endfacet
   facet normal 7.485657e-17 8.658218e-17 -1.000000e+00
      outer loop
         vertex -1.748440e+01 1.961447e+01 3.000000e+01
         vertex -2.557457e+01 1.373661e+01 3.000000e+01
         vertex -2.639447e+01 1.507456e+01 3.000000e+01
      endloop
   endfacet
   facet normal 7.485657e-17 8.658218e-17 -1.000000e+00
      outer loop
         vertex -1.748440e+01 1.961447e+01 3.000000e+01
         vertex -2.639447e+01 1.507456e+01 3.000000e+01
         vertex -2.699496e+01 1.652430e+01 3.000000e+01
      endloop
   endfacet
   facet normal 7.485657e-17 8.658218e-17 -1.000000e+00
      outer loop
         vertex -2.057457e+01 1.010390e+01 3.000000e+01
         vertex -2.202430e+01 1.070440e+01 3.000000e+01
         vertex -1.748440e+01 1.961447e+01 3.000000e+01
      endloop
   endfacet
   facet normal 7.485657e-17 8.658218e-17 -1.000000e+00
      outer loop
         vertex -1.748440e+01 1.961447e+01 3.000000e+01
         vertex -2.202430e+01 1.070440e+01 3.000000e+01
         vertex -2.336225e+01 1.152430e+01 3.000000e+01
      endloop
   endfacet
   facet normal 7.485657e-17 8.658218e-17 -1.000000e+00
      outer loop
         vertex -1.748440e+01 1.961447e+01 3.000000e+01
         vertex -2.336225e+01 1.152430e+01 3.000000e+01
         vertex -2.455547e+01 1.254340e+01 3.000000e+01
      endloop
   endfacet
   facet normal 7.485657e-17 8.658218e-17 -1.000000e+00
      outer loop
         vertex -1.592005e+01 9.737582e+00 3.000000e+01
         vertex -1.748440e+01 9.614466e+00 3.000000e+01
         vertex -1.748440e+01 1.961447e+01 3.000000e+01
      endloop
   endfacet
   facet normal 7.485657e-17 8.658218e-17 -1.000000e+00
      outer loop
         vertex -1.748440e+01 1.961447e+01 3.000000e+01
         vertex -1.748440e+01 9.614466e+00 3.000000e+01
         vertex -1.904874e+01 9.737583e+00 3.000000e+01
      endloop
   endfacet
   facet normal 7.485657e-17 8.658218e-17 -1.000000e+00
      outer loop
         vertex -1.748440e+01 1.961447e+01 3.000000e+01
         vertex -1.904874e+01 9.737583e+00 3.000000e+01
         vertex -2.057457e+01 1.010390e+01 3.000000e+01
      endloop
   endfacet
   facet normal 7.485657e-17 8.658218e-17 -1.000000e+00
      outer loop
         vertex -1.160655e+01 1.152430e+01 3.000000e+01
         vertex -1.294449e+01 1.070440e+01 3.000000e+01
         vertex -1.748440e+01 1.961447e+01 3.000000e+01
      endloop
   endfacet
   facet normal 7.485657e-17 8.658218e-17 -1.000000e+00
      outer loop
         vertex -1.748440e+01 1.961447e+01 3.000000e+01
         vertex -1.294449e+01 1.070440e+01 3.000000e+01
         vertex -1.439423e+01 1.010390e+01 3.000000e+01
      endloop
   endfacet
   facet normal 7.485657e-17 8.658218e-17 -1.000000e+00
      outer loop
         vertex -1.748440e+01 1.961447e+01 3.000000e+01
         vertex -1.439423e+01 1.010390e+01 3.000000e+01
         vertex -1.592005e+01 9.737582e+00 3.000000e+01
      endloop
   endfacet
   facet normal 7.485657e-17 8.658218e-17 -1.000000e+00
      outer loop
         vertex -8.574334e+00 1.507456e+01 3.000000e+01
         vertex -9.394229e+00 1.373661e+01 3.000000e+01
         vertex -1.748440e+01 1.961447e+01 3.000000e+01
      endloop
   endfacet
   facet normal 7.485657e-17 8.658218e-17 -1.000000e+00
      outer loop
         vertex -1.748440e+01 1.961447e+01 3.000000e+01
         vertex -9.394229e+00 1.373661e+01 3.000000e+01
         vertex -1.041333e+01 1.254340e+01 3.000000e+01
      endloop
   endfacet
   facet normal 7.485657e-17 8.658218e-17 -1.000000e+00
      outer loop
         vertex -1.748440e+01 1.961447e+01 3.000000e+01
         vertex -1.041333e+01 1.254340e+01 3.000000e+01
         vertex -1.160655e+01 1.152430e+01 3.000000e+01
      endloop
   endfacet
   facet normal 7.485657e-17 8.658218e-17 -1.000000e+00
      outer loop
         vertex -7.484399e+00 1.961447e+01 3.000000e+01
         vertex -7.607516e+00 1.805012e+01 3.000000e+01
         vertex -1.748440e+01 1.961447e+01 3.000000e+01
      endloop
   endfacet
   facet normal 7.485657e-17 8.658218e-17 -1.000000e+00
      outer loop
         vertex -1.748440e+01 1.961447e+01 3.000000e+01
         vertex -7.607516e+00 1.805012e+01 3.000000e+01
         vertex -7.973835e+00 1.652430e+01 3.000000e+01
      endloop
   endfacet
   facet normal 7.485657e-17 8.658218e-17 -1.000000e+00
      outer loop
         vertex -1.748440e+01 1.961447e+01 3.000000e+01
         vertex -7.973835e+00 1.652430e+01 3.000000e+01
         vertex -8.574334e+00 1.507456e+01 3.000000e+01
      endloop
   endfacet
   facet normal 7.485657e-17 8.658218e-17 -1.000000e+00
      outer loop
         vertex -8.574334e+00 2.415437e+01 3.000000e+01
         vertex -7.973834e+00 2.270464e+01 3.000000e+01
         vertex -1.748440e+01 1.961447e+01 3.000000e+01
      endloop
   endfacet
   facet normal 7.485657e-17 8.658218e-17 -1.000000e+00
      outer loop
         vertex -1.748440e+01 1.961447e+01 3.000000e+01
         vertex -7.973834e+00 2.270464e+01 3.000000e+01
         vertex -7.607516e+00 2.117881e+01 3.000000e+01
      endloop
   endfacet
   facet normal 7.485657e-17 8.658218e-17 -1.000000e+00
      outer loop
         vertex -1.748440e+01 1.961447e+01 3.000000e+01
         vertex -7.607516e+00 2.117881e+01 3.000000e+01
         vertex -7.484399e+00 1.961447e+01 3.000000e+01
      endloop
   endfacet
   facet normal 7.485657e-17 8.658218e-17 -1.000000e+00
      outer loop
         vertex -1.160655e+01 2.770464e+01 3.000000e+01
         vertex -1.041333e+01 2.668553e+01 3.000000e+01
         vertex -1.748440e+01 1.961447e+01 3.000000e+01
      endloop
   endfacet
   facet normal 7.485657e-17 8.658218e-17 -1.000000e+00
      outer loop
         vertex -1.748440e+01 1.961447e+01 3.000000e+01
         vertex -1.041333e+01 2.668553e+01 3.000000e+01
         vertex -9.394230e+00 2.549232e+01 3.000000e+01
      endloop
   endfacet
   facet normal 7.485657e-17 8.658218e-17 -1.000000e+00
      outer loop
         vertex -1.748440e+01 1.961447e+01 3.000000e+01
         vertex -9.394230e+00 2.549232e+01 3.000000e+01
         vertex -8.574334e+00 2.415437e+01 3.000000e+01
      endloop
   endfacet
   facet normal 7.485657e-17 8.658218e-17 -1.000000e+00
      outer loop
         vertex -1.592005e+01 2.949135e+01 3.000000e+01
         vertex -1.439423e+01 2.912503e+01 3.000000e+01
         vertex -1.748440e+01 1.961447e+01 3.000000e+01
      endloop
   endfacet
   facet normal 7.485657e-17 8.658218e-17 -1.000000e+00
      outer loop
         vertex -1.748440e+01 1.961447e+01 3.000000e+01
         vertex -1.439423e+01 2.912503e+01 3.000000e+01
         vertex -1.294449e+01 2.852453e+01 3.000000e+01
      endloop
   endfacet
   facet normal 7.485657e-17 8.658218e-17 -1.000000e+00
      outer loop
         vertex -1.748440e+01 1.961447e+01 3.000000e+01
         vertex -1.294449e+01 2.852453e+01 3.000000e+01
         vertex -1.160655e+01 2.770464e+01 3.000000e+01
      endloop
   endfacet
endsolid